<svg width="30" height="30" viewBox="0 0 30 30" fill="none" xmlns="http://www.w3.org/2000/svg">
<rect width="29" height="29" rx="8" transform="matrix(1 0 0 -1 0.487488 29.7974)" fill="#145858"/>
<path d="M20.0181 11.5759C20.159 11.4438 20.2381 11.2646 20.2381 11.0778C20.2381 10.891 20.159 10.7119 20.0181 10.5798C19.8772 10.4477 19.6861 10.3735 19.4868 10.3735C19.2876 10.3735 19.0965 10.4477 18.9556 10.5798L14.9875 14.3011L11.0181 10.5809C10.8772 10.4488 10.6861 10.3746 10.4868 10.3746C10.2876 10.3746 10.0965 10.4488 9.95559 10.5809C9.81469 10.713 9.73553 10.8922 9.73553 11.079C9.73553 11.2658 9.81469 11.4449 9.95559 11.577L13.925 15.2971L9.95684 19.0184C9.81594 19.1505 9.73678 19.3297 9.73678 19.5165C9.73678 19.7033 9.81594 19.8824 9.95684 20.0145C10.0977 20.1466 10.2888 20.2208 10.4881 20.2208C10.6873 20.2208 10.8784 20.1466 11.0193 20.0145L14.9875 16.2932L18.9568 20.0151C19.0977 20.1472 19.2888 20.2214 19.4881 20.2214C19.6873 20.2214 19.8784 20.1472 20.0193 20.0151C20.1602 19.883 20.2394 19.7039 20.2394 19.5171C20.2394 19.3303 20.1602 19.1511 20.0193 19.019L16.05 15.2971L20.0181 11.5759Z" fill="#F7B318"/>
</svg>
