<svg width="97" height="96" viewBox="0 0 97 96" fill="none" xmlns="http://www.w3.org/2000/svg">
<path d="M45.5 81C45.5 81.7956 45.1839 82.5587 44.6213 83.1213C44.0587 83.6839 43.2956 84 42.5 84H18.5C17.7044 84 16.9413 83.6839 16.3787 83.1213C15.8161 82.5587 15.5 81.7956 15.5 81V15C15.5 14.2044 15.8161 13.4413 16.3787 12.8787C16.9413 12.3161 17.7044 12 18.5 12H42.5C43.2956 12 44.0587 12.3161 44.6213 12.8787C45.1839 13.4413 45.5 14.2044 45.5 15C45.5 15.7956 45.1839 16.5587 44.6213 17.1213C44.0587 17.6839 43.2956 18 42.5 18H21.5V78H42.5C43.2956 78 44.0587 78.3161 44.6213 78.8787C45.1839 79.4413 45.5 80.2044 45.5 81ZM86.6225 45.8775L71.6225 30.8775C71.2029 30.4575 70.6682 30.1714 70.0859 30.0554C69.5037 29.9395 68.9001 29.9989 68.3516 30.2261C67.8032 30.4534 67.3344 30.8383 67.0048 31.3321C66.6752 31.8258 66.4995 32.4063 66.5 33V45H42.5C41.7044 45 40.9413 45.3161 40.3787 45.8787C39.8161 46.4413 39.5 47.2043 39.5 48C39.5 48.7957 39.8161 49.5587 40.3787 50.1213C40.9413 50.6839 41.7044 51 42.5 51H66.5V63C66.4995 63.5937 66.6752 64.1742 67.0048 64.6679C67.3344 65.1617 67.8032 65.5466 68.3516 65.7739C68.9001 66.0011 69.5037 66.0605 70.0859 65.9446C70.6682 65.8286 71.2029 65.5425 71.6225 65.1225L86.6225 50.1225C86.9014 49.8439 87.1227 49.513 87.2737 49.1488C87.4247 48.7846 87.5024 48.3942 87.5024 48C87.5024 47.6058 87.4247 47.2154 87.2737 46.8512C87.1227 46.487 86.9014 46.1561 86.6225 45.8775Z" fill="#145858"/>
</svg>
