<svg width="375" height="812" viewBox="0 0 375 812" fill="none" xmlns="http://www.w3.org/2000/svg">
<path d="M202.705 148.151C203.098 143.872 204.971 140.103 206.273 136.146C211.728 119.567 219.419 103.93 226.139 87.8807C227.749 84.0373 229.035 80.0596 231.465 76.5756C232.498 75.0885 233.646 74.3525 235.984 74.5482C242.09 75.062 248.184 75.3911 254.266 75.6725C255.57 75.7304 257.751 76.4371 257.357 74.1698C259.414 72.4154 258.436 70.9167 255.944 69.4498C252.278 67.288 248.534 65.2431 244.869 63.0789C240.644 60.5878 240.581 59.4451 244.654 57.969C255.995 53.8588 267.687 50.336 279.706 47.3754C282.283 46.7412 284.04 47.141 285.839 49.5879C289.336 54.3491 293.492 55.9589 298.394 54.937C303.325 53.9054 305.312 50.7971 304.048 45.4264C303.5 43.091 303.959 41.6836 306.649 41.2696C316.724 39.7239 326.716 37.9591 337.208 37.5791C338.968 37.5137 340.789 37.1201 342.638 38.2265C343.897 39.63 343.25 40.8323 342.755 41.979C338.409 51.9875 333.945 61.9439 329.584 71.9458C328.292 74.8969 325.521 75.6336 321.968 75.8343C304.216 76.8471 286.197 76.7549 268.366 77.4337C267.009 77.4863 265.532 77.2493 264.096 78.1287C266.391 79.8761 268.609 79.461 270.632 79.3785C286.508 78.7438 302.622 79.116 318.391 78.0528C318.943 78.0146 319.496 77.9802 320.056 77.9715C324.895 77.9115 326.124 79.2507 324.614 83.0812C323.506 85.886 322.513 88.7814 320.912 91.3371C315.321 100.261 312.06 110.243 307.549 119.652C306.993 120.803 306.343 121.933 306.023 123.165C304.683 128.303 301.214 130.475 294.367 130.018C286.872 129.517 279.651 130.661 272.345 131.219C254.014 132.619 235.458 133.271 217.287 135.2C215.464 135.394 213.308 135.073 212.106 136.593C213.769 137.908 215.31 137.436 216.719 137.29C238.052 135.088 259.887 134.563 281.278 132.557C286.223 132.092 291.271 132.016 296.326 132.012C300.077 132.01 301.389 133.303 300.137 136.107C295.119 147.326 291.002 158.96 284.761 169.626C283.521 171.741 282.469 173.944 281.636 176.231C279.68 181.603 276.244 186.244 273.858 191.403C273.01 193.242 271.271 194.007 268.911 194.263C252.391 196.038 235.582 196.878 218.993 198.433C217.489 198.574 215.957 198.771 214.471 197.668C211.155 190.703 203.994 187.138 197.145 183.34C194.361 181.799 191.33 180.603 189.384 178.088C189.569 174.452 191.549 171.523 193.134 168.48C194.197 166.44 196.218 166.143 199.149 167.039C201.375 167.717 203.556 168.523 205.68 169.612C212.937 173.336 220.539 174.792 228.272 174.991C228.794 175.003 229.264 174.724 229.762 174.579C232.254 172.206 230.256 169.629 228.359 167.355C223.786 161.863 218.185 157.243 211.401 153.722C208.327 152.126 205.019 150.757 202.705 148.151Z" fill="#689542"/>
<path d="M214.768 197.624C221.072 197.125 227.364 196.597 233.682 196.138C240.148 195.667 246.651 195.321 253.105 194.81C258.578 194.376 263.835 193.269 269.468 193.31C271.153 193.322 272.091 192.508 272.722 191.242C276.112 184.398 279.252 177.407 282.931 170.734C288.995 159.723 293.279 147.949 298.68 136.663C299.156 135.675 300.412 134.58 299.36 133.453C298.337 132.349 296.734 133.019 295.372 133.026C280.932 133.092 267.071 135.17 252.746 135.622C240.219 136.018 228.071 137.652 215.65 138.367C214.683 138.421 213.717 138.506 212.731 138.455C211.567 138.391 210.267 138.13 209.959 136.919C209.686 135.845 210.483 135.201 211.582 134.864C212.722 134.515 213.954 134.45 215.185 134.322C234.942 132.268 255.116 131.603 275 129.99C282.825 129.353 290.626 128.661 298.699 129.025C301.37 129.146 302.571 128.077 303.389 126.174C307.479 116.69 311.566 107.202 315.918 97.8354C318.253 92.8075 321.486 88.2014 323.392 82.9585C323.627 82.3028 324.002 81.7001 324.201 81.0346C324.692 79.3994 324.137 78.7988 322.039 78.854C318.838 78.937 315.646 79.081 312.478 79.2925C302.411 79.9601 292.167 79.8838 281.968 80.0068C277.36 80.0604 272.789 80.2754 268.192 80.3852C267.215 80.4061 266.213 80.3593 265.219 80.2304C263.657 80.0275 262.255 79.3997 262.116 77.8964C261.985 76.4989 263.291 76.3812 264.655 76.3603C275.825 76.1884 286.997 76.0456 298.139 75.7671C306.635 75.5555 315.088 75.1797 323.549 74.8357C325.911 74.7404 327.477 73.8929 328.325 71.9149C332.759 61.567 337.369 51.2967 341.909 40.9956C342.274 40.161 342.862 39.3537 342.126 38.2866C343.359 33.9154 345.706 30.022 347.347 25.8286C348.546 22.7621 348.217 22.2556 344.215 22.1703C318.422 21.6273 292.493 20.3044 266.818 20.4278C264.099 20.4419 261.358 21.0926 258.494 19.6601C259.627 16.9945 261.279 14.6347 263.432 12.5728C264.408 14.0217 265.717 14.3525 267.48 14.3709C293.673 14.6443 319.958 15.4411 346.279 16.4564C349.841 16.5953 351.779 15.6188 353.069 12.9571C356.303 6.27789 360.043 -0.163866 362.805 -7.06827C363.838 -9.65316 365.033 -12.1636 365.554 -14.9547C365.852 -16.5638 366.39 -18.1413 368.279 -18.8544C369.591 -20.409 370.187 -22.3161 370.932 -24.1348C378.088 -41.5244 386.532 -58.36 393.243 -75.9433C396.472 -84.4027 399.385 -92.9901 402.975 -101.304C403.709 -103.008 404.336 -104.762 405.112 -106.448C406.791 -110.096 407.049 -110.155 411.912 -108.544C417.715 -106.616 418.583 -105.382 417.163 -100.986C413.45 -89.4831 409.695 -77.9966 406.016 -66.4814C401.442 -52.1735 395.643 -38.3746 389.561 -24.689C387.487 -20.0237 385.52 -15.314 384.024 -10.4106C384.763 -8.46003 383.975 -6.87935 383.234 -5.32342C376.718 8.44019 370.058 22.135 363.686 35.9626C363.448 36.4861 363.175 36.9972 363.065 37.5659C360.082 41.5 358.5 46.1235 356.387 50.4929C355.277 52.7851 355.902 54.5686 358.051 56.8225C373.215 72.7672 389.237 88.1689 403.619 104.61C405.847 107.158 407.832 109.781 409.046 112.692C409.736 114.345 410.056 115.994 407.934 116.61C406.04 117.162 404.647 116.004 403.569 114.609C389.323 96.1828 371.942 79.6777 355.331 62.6963C351.935 59.2261 351.798 59.2992 349.951 62.9439C346.691 69.3785 345.202 76.5662 341.949 82.9526C338.213 90.3033 335.976 98.2844 332.088 105.537C330.565 108.372 331.118 110.875 333.875 113.616C346.571 126.256 357.744 139.744 368.477 153.477C370.003 155.43 371.724 157.334 372.023 159.653C370.377 161.415 368.266 161.117 365.91 159.759C359.963 152.895 354.608 145.727 348.8 138.785C342.979 131.832 336.753 125.141 330.36 118.533C328.451 116.558 327.281 116.122 326.381 118.546C323.232 127.054 318.58 134.866 314.574 142.976C312.059 148.067 309.135 152.955 306.875 158.181C305.735 160.812 306.057 163.014 308.256 165.683C318.072 177.591 327.84 189.532 337.01 201.755C342.235 207.973 347.1 214.365 352.014 220.738C353.429 222.575 353.965 224.364 353.957 226.289L353.913 226.347C354.212 227.233 353.903 227.859 353.103 228.273C352.92 228.653 352.552 228.735 352.062 228.625C349.719 228.614 348.816 226.969 347.88 225.561C342.814 217.928 336.657 210.813 330.849 203.527C322.293 193.119 314.318 182.428 305.557 172.126C302.908 169.017 302.144 168.898 300.397 171.85C297.441 176.843 294.788 182.044 292.479 187.305C286.286 201.425 278.664 214.877 272.793 229.134C271.69 231.437 269.963 233.391 268.832 235.7C267.545 238.323 268.153 240.628 270.366 243.217C274.623 248.206 278.956 253.154 283.228 258.132C284.777 259.936 286.32 261.75 287.217 263.81C287.927 265.443 288.359 267.238 286.441 267.91C284.15 268.713 282.264 267.224 281.023 265.453C276.772 259.378 271.116 254.062 266.49 248.2C266.068 247.666 265.688 247.086 264.869 246.733C263.488 246.766 263.546 247.921 263.207 248.688C258.394 259.5 253.699 270.367 248.788 281.138C247.586 283.771 248.132 285.98 250.226 288.643C258.354 298.978 265.558 309.707 273.057 320.314C274.165 321.881 275.111 323.502 275.774 325.192C276.445 326.904 276.479 328.489 274.344 328.978C272.398 329.427 271.128 328.155 270.086 326.751C264.922 319.798 259.97 312.757 255.123 305.676C252.502 301.85 249.657 298.123 246.778 294.414C244.463 291.426 243.571 291.417 242.098 294.336C241.003 296.515 240.112 298.787 239.112 301.011C232.467 315.819 224.823 330.146 217.028 344.4C216.18 345.952 215.005 346.961 212.725 346.782C210.73 346.194 209.291 345.076 208.437 343.402C207.769 341.004 208.311 338.817 209.165 336.827C211.717 330.891 212.993 324.448 216.027 318.705C216.537 317.73 217.724 316.547 216.682 315.478C215.424 314.186 213.712 315.069 212.357 315.299C206.776 316.24 201.07 316.841 195.428 317.607C194.002 317.8 192.604 318.463 191.005 317.331C190.926 316.545 189.547 316.28 189.662 315.415C189.219 312.768 191.148 311.992 193.619 311.64C201.288 310.552 208.949 309.442 216.653 308.457C219.079 308.148 221.075 307.473 221.896 305.426C227.292 291.902 233.08 278.536 238.155 264.077C224.447 264.417 211.809 265.875 199.161 267.3C195.718 267.57 192.305 267.912 189.108 268.805C188.473 268.982 187.817 269.134 187.127 269.182C184.891 269.338 182.216 269.636 181.055 267.266C179.847 264.805 182.363 264.115 184.386 263.477C188.791 262.083 193.541 261.545 198.438 261.384C209.877 259.712 221.518 258.572 233.359 258.199C238.71 258.033 241.737 256.365 242.594 252.058C247.058 239.22 253.832 227.402 258.952 214.857C260.795 210.337 264.155 206.564 265.652 201.88C265.93 201.021 266.868 200.141 265.98 199.222C265.085 198.304 263.817 198.802 262.771 198.921C248.481 200.588 233.871 201.25 219.457 202.519C216.397 202.789 213.457 202.829 212.034 199.299C212.004 197.732 213.102 197.372 214.768 197.624Z" fill="#587E37"/>
<path d="M332.026 203.672C337.842 210.662 343.774 217.602 348.586 225.057C349.486 226.447 350.516 227.689 352.065 228.626C346.154 237.554 340.36 246.548 334.292 255.384C331.537 259.39 329.214 263.701 325.374 267.032C318.238 265.685 311.188 265.295 304.14 265.082C299.829 264.954 295.779 265.42 292.08 266.77C290.073 267.503 288.297 268.499 289.487 271.033C289.354 272.576 290.842 273.503 291.919 274.565C297.274 279.841 303.137 284.597 309.949 288.48C314.485 291.069 314.658 291.79 312.79 295.375C311.736 297.402 310.841 299.544 308.704 300.907C301.818 297.168 294.376 296.218 287.054 294.866C284.072 294.314 285.162 296.238 285.722 297.646C284.686 298.013 283.513 296.898 282.42 297.385C285.896 301.099 290.609 303.361 294.91 306.057C301.268 310.044 301.589 311.337 296.861 315.23C285.426 324.643 272.196 331.936 257.358 337.568C244.956 342.274 231.777 345.237 218.01 347.158C216.324 347.393 214.611 348.09 212.724 346.782C214.332 346.175 215.354 345.195 216.102 343.771C220.992 334.446 225.713 325.035 230.6 315.715C234.266 308.72 237.2 301.419 240.727 294.38C240.988 293.861 241.208 293.324 241.445 292.794C241.969 291.623 242.48 290.156 244.164 290.26C245.666 290.354 246.26 291.944 247.103 293.014C255.149 303.193 261.691 314.006 269.653 324.219C270.326 325.083 270.755 326.06 271.323 326.974C271.961 328.009 272.865 328.644 274.155 328.34C275.429 328.041 275.704 327.172 275.173 326.093C274.355 324.443 273.609 322.737 272.488 321.201C264.176 309.832 256.628 298.14 247.675 287.045C246.461 285.539 246.062 284.251 246.783 282.649C252.41 270.165 257.912 257.629 263.46 245.11C263.55 244.906 263.743 244.746 263.888 244.566C264.742 244.425 265.247 244.981 265.658 245.492C269.724 250.569 274.027 255.51 278.503 260.364C279.725 261.695 280.663 263.204 281.635 264.668C282.24 265.581 282.745 266.475 283.927 267.031C285.771 267.902 287.236 267.326 286.869 265.653C286.488 263.938 285.428 262.346 284.129 260.837C279.309 255.241 274.529 249.627 269.738 244.016C269.017 243.169 268.363 242.285 267.628 241.446C266.393 240.045 266.27 238.762 266.848 237.321C268.053 234.295 269.698 231.511 271.599 228.849C279.806 223.042 289.669 219.244 299.115 214.974C308.002 210.955 317.117 207.216 326.596 204.025C328.243 203.469 329.812 202.395 332.026 203.672Z" fill="#7DB64E"/>
<path d="M371.804 159.594C367.68 154.311 363.654 148.979 359.413 143.758C352.167 134.842 344.93 125.916 336.376 117.739C334.946 116.371 333.955 114.656 332.43 113.397C329.128 110.671 329.325 108.252 330.784 105.488C332.627 102.001 334.039 98.3033 335.614 94.6863C336.21 93.3111 336.893 91.9854 336.902 90.3682C336.908 89.4548 337.296 88.5025 337.853 87.7897C340.847 83.9542 342.218 79.4734 343.609 74.8966C345.159 69.798 347.662 65.0289 349.95 60.2074C351.021 57.9439 352.007 57.9926 354.129 60.1351C366.363 72.5049 378.723 84.7853 390.337 97.5612C395.421 103.156 400.85 108.543 404.757 114.75C405.412 115.788 406.34 116.394 407.61 116.055C408.887 115.714 409.047 114.804 408.487 113.749C407.431 111.769 406.547 109.755 405.066 107.872C401.475 103.306 397.307 99.0819 393.35 94.7382C385.219 85.8154 376.585 77.2138 367.981 68.594C363.598 64.2015 359.863 59.3809 355.002 55.3009C353.787 54.2809 353.902 53.2993 354.352 52.2804C356.186 48.1432 358.065 44.0261 359.8 39.8486C360.28 38.6976 361.435 38.5362 362.519 38.1756C364.995 37.0417 367.934 37.6193 370.718 37.9749C380.477 39.2226 390.145 41.5958 398.923 46.5804C401.003 47.7604 403.306 45.9239 404.54 48.4229C405.265 50.0143 406.881 50.8216 408.47 51.5599C414.31 54.2718 419.015 58.36 424.168 61.9005C425.986 63.1499 426.294 64.7533 426.133 66.3122C425.891 68.6603 425.691 71.0525 425.012 73.2616C423.265 78.9387 422.255 84.8445 420.707 90.5758C418.785 97.6634 416.149 104.493 413.38 111.258C411.048 116.95 408.626 122.599 406.492 128.382C402.784 138.427 397.715 147.847 391.842 156.846C390.265 159.264 389.734 162.261 387.262 164.176C384.051 161.484 380.26 162.362 376.759 161.454C375.035 161.006 373.043 161.452 371.804 159.594Z" fill="#689542"/>
<path d="M198.806 262.224C193.984 262.51 189.232 262.97 184.854 264.36C184.114 264.596 183.306 264.749 182.621 265.066C181.768 265.466 181.286 266.167 181.709 267.116C182.071 267.924 182.994 268.189 183.858 268.343C185.789 268.692 187.447 268.241 189.114 267.796C192.153 266.984 195.252 266.316 198.723 266.733C204.842 270.967 205.314 273.67 200.665 277.088C195.591 280.816 190.356 284.393 185.372 288.212C184.307 289.03 183.417 290.432 181.232 289.408C178.257 276.759 176.17 264.153 175.506 251.591C175.01 242.182 174.759 232.815 176.635 223.852C178.094 216.881 179.857 209.999 181.62 203.123C182.017 201.563 182.922 200.159 183.704 198.738C184.685 196.958 186.507 196.121 188.989 196.383C196.222 197.15 203.382 197.128 210.642 198.259C211.123 198.659 211.714 198.695 212.271 198.842C214.819 201.907 214.79 201.809 218.589 201.503C229.144 200.653 239.711 199.836 250.31 199.125C254.993 198.811 259.557 198.186 264.153 197.644C265.384 197.499 266.561 197.296 267.907 197.807C268.865 199.05 267.836 199.841 267.5 200.751C264.86 207.812 260.206 213.918 257.564 220.992C255.942 225.337 253.882 229.505 251.975 233.735C250.838 236.26 248.298 238.128 247.931 240.972C247.411 245.013 245.36 248.399 243.906 252.044C243.779 252.366 243.607 252.672 243.455 252.986C240.976 249.835 243.518 248.34 244.82 246.284C241.126 248.686 237.3 251.068 233.75 253.708C231.101 255.682 228.88 255.779 225.336 253.324C217.331 247.782 208.943 247.305 203.219 251.656C199.758 254.282 198.576 257.975 198.806 262.224Z" fill="#689542"/>
<path d="M336.414 202.567C326.92 189.965 316.828 177.653 306.717 165.35C304.591 162.761 304.466 160.883 305.464 158.368C308.544 150.597 312.802 143.383 316.691 136.031C319.947 129.874 322.537 123.442 325.668 117.25C326.133 116.328 326.291 115.24 327.352 114.483C329.063 114.959 329.554 116.484 330.593 117.501C343.421 130.016 354.197 143.665 365.013 157.292C365.543 157.958 366.033 158.59 366.109 159.352C366.011 160.719 365.775 162.106 367.592 163.209C369.089 166.538 372.466 168.405 375.599 170.442C376.324 170.91 377.203 171.178 377.992 171.567C381.438 173.255 382.517 174.975 381.357 177.66C379.337 182.343 376.566 186.647 373.553 190.813C369.546 193.188 364.379 193.655 359.845 195.17C352.106 197.749 344.198 200.058 336.414 202.567Z" fill="#689542"/>
<path d="M368.28 -18.8551C365.936 -11.1801 362.86 -3.80492 359.454 3.4295C357.434 7.71784 354.398 11.5092 352.903 16.0576C352.536 17.1756 351.56 17.6521 350.11 17.524C349.971 17.5111 349.829 17.5222 349.688 17.5141C336.949 16.797 324.39 17.2347 311.567 16.0514C307.034 15.6319 302.532 15.7468 298.051 15.7825C289.503 15.8491 280.922 15.7217 272.293 15.3657C269.234 15.2412 266.215 15.3935 263.238 15.4189C262.349 14.1505 263.441 13.4861 263.432 12.5721C266.237 7.73413 269.672 3.2744 273.449 -0.952126C277.928 -5.96676 282.383 -11.0175 288.572 -14.6454C298.266 -20.3275 309.12 -24.1437 321.644 -25.0094C331.161 -25.6666 340.72 -26.396 350.707 -24.5817C354.389 -23.912 358.155 -23.5637 361.653 -21.7093C362.764 -21.6483 363.691 -21.1623 364.535 -20.4712C365.882 -20.1668 367.079 -19.5074 368.28 -18.8551Z" fill="#47652D"/>
<path d="M258.494 19.6615C263.646 19.5464 268.755 19.1533 273.957 19.365C292.047 20.0998 309.953 19.767 328.095 20.8239C333.896 21.1629 339.646 21.1158 345.42 21.261C346.403 21.2853 347.407 21.3019 348.393 21.4838C349.398 21.6689 349.931 22.311 349.697 23.1436C349.511 23.8121 349.219 24.4484 348.938 25.0841C347.446 28.4814 345.925 31.8692 344.451 35.2746C343.939 36.457 343.428 37.6163 342.128 38.2856C334.304 38.4386 326.693 39.2461 319.158 40.3002C314.86 40.9032 310.591 41.5728 306.301 42.1992C304.632 42.4439 304.21 43.1283 304.914 44.7272C308.554 53.0275 300.392 57.776 292.562 55.7331C288.838 54.7577 286.231 52.5542 284.688 49.6427C283.627 47.6415 282.605 47.6084 280.755 48.0832C270.877 50.6148 261.15 53.4008 251.676 56.637C248.512 57.7175 245.301 58.7064 242.044 60.0195C245.61 62.9563 249.685 64.6754 253.407 66.8419C255.18 67.8749 256.733 69.1776 258.627 70.0423C259.818 70.5851 260.385 71.5012 260.165 72.5646C259.899 73.8381 259.25 74.712 257.358 74.1697C255.297 73.0353 253.245 71.8904 251.174 70.7714C247.307 68.6802 243.62 66.3273 239.289 65.0243C235.795 63.9709 235.035 62.509 236.224 59.8711C242.526 45.8988 248.966 31.9903 258.494 19.6615Z" fill="#47652D"/>
<path d="M404.539 48.4224C404.016 48.1915 403.046 47.7292 403.028 47.7612C402.087 49.4108 400.675 48.1731 399.503 47.6129C387.964 42.1125 376.105 38.7947 363.772 38.5158C363.375 38.5081 362.938 38.2952 362.517 38.1751C361.433 37.5712 361.03 36.7987 361.634 36.0018C365.924 30.3773 367.789 23.6145 370.681 17.3418C374.986 8.02347 380.325 -0.812941 384.023 -10.4104C390.616 -6.45012 396.296 -1.62194 401.611 3.54648C409.761 11.4704 416.098 20.0852 420.554 29.6558C423.664 36.3363 426.801 42.9379 428.083 49.8215C428.22 50.5504 428.479 51.288 428.542 52.0127C428.743 54.3231 427.697 55.2777 424.991 55.0816C422.26 54.8856 419.579 53.9441 416.951 53.0399C412.783 51.6065 408.674 49.972 404.539 48.4224Z" fill="#47652D"/>
<path d="M181.232 289.408C183.759 288.962 184.954 287.098 186.737 285.882C191.287 282.785 195.608 279.461 200.007 276.215C200.785 275.64 201.44 274.942 202.249 274.394C203.374 273.639 203.624 272.802 202.274 271.703C200.526 270.277 200.22 268.262 198.725 266.731C200.432 265.514 202.87 265.779 204.982 265.56C216.256 264.392 227.593 263.409 239.007 262.767C239.796 263.329 239.541 263.865 239.378 264.422C236.963 272.799 233.072 280.565 229.825 288.599C227.488 294.377 225.643 300.355 223.018 306.023C222.033 308.148 220.52 309.105 217.802 309.418C209.55 310.369 201.401 311.596 193.178 312.628C191.135 312.884 190.311 314.016 189.664 315.415C185.689 306.85 182.766 298.192 181.232 289.408Z" fill="#7DB64E"/>
<path d="M336.414 202.567C337.518 201.123 339.346 200.491 341.208 199.941C343.578 199.244 345.847 198.32 348.212 197.7C356.338 195.57 363.956 192.552 372.318 190.853C372.701 190.778 373.14 190.824 373.553 190.813C371.704 195.444 368.742 199.501 366.28 203.819C362.383 210.649 358.474 217.474 354.6 224.32C354.266 224.912 354.166 225.63 353.958 226.289C352.985 222.953 350.358 220.189 348.18 217.282C344.445 212.288 340.598 207.344 336.414 202.567Z" fill="#7DB64E"/>
<path d="M191.004 317.331C198.5 316.252 206.008 315.185 213.495 314.078C215.105 313.842 216.723 313.68 218.381 313.778C219.521 314.725 218.73 315.394 218.484 316.099C218.181 316.972 217.816 317.832 217.38 318.649C214.189 324.585 212.906 331.295 210.17 337.421C209.333 339.292 209.582 341.599 208.437 343.4C202.059 336.431 196.536 329.089 192.314 321.212C191.653 319.979 190.683 318.697 191.004 317.331Z" fill="#7DB64E"/>
<path d="M202.705 148.151C212.403 152.779 221.611 157.951 228.515 165.865C230.013 167.585 231.062 169.382 232.023 171.248C232.859 172.866 232.133 174.085 231.202 175.147C230.88 175.508 230.205 174.917 229.762 174.579C229.341 172.479 227.695 170.905 225.868 169.479C219.736 164.703 213.547 160.006 206.343 156.513C201.296 154.066 200.664 152.447 202.705 148.151Z" fill="#48662E"/>
<path d="M289.487 271.033C288.284 270.975 287.502 270.553 287.667 269.419C287.927 267.643 289.203 266.545 291.017 265.986C293.512 265.221 295.964 264.307 298.825 264.298C306.099 264.27 313.359 264.135 320.825 265.48C322.442 265.77 323.908 266.343 325.374 267.033C325.22 267.579 324.903 268.108 324.938 268.675C325.141 271.882 325.119 271.841 321.463 271.186C310.71 269.26 300.26 269.051 290.169 270.723C289.916 270.765 289.711 270.925 289.487 271.033Z" fill="#48662E"/>
<path d="M212.271 198.843C211.547 199.232 210.989 199.088 210.643 198.261C211.119 198.238 211.412 197.966 211.067 197.626C207.017 193.625 202.565 190.004 197.401 187.11C195.996 186.322 194.45 185.881 192.874 185.481C189.068 184.512 188.277 183.529 188.632 180.377C188.721 179.578 189.123 178.848 189.383 178.086C195.649 181.455 202.107 184.542 207.901 188.628C210.031 190.128 212.008 191.812 213.506 193.796C214.398 194.983 215.26 196.263 214.768 197.624L212.271 198.843Z" fill="#48662E"/>
<path d="M285.723 297.645C285.209 297.367 284.654 297.136 284.19 296.803C282.705 295.749 282.585 294.613 283.911 293.983C285.119 293.407 286.554 293.651 287.992 293.896C294.098 294.925 300.092 296.797 306.137 298.277C307.604 298.637 308.955 299.307 308.703 300.909C307.033 302.899 304.384 302.902 301.63 302.175C296.311 300.771 291.023 299.165 285.723 297.645Z" fill="#49672E"/>
<path d="M367.592 163.21C366.796 162.614 365.831 164.006 365.021 162.61C364.068 160.971 364.797 160.081 366.108 159.352C368.158 160.439 369.962 159.887 371.804 159.593C375.593 160.788 379.421 160.621 383.22 161.516C384.202 161.747 385.197 161.891 386.188 162.035C388.319 162.347 387.315 163.369 387.262 164.176C385.846 165.943 383.526 166.159 381.074 165.583C376.58 164.527 372.085 163.99 367.592 163.21Z" fill="#49672F"/>
<path d="M353.103 228.274C353.373 227.63 353.645 226.988 353.914 226.347C354.599 227.398 354.207 227.99 353.103 228.274Z" fill="#689542"/>
<path d="M332.026 203.672C328.021 203.815 324.891 205.571 321.595 206.835C306.993 212.422 292.779 218.549 279.103 225.403C276.668 226.623 274.724 228.521 271.599 228.849C274.12 223.115 276.08 217.079 279.289 211.715C284.27 203.403 287.059 194.123 291.731 185.724C294.214 181.262 296.343 176.661 298.612 172.11C299.472 170.382 300.862 168.902 302.016 167.312C305.212 169.385 323.36 191.403 332.026 203.672Z" fill="#689542"/>
<path d="M198.806 262.224C197.338 261.459 197.123 260.275 197.399 259.282C198.769 254.346 201.021 250.063 207.183 248.42C214.108 246.573 220.438 248.773 226.53 252.91C229.593 254.99 229.521 255.104 232.051 253.433C235.846 250.924 239.614 248.395 243.402 245.88C243.9 245.545 244.346 245.116 245.476 245.256C245.707 246.729 244.636 247.756 244.302 249.005C243.946 250.31 242.62 251.332 243.455 252.986C242.749 257.564 239.371 258.98 233.992 259.126C222.057 259.443 210.368 260.666 198.806 262.224Z" fill="#7DB64E"/>
<path d="M352.75 106.291C354.145 101.912 361.263 99.977 366.752 102.463C372.785 105.197 375.922 110.815 373.815 115.556C371.754 120.191 365.762 121.644 359.81 119.293C353.856 116.937 350.383 110.483 352.75 106.291Z" fill="#47652D"/>
<path d="M223.135 771.861C208.764 769.554 194.702 765.989 180.988 761.143C172.746 758.233 164.371 755.677 156.351 752.155C154.671 751.416 152.236 751.043 152.758 748.442C153.306 745.749 155.702 745.959 157.797 746.005C174.385 746.357 190.961 747.124 207.485 748.522C221.683 749.719 235.906 749.123 250.104 749.779C250.355 749.789 250.614 749.534 250.907 749.38C250.211 748.25 248.94 748.273 247.904 747.927C208.976 734.879 170.502 720.556 131.807 706.846C120.337 702.78 109.24 697.835 98.3677 692.375C97.0473 691.713 95.7656 690.954 94.5392 690.128C93.4881 689.424 92.8941 688.362 93.2604 687.064C93.6234 685.778 94.655 685.103 95.9342 685.13C98.002 685.177 100.083 685.277 102.126 685.574C120.302 688.236 138.476 690.927 156.646 693.648C176.87 696.679 197.163 699.132 217.543 700.829C218.995 700.946 220.449 700.965 222.367 701.055C221.056 699.579 219.622 699.473 218.378 699.058C209.374 696.066 200.216 693.592 191.062 691.109C174.441 686.604 158.293 680.739 142.354 674.258C133.017 670.463 123.648 666.751 114.307 662.975C108.797 660.753 103.533 658.027 98.4351 654.982C97.799 654.601 97.1692 654.218 96.5438 653.816C95.2534 652.976 94.0075 651.992 94.547 650.258C95.0693 648.568 96.5483 648.24 98.1477 648.394C100.066 648.585 101.988 648.742 103.894 648.993C132.834 652.812 161.7 657.095 190.294 663.043C195.225 664.069 200.219 664.411 205.85 664.415C204.756 662.8 203.426 662.248 202.285 661.601C188.359 653.71 174.402 645.874 160.474 637.99C154.276 634.479 147.934 631.277 141.52 628.189C123.078 619.316 105.096 609.579 87.6107 598.944C85.9721 597.945 84.4552 596.738 82.9528 595.544C81.9561 594.749 81.5042 593.663 81.9618 592.377C82.4799 590.912 83.6984 590.242 85.0921 590.375C86.9958 590.564 88.9039 590.949 90.7434 591.479C107.117 596.204 123.489 600.935 139.837 605.755C156.897 610.789 174.063 615.428 191.29 619.835C192.1 620.041 192.94 620.133 193.806 620.286C193.804 619.275 193.195 619.098 192.75 618.812C173.11 606.291 154.95 591.676 135.724 578.57C127.767 573.146 119.972 567.478 112.148 561.861C110.109 560.4 108.05 558.866 106.905 556.52C106.264 555.202 105.543 553.815 106.617 552.351C107.669 550.916 109.162 550.947 110.643 551.285C115.716 552.447 120.524 554.42 125.423 556.123C144.176 562.641 162.721 569.767 181.644 575.805C182.983 576.231 184.308 576.931 186.06 576.661C185.264 575.006 183.921 574.078 182.781 573.001C167.26 558.333 152.565 542.882 138.69 526.653C136.962 524.628 135.408 522.453 133.893 520.258C133.022 518.999 132.563 517.532 133.75 516.161C134.978 514.742 136.519 515.169 137.818 515.884C144.32 519.439 150.767 523.086 157.227 526.714C170.539 534.186 183.724 541.887 197.456 548.581C198.437 549.06 199.332 549.961 200.976 549.539C198.896 547.031 196.939 544.668 194.971 542.312C185.736 531.255 177.777 519.315 170.394 506.966C165.904 499.459 160.581 492.507 155.507 485.395C152.574 481.284 149.916 477.019 147.994 472.33C147.602 471.375 147.259 470.389 146.951 469.403C146.587 468.222 146.463 467.016 147.59 466.16C148.806 465.234 150.132 465.385 151.323 466.187C152.674 467.095 153.987 468.071 155.219 469.129C172.624 484.12 189.886 499.263 206.81 514.797C209.376 517.155 212.024 519.421 214.868 521.505C213.61 517.111 211.349 513.307 209.231 509.474C198.549 490.138 188.985 470.276 180.74 449.776C179.19 445.927 177.478 442.148 176.398 438.131C176.093 436.993 175.771 435.823 175.719 434.657C175.592 431.742 177.436 430.665 180.061 432.016C181.556 432.79 182.522 434.136 183.614 435.337C193.397 446.06 203.161 456.81 212.963 467.516C213.918 468.562 214.715 469.83 216.88 470.785C208.459 446.007 199.783 421.998 192.267 397.604C194.521 397.32 194.891 399.267 195.531 400.603C211.483 433.861 229.302 466.199 244.457 499.854C250.661 513.631 257.528 527.107 263.603 540.95C272.71 561.7 281.935 582.393 290.799 603.245C298.851 622.185 306.867 641.143 314.541 660.232C324.264 684.423 335.797 707.824 345.364 732.072C346.182 734.139 346.846 736.263 347.503 738.383C349.051 744.682 345.527 749.171 339.016 749.297C336.403 749.345 335.08 747.56 333.669 745.851C329.625 740.968 324.541 738.4 318.122 739.048C309.773 739.89 303.075 746.712 302.844 755.401C302.664 762.122 301.975 762.17 295.902 763.782C275.923 769.091 255.619 771.576 235.019 772.237C231.033 772.365 227.117 771.231 223.135 771.861Z" fill="#4E6847"/>
<path d="M421.315 632.87C423.088 628.155 425.405 623.721 428.165 619.514C428.53 619.043 428.988 618.665 429.465 618.316C431.407 616.893 433.488 615.317 435.886 616.962C438.147 618.515 437.398 621.039 436.783 623.091C433.06 635.55 430.031 648.203 426.286 660.647C425.546 663.11 425.232 665.48 425.219 667.969C425.048 668.401 424.878 668.837 424.707 669.269C420.594 674.335 415.418 678.337 410.892 683.01C397.486 696.853 385.301 711.75 372.562 726.163C370.21 728.824 367.856 731.49 365.343 733.998C363.582 735.756 361.627 736.534 359.645 734.179C352.97 720.463 346.597 706.615 340.736 692.539C334.287 677.061 325.952 662.519 318.75 647.421C313.906 637.26 309.541 626.823 304.16 616.986C298.107 605.925 293.308 594.294 287.377 583.197C278.859 567.267 272.319 550.362 263.892 534.378C252.358 512.503 242.991 489.565 231.067 467.862C225.232 457.239 219.579 446.485 214.14 435.638C213.41 434.187 212.481 432.812 212.504 431.101C213.67 428.603 214.807 430.417 215.64 431.279C218.584 434.332 221.248 437.643 223.847 440.992C226.248 444.081 228.481 447.311 230.683 450.555C231.898 451.884 232.709 453.444 233.305 455.129C238.308 456.299 241.158 460.328 244.593 463.596C251.792 470.434 259.749 476.323 267.856 482.016C269.31 483.037 270.693 484.165 272.187 485.096C276.402 487.718 277.417 491.024 276.245 495.989C273.765 506.503 277.96 515.703 286.592 521.259C293.114 525.46 299.413 524.722 305.839 521.219C312.274 517.714 317.599 519.395 321.63 526.118C320.286 539.948 319.773 553.852 317.942 567.64C317.773 568.92 317.209 570.191 318.032 572.567C322.567 559.316 326.584 546.794 331.837 534.749C333.106 533.146 334.568 533.934 335.741 534.679C340.302 537.573 344.868 540.462 349.435 543.344C350.828 544.22 351.902 545.427 351.871 547.255C351.36 551.532 350.848 555.809 350.337 560.085C350.523 560.12 350.713 560.156 350.894 560.188C352.254 556.378 353.612 552.564 354.97 548.757C358.63 547.715 361.143 550.353 363.804 551.881C368.427 554.535 373.033 557.202 377.786 559.622C379.921 560.709 382.164 561.807 380.996 565.144C381.193 565.492 381.977 564.841 381.385 564.889C381.047 564.921 381.076 564.818 381.087 564.58C381.14 562.853 382.376 562.485 383.536 562.955C388.887 565.106 394.139 567.494 398.807 570.947C399.411 571.39 399.407 572.264 399.44 573.015C399.16 578.019 398.082 582.908 397.229 587.823C395.569 597.385 393.798 606.927 392.054 616.477C391.816 617.762 391.833 619.121 391.109 620.294C388.333 623.881 387.935 628.108 387.85 632.418C387.831 633.45 387.502 634.778 388.627 635.193C389.963 635.676 390.247 634.286 390.634 633.365C391.494 631.325 392.527 629.379 393.238 627.258C398.096 612.813 403.177 598.45 408.682 584.237C409.611 581.849 410.523 579.883 413.687 580.495C417.5 581.233 419.985 583.46 420.37 586.481C420.887 590.548 419.656 594.495 418.856 598.257C415.243 615.25 411.655 632.258 407.243 649.068C404.466 659.646 401.582 670.197 399.28 680.895C399.029 682.04 398.447 683.534 399.758 684.091C401.303 684.748 401.587 683.012 402.046 682.044C404.213 677.48 405.865 672.671 407.914 668.1C410.336 662.704 412.328 657.101 415.074 651.855C417.541 647.149 418.348 641.765 421.266 637.238C422.087 635.965 421.269 634.337 421.315 632.87Z" fill="#74906D"/>
<path d="M223.135 771.861C223.452 770.746 224.251 770.809 225.217 770.829C240.399 771.16 255.489 770.222 270.492 767.741C279.065 766.324 287.635 764.957 295.905 762.235C297.697 761.646 300.241 762.845 301.193 760.842C301.877 759.413 301.297 757.401 301.36 755.65C301.632 748.145 307.213 740.371 314.901 738.304C322.255 736.325 330.093 738.719 334.842 745.311C337.725 749.309 337.962 748.671 342.173 747.27C342.724 747.085 343.222 746.735 343.732 746.445C347.84 744.089 347.839 744.086 346.469 739.397C348.948 739.184 349.321 741.258 349.815 742.809C354.918 758.767 362.109 773.908 367.934 789.591C369.78 794.566 371.877 799.491 374.273 804.264C375.106 805.925 376.396 807.575 375.517 809.674C372.675 808.225 369.959 809.628 367.436 810.419C358.238 813.291 348.965 815.869 339.684 818.429C326.655 822.021 313.355 824.081 299.93 825.431C298.166 825.609 296.365 825.761 294.625 825.311C291.98 824.622 291.219 822.372 292.894 820.222C294.008 818.795 295.608 817.957 297.117 817.019C302.372 813.759 307.609 810.477 313.583 806.744C304.66 806.664 296.681 806.588 288.7 806.526C274.412 806.413 260.448 803.626 246.421 801.369C245.693 801.255 244.986 801.002 244.274 800.806C242.863 800.416 241.912 799.554 241.73 798.063C241.546 796.541 242.314 795.47 243.646 794.883C245.541 794.051 247.457 793.237 249.416 792.57C259.795 789.051 270.387 786.183 280.624 782.236C281.984 781.713 283.396 781.331 284.779 780.469C263.997 778.955 243.395 776.611 223.135 771.861Z" fill="#4E6847"/>
<path d="M321.631 526.118C318.998 524.222 316.321 522.384 313.747 520.413C312.065 519.127 310.776 519.274 309.033 520.524C306.079 522.64 302.838 524.081 299.158 524.987C293.439 526.397 289 524.249 284.626 521.36C276.237 515.821 272.259 504.515 275.32 494.288C276.288 491.047 275.791 489.141 272.998 487.212C267.295 483.28 261.85 478.976 256.241 474.901C250.122 470.455 244.612 465.336 239.341 459.939C237.969 458.532 236.88 456.684 234.398 456.878C233.724 456.932 233.393 455.904 233.303 455.131C233.962 455.246 234.88 455.732 234.697 454.398C234.214 450.879 233.617 447.378 233.157 443.855C231.454 430.796 229.769 417.727 228.137 404.659C227.888 402.666 227.273 400.352 229.851 399.268C231.502 398.574 232.801 399.691 234.309 403.225C239.945 416.435 245.823 429.549 250.148 443.281C250.623 444.796 251.119 446.3 251.784 448.358C253.152 447.04 252.997 445.844 253.102 444.798C254.553 430.654 255.714 416.486 256.485 402.289C256.555 400.961 256.67 399.629 256.874 398.317C257.04 397.23 257.647 396.343 258.765 396.076C260.102 395.753 261.04 396.518 261.745 397.544C262.603 398.796 262.881 400.252 263.112 401.724C264.217 408.746 265.204 415.781 266.485 422.767C268.164 431.935 270.107 441.057 271.886 450.21C274.452 463.434 277.32 476.599 279.123 489.957C279.259 490.964 279.605 491.938 279.865 492.971C281.415 492.418 281.312 491.031 281.666 489.995C287.285 473.584 291.854 456.87 295.958 440.023C297.293 434.556 298.83 429.135 300.424 423.737C301.021 421.715 301.238 419.066 304.148 418.88C305.981 418.763 306.986 420.826 306.635 424.734C304.76 445.534 305.23 466.471 302.906 487.243C302.846 487.803 302.906 488.377 302.911 488.955C304.416 488.891 304.29 487.668 304.598 486.895C311.584 469.265 318.536 451.621 325.499 433.984C325.879 433.02 326.223 432.033 326.691 431.114C327.255 429.996 328.068 429.14 329.497 429.492C330.858 429.828 331.304 430.905 331.479 432.14C331.54 432.578 331.555 433.034 331.508 433.471C329.615 451.88 330.038 470.466 327.197 488.803C325.276 501.232 323.482 513.678 321.631 526.118Z" fill="#4E6847"/>
<path d="M360.81 734.742C362.751 735.424 363.855 734.129 364.926 732.917C370.593 726.522 376.262 720.123 381.871 713.681C388.452 706.118 394.806 698.37 401.797 691.168C406.933 685.876 411.881 680.401 417.074 675.167C419.331 672.892 421.619 670.531 424.706 669.269C424.803 672.013 423.494 674.393 422.618 676.857C418.608 688.166 415.04 699.593 412.48 711.328C412.073 713.183 411.738 715.054 411.348 717.033C413.015 717.158 413.47 715.866 414.16 715.061C417.909 710.674 421.577 706.219 425.299 701.81C426.35 700.57 427.424 699.334 428.62 698.239C429.87 697.103 431.334 696.33 433.024 697.456C434.643 698.535 434.749 700.162 434.27 701.804C433.864 703.216 433.305 704.608 432.618 705.908C426.72 717.044 422.085 728.743 417.336 740.392C416.95 741.336 416.328 742.221 416.458 743.792C422.867 739.632 429.724 736.612 435.322 731.559C436.416 730.57 437.572 729.642 438.758 728.764C439.823 727.976 440.991 728.036 442.068 728.767C443.164 729.502 443.502 730.583 443.277 731.874C442.928 733.843 441.791 735.414 440.614 736.925C435.799 743.115 430.915 749.25 426.108 755.444C422.933 759.534 419.687 763.58 416.748 767.838C412.016 774.695 405.741 780.211 400.656 786.754C399.022 788.859 397.279 790.877 396.052 793.263C394.623 796.035 393.329 798.903 389.834 799.734C388.823 799.974 388.571 800.837 388.908 801.848C389.423 803.389 389.901 804.945 390.39 806.494C387.926 806.678 387.616 804.604 387.072 803.069C379.694 782.205 371.28 761.756 362.501 741.449C361.6 739.359 360.108 737.29 360.81 734.742Z" fill="#4E6847"/>
<path d="M360.81 734.742C363.452 738.667 364.54 743.311 366.707 747.473C369.742 753.317 371.749 759.639 374.278 765.713C376.303 770.567 378.724 775.3 380.218 780.392C382.662 788.72 386.955 796.384 389.038 804.846C389.221 805.586 389.674 806.166 390.39 806.494C393.843 812.866 396.66 819.537 399.438 826.218C400.774 829.424 400.034 830.689 396.579 831.665C394.299 832.31 391.863 832.095 389.635 833.044C388.939 833.342 388.16 833.189 387.61 832.567C386.25 831.024 384.336 829.68 383.659 827.874C381.305 821.632 377.835 815.911 375.514 809.673C371.4 801.87 368.174 793.694 364.848 785.532C362.586 779.976 361.102 774.057 357.903 768.884C357.596 768.39 357.442 767.794 357.267 767.229C354.587 758.646 350.334 750.63 348.128 741.873C347.876 740.875 347.564 739.856 346.471 739.399C342.581 728.885 338.143 718.597 333.756 708.286C331.157 702.182 328.352 696.174 325.741 690.077C322.728 683.036 319.428 676.123 316.379 669.1C314.616 665.045 313.163 660.847 311.556 656.734C309.508 651.514 307.204 646.39 305.196 641.154C301.977 632.772 298.051 624.665 294.703 616.329C293.216 612.631 291.667 608.967 290.064 605.32C287.874 600.331 285.936 595.236 283.52 590.337C281.826 586.905 280.55 583.247 279.19 579.693C275.702 570.585 271.098 562.002 267.384 553.006C263.174 542.798 258.546 532.756 253.909 522.728C250.699 515.778 247.007 509.047 243.821 502.086C241.494 496.998 239.398 491.803 236.888 486.785C233.729 480.458 230.791 474.017 227.667 467.671C224.416 461.073 221.104 454.499 217.738 447.955C215.045 442.717 212.129 437.588 209.5 432.319C206.807 426.919 204.373 421.391 201.755 415.953C199.715 411.708 197.75 407.407 195.384 403.343C194.282 401.455 194.318 398.948 192.267 397.603C191.678 396.285 191.022 394.989 190.523 393.636C190.179 392.703 189.867 391.606 190.818 390.821C191.973 389.869 192.967 390.581 193.911 391.32C200.353 399.987 204.621 409.834 208.951 419.613C210.453 423.012 213.303 425.981 212.941 430.112C214.463 434.287 217.087 437.893 218.98 441.889C223.191 450.792 228.452 459.152 232.68 468.063C236.085 475.236 240.018 482.155 243.608 489.24C246.132 494.226 248.539 499.271 250.876 504.349C254.884 513.034 258.601 521.845 263.219 530.246C265.904 535.134 268.488 540.091 270.696 545.242C272.372 549.158 274.108 553.107 276.365 556.703C278.832 560.636 280.025 565.078 281.9 569.22C284.88 575.804 288.32 582.135 291.611 588.542C294.167 593.521 296.252 598.712 298.824 603.675C300.697 607.291 301.949 611.148 304.715 614.398C306.861 616.913 307.356 620.554 308.864 623.617C316.008 638.131 322.681 652.867 330.303 667.156C334.102 674.275 337.421 681.679 340.619 689.131C344.385 697.908 348.231 706.667 352.341 715.308C355.363 721.666 358.605 727.998 360.81 734.742Z" fill="#74906D"/>
<path d="M399.439 573.016C398.847 571.723 397.739 571.027 396.522 570.415C392.558 568.417 388.553 566.478 384.676 564.319C382.476 563.093 381.401 563.677 380.69 566.36C381.182 562.652 379.237 561.234 376.497 560.108C370.321 557.575 365.018 553.399 359.023 550.504C357.7 549.866 356.485 548.957 354.969 548.758C360.033 531.417 364.39 513.85 371.33 497.107C374.687 489.018 377.517 480.757 379.951 472.348C381.475 467.078 383.165 461.858 385.622 456.929C386.087 456.001 386.571 455.08 387.097 454.188C387.748 453.08 388.686 452.428 390.032 452.674C391.231 452.895 391.616 453.884 391.995 454.872C392.368 455.844 392.573 456.814 392.574 457.889C392.549 489.111 388.237 519.907 383.276 550.639C382.981 552.472 382.754 554.322 382.496 556.161C382.788 556.221 383.076 556.281 383.364 556.342C384.017 554.159 384.735 551.993 385.309 549.791C390.323 530.563 396.601 511.716 402.299 492.693C402.639 491.561 403.022 490.435 403.485 489.35C403.926 488.325 404.767 487.666 405.914 487.739C407.072 487.812 407.83 488.579 408.094 489.667C408.338 490.663 408.524 491.713 408.474 492.727C407.181 519.686 404.051 546.434 399.439 573.016Z" fill="#4E6847"/>
<path d="M351.87 547.255C350.864 545.349 349.101 544.18 347.351 543.224C343.365 541.041 339.609 538.543 335.91 535.929C334.741 535.106 333.45 534.256 331.837 534.749C337.311 519.24 343.687 504.089 350.07 488.94C351.109 486.471 352.511 484.186 354.276 482.161C355.206 481.096 356.418 480.482 357.845 481.086C359.202 481.656 359.865 482.779 359.804 484.268C359.761 485.301 359.789 486.36 359.594 487.369C355.928 506.165 355.258 525.334 352.478 544.239C352.331 545.253 352.076 546.25 351.87 547.255Z" fill="#4E6847"/>
<path d="M421.315 632.87C423.383 635.738 423.5 637.041 421.483 639.465C420.511 640.638 420.197 641.957 419.629 643.257C418.266 646.388 418.227 650.094 415.702 652.707C415.017 653.417 414.838 654.291 414.865 655.151C414.912 656.888 414.757 658.397 412.848 659.143C411.585 659.641 411.689 660.7 412.005 661.764C412.259 662.638 412.538 663.676 411.869 664.317C409.832 666.267 407.843 668.138 408.923 671.387C409.013 671.665 408.609 672.263 408.283 672.495C406.228 673.947 405.682 675.802 405.362 678.359C405.047 680.883 403.107 683.265 401.65 685.564C400.873 686.799 399.11 686.573 398.282 685.283C397.641 684.283 397.073 683.084 397.564 681.913C399.879 676.433 400.21 670.465 401.853 664.818C403.953 657.603 406.102 650.389 407.451 642.987C408.376 637.927 410.495 633.205 411.406 628.167C411.902 625.421 412.15 622.632 412.912 619.932C413.191 618.938 413.286 617.86 413.738 616.957C414.623 615.188 414.425 613.311 414.722 611.519C415.296 608.063 415.812 604.504 416.906 601.145C417.495 599.329 418.701 597.742 417.819 595.681C417.38 594.647 417.818 593.636 418.335 592.719C419.156 591.26 419.705 589.792 419.166 588.07C418.747 586.729 420.272 584.987 418.627 583.958C416.637 582.712 414.607 581.409 412.127 581.271C411.057 581.212 410.563 581.769 410.216 582.715C408.393 587.719 406.471 592.685 404.693 597.706C401.792 605.878 398.986 614.086 396.113 622.27C394.676 626.36 393.141 630.416 391.724 634.514C391.418 635.405 390.927 636.067 390.286 636.699C388.999 637.966 387.935 637.664 387.052 636.249C386.821 635.881 386.537 635.4 386.594 635.015C387.164 631.254 386.444 627.36 387.683 623.672C388.246 621.99 390.121 621.58 391.109 620.294C390.769 623.015 390.429 625.735 389.977 629.34C391.654 627.528 391.902 625.972 392.387 624.59C397.565 609.847 402.518 595.026 408.232 580.473C408.713 579.25 409.279 578.062 409.804 576.855C414.94 577.25 419.748 578.368 423.013 582.87C420.495 597.603 417.302 612.201 414.159 626.811C410.887 642.01 406.673 656.979 402.933 672.065C402.524 673.718 402.248 675.403 401.793 677.647C403.651 676.224 403.865 674.716 404.398 673.424C409.359 661.376 414.262 649.304 419.211 637.249C419.824 635.753 420.61 634.33 421.315 632.87Z" fill="#4E6847"/>
<path d="M212.942 430.111C209.567 425.225 207.598 419.623 205.144 414.29C202.367 408.262 199.244 402.429 196.059 396.626C195.118 394.913 194.389 393.183 193.909 391.32C196.244 391.317 197.113 393.221 198.192 394.737C202.65 400.998 206.749 407.5 210.303 414.303C216.184 425.567 222.774 436.413 229.142 447.39C229.73 448.401 230.172 449.498 230.68 450.555C224.749 444.498 219.796 437.609 214.228 431.239C213.857 430.814 213.374 430.485 212.942 430.111Z" fill="#4E6847"/>
<path d="M286.052 656.077C289.713 654.822 293.357 656.508 294.606 660.031C295.734 663.199 293.624 668.285 290.726 669.375C287.571 670.564 282.343 668.384 281.458 665.197C280.376 661.306 281.425 657.519 286.052 656.077Z" fill="#4E6847"/>
<path d="M-124.988 793.472C-132.079 786.636 -138.04 778.926 -142.732 770.262C-152.766 751.743 -159.994 732.25 -163.139 711.331C-164.482 702.397 -166.38 693.547 -167.039 684.507C-167.87 673.093 -167.644 661.686 -167.182 650.279C-166.902 643.317 -166.44 636.358 -164.987 629.516C-164.063 625.157 -162.76 620.908 -160.828 616.879C-160.316 615.818 -159.784 614.708 -159.013 613.843C-156.702 611.247 -152.849 611.955 -152.041 615.313C-148.487 630.015 -140.797 642.652 -132.299 654.831C-124.269 666.334 -114.591 676.325 -103.151 684.534C-99.2176 687.356 -94.8489 689.049 -90.0646 689.76C-87.0624 690.206 -84.9545 689.235 -83.4817 686.479C-78.6542 677.452 -77.6302 668.139 -81.7728 658.681C-84.5057 652.447 -87.611 646.353 -90.9257 640.405C-99.0181 625.902 -107.496 611.616 -116.862 597.891C-120.695 592.273 -124.855 586.85 -129.446 581.793C-130.044 581.135 -130.716 580.513 -131.165 579.758C-134.323 574.469 -135.62 574.206 -131.63 567.74C-126.783 559.887 -120.838 552.865 -114.717 545.996C-111.662 542.565 -108.41 539.307 -105.348 535.879C-90.6431 519.405 -72.3838 508.018 -52.5584 498.865C-50.9459 498.12 -49.2769 497.438 -47.5647 497.003C-43.0664 495.849 -39.9345 497.937 -39.2729 502.518C-39.0002 504.417 -38.7276 506.398 -38.9736 508.274C-40.3401 518.687 -38.7209 528.983 -38.1025 539.333C-37.5739 548.137 -35.4594 556.592 -33.3748 565.083C-32.8794 567.108 -32.2577 569.089 -31.2636 570.921C-29.4583 574.243 -27.0113 575.134 -23.4206 573.854C-20.6278 572.86 -18.7061 570.865 -17.2033 568.391C-14.6001 564.109 -13.6027 559.331 -12.9211 554.464C-12.1863 549.181 -11.5081 543.891 -10.8066 538.602C-10.115 533.891 -10.3478 529.136 -10.5905 524.438C-10.7899 520.499 -9.59637 518.889 -5.57346 518.544C-1.26794 518.178 2.36266 514.255 2.77824 510.498C3.19383 506.738 0.673691 502.631 -3.08324 500.846C-5.38727 499.752 -7.62813 499.822 -9.94879 500.826C-11.3917 501.448 -12.6751 502.741 -14.4837 502.156C-14.6466 501.91 -14.7032 501.641 -14.6433 501.348C-15.1653 500.527 -14.7264 499.51 -15.1786 498.675C-15.5576 497.053 -16.5118 495.719 -17.323 494.31C-19.6869 490.207 -19.2181 487.953 -15.1819 485.37C-2.72749 477.4 10.465 471.093 25.1603 468.556C37.1226 466.495 49.1448 464.76 61.1404 462.878C64.9107 461.631 65.682 463.755 66.071 466.911C68.2986 485.024 70.6657 503.117 74.9214 520.901C75.0976 521.626 75.2705 522.337 75.5963 523.005C76.1083 524.844 74.8549 526.077 74.0304 527.441C59.1323 552.063 45.2217 577.235 32.9302 603.251C20.9545 628.599 10.834 654.734 1.17572 681.043C-6.63737 702.334 -14.4272 723.636 -20.8705 745.393C-23.2311 753.355 -25.2525 761.405 -27.3338 769.44C-28.9828 775.804 -29.9204 776.216 -36.4202 774.604C-47.1824 771.931 -57.9611 769.234 -69.1023 768.716C-73.7269 768.5 -78.222 769.55 -82.6638 770.827C-97.5286 775.116 -111.147 781.712 -122.664 792.248C-123.325 792.853 -124.063 793.349 -124.988 793.472Z" fill="#5D7839"/>
<path d="M197.355 697.04C195.762 697.921 193.974 698.194 192.231 698.447C173.34 701.176 156.703 709.488 140.652 719.233C135.964 722.079 131.366 725.071 126.744 728.02C122.572 730.68 118.898 733.892 116.222 738.087C112.468 743.969 113.08 747.104 118.586 751.263C120.391 752.626 122.382 753.584 124.58 754.063C133.494 756.001 142.417 757.055 151.407 754.442C153.249 753.906 155.151 753.448 157.056 753.258C168.679 752.101 178.56 746.891 187.677 740.029C195.842 733.885 204.131 727.841 210.335 719.505C211.036 718.561 211.924 717.743 212.795 716.942C214.261 715.592 215.967 715.276 217.682 716.357C219.215 717.324 219.517 718.831 219.335 720.626C216.904 744.773 207.336 765.958 192.511 784.896C169.234 814.626 140.13 837.064 106.141 853.272C98.0986 857.106 89.6737 859.905 80.7602 860.986C71.7269 858.126 63.9071 853.036 56.8621 846.939C49.1288 840.243 42.2399 832.626 35.6969 824.743C32.2591 820.604 32.3622 820.218 35.7235 816.149C40.5144 810.347 40.5044 804.269 35.6935 799.365C30.7829 794.362 24.6388 793.883 19.0001 798.581C16.0411 801.044 13.9366 800.792 11.3998 798.228C3.97569 790.718 -4.92792 785.571 -14.799 781.911C-20.0754 779.956 -20.594 778.609 -19.3306 773.09C-13.4326 747.294 -4.98444 722.292 4.20177 697.516C14.0064 671.088 23.7678 644.649 35.1616 618.853C42.8384 601.474 51.4893 584.578 60.5625 567.895C61.5266 566.126 62.3013 564.061 64.4191 563.174C64.8647 563.127 65.39 563.054 65.7191 563.313C71.5008 567.935 77.7047 570.016 85.1721 567.645C88.0779 566.721 89.1351 569.73 90.0893 571.838C93.8729 580.21 97.4336 588.691 101.284 597.029C109.825 615.538 119.852 633.079 134.139 647.961C151.64 666.184 171.479 681.218 193.688 693.197C195.27 694.048 197.524 694.44 197.355 697.04Z" fill="#5D7839"/>
<path d="M197.355 697.04C196.71 695.713 195.363 695.318 194.2 694.709C185.668 690.234 177.257 685.533 169.573 679.698C160.387 672.72 151.331 665.572 142.294 658.397C138.68 655.528 136.06 651.664 133.011 648.24C127.506 642.056 121.96 635.902 117.212 629.073C114.576 625.279 112.548 621.153 110.327 617.147C104.588 606.787 99.2422 596.221 94.8735 585.176C92.8587 580.09 90.3419 575.199 88.0644 570.215C87.4593 568.895 86.7944 567.895 85.0389 568.573C77.1394 571.618 70.5897 569.055 64.7648 563.589C63.3684 561.691 64.7947 560.181 65.6026 558.735C85.4246 523.234 107.863 489.474 133.035 457.534C135.601 454.275 138.025 450.907 140.695 447.736C141.789 446.439 142.666 444.637 144.911 445.142C145.02 452.237 144.545 459.346 145.675 466.407C146.985 474.613 148.425 482.848 152.311 490.252C157.737 500.592 162.861 511.122 169.62 520.72C172.1 524.244 174.757 527.576 177.815 530.624C182.151 534.95 182.104 538.494 177.892 542.919C176.033 544.867 173.882 546.413 171.518 547.693C163.768 551.883 156.993 557.342 150.809 563.582C145.283 569.155 139.518 574.504 134.222 580.286C127.908 587.181 122.083 594.476 120.301 604.101C119.849 606.561 119.919 608.795 121.548 610.803C122.715 618.63 127.589 622.48 135.079 623.983C147.042 626.383 157.644 622.536 167.815 617.057C181.569 609.646 193.631 600.294 201.075 586.024C201.763 584.704 202.415 582.922 204.539 583.138C210.261 596.623 215.358 610.281 218.493 624.681C221.476 638.365 222.523 652.193 223.171 666.103C223.417 671.47 222.932 676.746 221.496 681.942C221 683.734 220.239 685.324 218.683 686.321C211.95 690.637 205.118 694.773 197.355 697.04Z" fill="#66813D"/>
<path d="M144.911 445.142C142.028 446.688 140.598 449.607 138.717 452.011C124.573 470.087 110.799 488.44 98.0585 507.54C86.791 524.423 76.4711 541.888 66.4305 559.519C65.7057 560.793 64.8047 562.023 64.7648 563.589C63.4814 565.557 62.0186 567.432 60.938 569.507C55.1231 580.678 49.1053 591.756 43.7126 603.13C35.0351 621.432 27.2287 640.117 19.9542 659.041C12.9556 677.258 6.14992 695.547 -0.522804 713.883C-7.7973 733.874 -13.7951 754.278 -18.6558 775.004C-19.4239 778.266 -19.0581 778.841 -15.7467 780.261C-11.398 782.126 -7.04591 783.985 -2.70715 785.873C0.730606 787.376 3.52338 789.789 6.28622 792.26C9.23859 794.906 12.274 797.456 15.2164 800C16.5563 799.494 17.2079 798.447 18.0757 797.656C22.83 793.334 29.4296 792.745 34.3668 796.499C39.9823 800.771 42.4758 806.656 39.1511 813.212C38.2867 814.921 37.2926 816.577 35.8696 817.91C33.6753 819.958 33.549 820.054 35.6169 822.548C44.8796 833.706 54.2054 844.827 66.6632 852.687C70.0345 854.814 73.5819 856.663 77.0363 858.664C78.2997 859.399 79.8391 859.702 80.76 860.985L80.494 861.181L80.1749 861.091C79.2473 861.57 78.1102 861.138 77.2092 861.753C76.6773 861.816 76.142 861.879 75.6067 861.939C74.453 862.671 73.0134 861.879 71.8697 862.644C71.1216 862.97 70.3536 863.06 69.5524 862.884C68.3056 863.442 66.8693 862.84 65.6392 863.519C44.4308 866.94 23.761 864.666 4.40776 855.513C-12.1095 847.696 -25.7009 836.06 -33.8299 819.117C-34.8506 816.986 -35.572 816.457 -38.0622 817.228C-46.261 819.759 -54.5096 822.292 -63.2836 821.793C-66.7014 821.597 -70.0627 821.158 -73.2943 819.971C-74.0889 819.207 -75.2692 819.838 -76.0971 819.193L-76.496 819.25L-76.8484 819.05C-77.683 818.349 -78.84 818.914 -79.7011 818.322L-80.0768 818.382L-80.4059 818.189C-81.2205 817.438 -82.3974 818.04 -83.2486 817.428C-86.56 817.371 -89.4757 815.872 -92.4082 814.672C-103.925 809.961 -115.242 804.864 -123.704 795.215C-124.179 794.673 -124.562 794.055 -124.987 793.473C-122.783 789.789 -119.019 787.811 -115.828 785.238C-105.345 776.78 -92.8503 772.448 -80.1732 768.914C-72.8189 766.866 -65.1454 766.453 -57.452 768.93C-52.455 770.543 -47.049 770.849 -41.8524 771.869C-39.2492 772.381 -36.6492 773.023 -34.1457 773.884C-29.7438 775.4 -29.8402 774.203 -28.9292 770.998C-27.0341 764.325 -25.3851 757.586 -23.6296 750.877C-19.999 736.993 -15.2081 723.478 -10.5734 709.92C-7.61111 701.259 -4.25646 692.734 -1.13455 684.126C4.86658 667.589 11.2234 651.195 17.8396 634.887C25.7026 615.518 34.5829 596.646 44.1781 578.101C51.5856 563.781 59.3621 549.658 67.7637 535.884C70.2971 531.731 72.5247 527.396 75.3307 523.409C74.2303 521.351 75.8926 520.065 76.7703 518.655C92.4398 493.48 109.831 469.522 128.031 446.13C129.238 444.58 130.947 443.709 132.2 442.286C134.059 441.438 135.957 440.664 137.766 439.726C139.541 438.802 141.37 437.951 143.165 439.277C145.11 440.71 145.871 442.728 144.911 445.142Z" fill="#445D2F"/>
<path d="M132.201 442.285C128.973 447.398 124.96 451.92 121.293 456.701C105.201 477.706 90.034 499.35 76.0169 521.792C75.7077 522.284 75.5581 522.869 75.332 523.408C74.5308 523.375 73.9323 523.115 73.7395 522.218C71.6582 512.576 69.7133 502.908 68.2869 493.143C67.1632 485.43 66.0195 477.713 64.9223 469.996C64.7561 468.829 64.786 467.636 64.7162 466.456C64.54 463.42 64.54 463.42 61.1388 462.878C70.1089 461.03 78.9261 458.593 87.7399 456.149C101.288 452.399 114.84 448.672 127.979 443.621C129.355 443.093 130.792 442.727 132.201 442.285Z" fill="#66813D"/>
<path d="M204.54 583.137C201.445 586.559 199.822 590.941 197.089 594.601C190.623 603.262 182.361 609.818 173.158 615.344C165.119 620.168 156.764 624.091 147.395 625.498C141.29 626.412 135.346 625.764 129.558 623.656C125.525 622.186 123.147 619.048 121.409 615.341C120.717 613.861 120.225 612.275 121.552 610.802C128.121 615.56 135.439 614.726 142.504 612.897C159.613 608.462 174.066 599.585 185.353 585.804C187.178 583.576 188.146 580.933 189.246 578.353C190.181 576.169 191.042 573.941 192.727 572.202C195.377 569.473 199.171 569.815 200.83 573.22C202.369 576.378 204.181 579.507 204.54 583.137Z" fill="#445D2F"/>
<path d="M-14.4843 502.156C-13.5001 501.511 -12.5493 500.806 -11.5219 500.238C-7.14993 497.817 -3.40297 498.21 0.317397 501.428C3.49583 504.174 5.00858 509.091 3.76513 512.632C2.44522 516.396 -1.96669 519.764 -5.88986 519.993C-9.9427 520.232 -9.96929 520.232 -10.0258 524.172C-10.079 527.716 -10.0325 531.261 -10.0956 534.805C-10.1189 536.095 -9.75651 537.491 -10.8071 538.602C-10.7839 532.424 -10.847 526.247 -10.7074 520.073C-10.6309 516.632 -11.0133 513.377 -12.4562 510.195C-13.5966 507.672 -14.7236 505.065 -14.4843 502.156Z" fill="#66813D"/>
<path d="M55.7974 638.987C55.8772 632.74 60.2459 628.515 66.5762 628.568C72.0121 628.611 77.0058 633.655 77.0723 639.177C77.1388 644.46 71.7927 650.059 66.4931 649.793C60.1462 649.47 55.1092 644.154 55.7974 638.987Z" fill="#66813D"/>
<path d="M87.785 673.191C87.7218 675.545 84.161 678.504 81.5445 678.378C79.5297 678.281 77.3221 676.047 77.2822 674.065C77.2356 671.642 80.6401 668.576 83.25 668.686C85.5607 668.786 87.8448 671.053 87.785 673.191Z" fill="#66813D"/>
<path d="M470.435 602.537C469.537 602.624 469.035 603.482 469.31 604.475L500.105 716.417C486.838 704.464 471.242 689.857 454.532 673.874L416.338 561.303C416.003 560.312 415.017 559.603 414.121 559.712C413.228 559.82 412.743 560.695 413.044 561.693L443.525 663.312C428.086 648.435 411.971 632.688 396.056 617.005L354.289 531.915C353.827 530.976 352.81 530.419 351.976 530.649C351.142 530.884 350.793 531.813 351.172 532.778L377.262 598.421C321.94 543.553 273.765 494.359 272.729 493.304C271.969 492.53 270.888 492.41 270.3 493.02C269.706 493.635 269.816 494.767 270.55 495.568C271.534 496.644 323.064 552.895 382.374 613.691L299.544 589.119C298.596 588.84 297.786 589.368 297.711 590.312C297.634 591.257 298.322 592.275 299.263 592.61L395.155 626.736C409.436 641.254 423.974 655.816 438.219 669.762L357.368 666.869C356.453 666.835 355.838 667.579 355.988 668.561C356.133 669.542 356.982 670.409 357.91 670.524L451.235 682.416C466.812 697.433 481.793 711.421 495.396 723.455L400.615 723.263C399.708 723.259 399.118 724.045 399.303 725.034C399.488 726.024 400.375 726.865 401.305 726.933L508.521 734.809C517.417 742.313 525.508 748.705 532.491 753.618C532.924 753.919 533.419 754.052 533.857 753.979C534.088 753.941 534.296 753.849 534.466 753.711C534.62 753.587 534.743 753.425 534.826 753.235L536.954 748.462C537.135 748.054 537.128 747.552 536.936 747.056C536.743 746.565 536.382 746.134 535.935 745.86C530.918 742.771 523.041 736.504 513.101 727.911L472.63 604.156C472.305 603.167 471.331 602.453 470.435 602.537Z" fill="#F7B318"/>
<path d="M-108.949 530.914C-108.949 530.914 -89.5785 596.597 -25.3368 592.994C38.8992 589.393 71.861 516.574 89.1475 474.734C106.429 432.893 129.285 381.42 154.835 351.701C187.003 314.281 202.635 267.089 202.635 267.089C202.635 267.089 93.8752 306.065 51.9628 316.295C10.0529 326.526 -141.594 346.287 -162.367 416.247C-183.141 486.208 -116.553 523.796 -116.553 523.796C-116.553 523.796 -156.767 570.44 -214.012 585.657C-218.827 586.937 -221.613 591.948 -220.034 596.675C-218.405 601.552 -212.881 603.926 -208.231 601.722C-187.298 591.801 -134.301 564.444 -108.949 530.914Z" fill="#8DBA3D"/>
<path d="M124.272 378.26L62.9078 387.108C113.919 344.077 156.535 307.512 155.302 306.486C153.861 305.289 112.174 339.914 60.392 383.289L73.8511 324.413L53.2873 389.242C37.7128 402.294 21.3813 416.004 5.05919 429.673C-7.62787 412.632 7.88803 350.18 7.88803 350.18C7.88803 350.18 -11.5824 405.938 -0.86874 434.638C-16.8208 447.997 -32.6631 461.226 -47.6751 473.687C-77.8619 448.137 -53.493 365.968 -53.493 365.968C-53.493 365.968 -87.2885 439.126 -51.4183 476.792C-65.3437 488.338 -78.4758 499.15 -90.2236 508.696C-134.491 463.15 -109.64 391.412 -109.64 391.412C-109.64 391.412 -144.465 458.131 -95.4433 512.927C-99.7091 516.379 -103.772 519.643 -107.585 522.681L-103.855 526.487C-103.855 526.487 -99.5231 522.894 -92.0145 516.655C-44.9071 564.954 16.6439 555.249 16.6439 555.249C16.6439 555.249 -35.5 558.123 -85.7984 512.951C-86.083 512.697 -86.3325 512.427 -86.613 512.169C-76.8444 504.047 -63.4885 492.931 -48.0331 480.051C-13.5871 510.139 64.8157 496.666 64.8157 496.666C64.8157 496.666 -9.8435 498.808 -43.823 476.54C-29.977 464.994 -14.6286 452.181 1.23211 438.908C4.16118 439.729 37.4928 448.574 85.0297 439.496C85.0297 439.496 26.5169 445.056 8.47692 432.841C23.6607 420.123 39.1629 407.113 54.1378 394.502C64.0153 392.714 99.3902 386.067 124.272 378.26Z" fill="#47A148"/>
<path d="M220.864 37.6324C212.414 43.7176 207.23 49.086 201.395 57.7859C183.795 84.016 170.208 113.022 161.264 143.451C159.596 149.125 157.986 155.046 154.209 159.556C150.432 164.063 143.753 166.689 138.631 163.871C134.754 161.737 132.815 157.193 131.793 152.831C127.317 133.754 136.55 114.691 145.029 97.0758C167.498 50.392 212.375 10.8839 232.752 -1.20703C227.215 -14.2583 218.973 -26.9782 207.623 -39.8057C203.86 -44.0579 199.649 -47.8909 195.142 -51.3867C172.912 -39.8312 158.727 -14.5416 149.045 9.71393C139.937 32.5247 132.771 56.1371 127.651 80.2001C126.147 87.2597 124.741 94.5573 120.822 100.577C116.9 106.597 109.72 111.07 102.809 109.416C95.4256 107.648 91.0081 99.7161 89.724 92.1125C87.4262 78.5201 92.2113 64.8229 97.1747 51.9869C109.656 19.7255 123.838 -11.9948 142.113 -41.2618C148.288 -51.1516 155.22 -60.996 164.445 -67.8376C146.572 -74.0898 126.624 -76.41 106.681 -74.6677C88.8077 -50.67 84.5016 -18.3831 80.0897 11.8159C78.3628 23.6463 76.1234 36.2188 68.0628 44.9272C59.9994 53.6328 44.0452 55.7065 37.2602 45.9386C31.1994 37.216 35.4804 25.2469 39.909 15.5639L59.6651 -27.6552C66.049 -41.6216 72.4301 -55.5851 78.814 -69.5486C46.7581 -60.3416 17.532 -39.9473 0.731064 -7.8219C0.731064 -7.8219 -35.6811 -61.6929 -32.3722 -139.131C-32.3722 -139.131 -43.959 -155.964 -50.5797 -137.445C-52.911 -130.924 -52.2341 -53.2734 -9.20131 -2.77081C-9.20131 -2.77081 -61.5342 3.55795 -95.2168 43.3493C-78.6248 58.412 -55.4038 65.9108 -33.3415 62.633C-26.8657 61.6698 -20.4623 59.8511 -13.9196 59.9588C-7.37694 60.0692 -0.383072 62.5537 3.04562 68.2196C9.0173 78.0923 1.07364 90.9709 -8.4855 97.2798C-23.4593 107.158 -43.2404 109.045 -59.7572 102.161C-65.2192 99.8889 -70.2828 96.7444 -75.3214 93.6168C-83.9949 88.2286 -92.6683 82.8403 -101.344 77.4549C-105.013 75.1744 -108.834 72.6559 -111.773 69.5199C-111.787 69.5539 -111.806 69.5851 -111.82 69.6191C-123.465 95.3987 -129.128 124.635 -125.813 152.681L-125.061 152.105C-83.279 153.93 -54.1281 144.661 -14.0087 132.66C-4.43566 129.799 5.62482 126.524 15.3204 128.915C25.0161 131.306 33.4639 142.026 29.6174 151.389C26.7429 158.386 18.6489 161.451 11.2623 162.477C-2.58623 164.4 -16.6297 161.856 -30.6035 161.99C-60.7488 162.276 -90.5069 175.766 -111.032 198.194C-101.938 214.062 -88.6185 228.419 -70.2689 240.099C-62.1721 226.878 -50.7774 215.606 -37.9316 207.002C-18.4764 193.976 4.12633 186.562 26.924 181.718C41.92 178.531 60.562 177.777 69.2995 190.577C70.252 191.973 71.0542 193.531 71.2603 195.217C72.1516 202.503 62.9156 206.013 55.8214 207.365C16.9972 214.761 -21.3981 224.32 -49.1842 251.306C-49.0951 251.346 -49.0143 251.391 -48.9224 251.428C-33.1994 258.329 -11.3599 263.658 12.9362 267.797C30.5254 247.926 53.933 233.379 79.4352 226.833C94.1387 223.059 111.11 222.322 123.064 231.81C124.37 232.847 125.635 234.048 126.236 235.617C127.869 239.85 124.017 244.247 120.014 246.272C111.224 250.731 100.882 249.859 91.0582 249.895C71.3049 249.966 50.1561 258.757 37.107 273.842C36.7644 274.242 36.4274 274.655 36.0876 275.069C109.97 298.965 199.211 282.247 202.657 283.415C207.475 285.049 204.832 210.648 229.727 138.638C217.555 142.006 203.503 151.256 198.468 159.083C191.212 170.367 187.488 183.667 185.588 197.01C184.956 201.452 184.483 206.036 182.458 210.025C180.433 214.011 176.405 217.328 172.004 216.968C167.328 216.586 163.757 212.127 162.81 207.455C161.86 202.781 162.963 197.951 164.197 193.347C170.428 170.129 198.562 116.595 232.674 98.7727C240.331 72.3868 243.483 49.2673 240.651 27.754C233.562 29.4283 226.429 33.6239 220.864 37.6324Z" fill="#516B49"/>
<path d="M194.38 274.732C194.079 274.732 193.775 274.632 193.519 274.429C112.971 209.934 65.3898 141.337 39.6564 95.1465C11.7505 45.0575 2.77908 9.71387 2.68995 9.36258C2.50333 8.60336 2.95455 7.83279 3.70101 7.64014C4.4419 7.44751 5.20229 7.90643 5.39169 8.66849C5.73707 10.0595 41.8623 149.389 195.243 272.202C195.847 272.686 195.951 273.576 195.477 274.191C195.201 274.547 194.792 274.732 194.38 274.732Z" fill="#3C844C"/>
<path d="M179.598 346.997C179.598 346.997 293.283 351.148 330.735 346.867C393.911 339.654 449.47 342.584 493.86 391.421C529.957 431.132 527.978 479.557 527.978 479.557C527.978 479.557 580.506 501.934 619.169 501.104C624.541 500.991 628.759 505.645 628.196 510.992C627.656 516.106 622.942 519.734 617.863 518.904C599.812 515.969 558.977 508.049 525.391 492.225C525.391 492.225 484.52 563.06 388.484 545.414C310.268 531.044 211.813 405.71 179.598 346.997Z" fill="#47A148"/>
<path d="M421.49 374.708C420.705 375.208 420.456 376.244 420.937 377.042L474.894 467.168C460.184 462.208 442.761 455.857 424.015 448.742L363.273 361.486C362.74 360.718 361.688 360.516 360.911 361.037C360.136 361.555 359.907 362.598 360.411 363.39L411.659 444.024C394.312 437.348 376.155 430.176 358.192 422.97L300.714 363.041C300.078 362.381 299.036 362.335 298.341 362.94C297.648 363.549 297.554 364.579 298.122 365.303L336.965 414.4C274.442 389.022 219.664 365.602 218.487 365.101C217.622 364.734 216.625 365.127 216.241 365.97C215.853 366.823 216.218 367.828 217.065 368.233C218.201 368.777 277.649 397.219 345.143 426.269L265.08 442.029C264.165 442.212 263.562 443.084 263.717 444C263.87 444.918 264.727 445.547 265.65 445.421L359.674 432.476C375.897 439.358 392.361 446.16 408.418 452.525L335.231 487.602C334.403 487.998 334.027 488.98 334.392 489.827C334.753 490.675 335.718 491.088 336.578 490.762L423.068 458.258C440.571 465 457.297 471.06 472.328 475.94L387.285 520.048C386.471 520.467 386.127 521.477 386.525 522.314C386.924 523.152 387.917 523.523 388.767 523.151L486.77 480.408C496.514 483.257 505.274 485.444 512.692 486.769C513.151 486.847 513.626 486.74 514.002 486.468C514.2 486.324 514.365 486.141 514.485 485.933C514.594 485.745 514.666 485.536 514.696 485.319L515.481 479.87C515.547 479.404 515.423 478.938 515.134 478.565C514.846 478.196 514.42 477.963 513.955 477.917C508.729 477.376 500.19 475.206 489.254 471.827L423.839 375.193C423.315 374.422 422.273 374.211 421.49 374.708Z" fill="#8DBA3D"/>
<path d="M33.1848 511.213C33.1848 511.213 68.9797 517.969 88.4111 493.213C106.992 469.54 100.979 433.877 116.425 420.208C116.425 420.208 65.0413 428.542 45.9191 458.787C28.1335 486.918 33.1848 511.213 33.1848 511.213Z" fill="#F7B318"/>
<path d="M7.36375 539.62C7.36375 539.62 3.68122 567.74 35.9531 583.407C68.2251 599.073 64.9243 592.006 89.3623 604.63C89.3623 604.63 80.4887 567.3 54.812 545.6C24.5637 520.035 7.36375 539.62 7.36375 539.62Z" fill="#F7B318"/>
<path d="M-14.9275 515.569C-12.481 514.092 17.2279 509.063 16.1386 480.781C15.1847 455.986 5.26359 448.959 -2.76781 417.421C-2.76781 417.421 -26.8933 446.014 -27.7006 471.205C-28.5091 496.398 -14.9275 515.569 -14.9275 515.569Z" fill="#F7B318"/>
<path d="M-73.4946 563.963C-73.4946 563.963 -61.7385 595.587 -32.003 608.339C5.55255 624.446 18.4909 614.561 41.6345 618.611C9.44284 570.286 -40.4174 546.321 -73.4946 563.963Z" fill="#F7B318"/>
<path d="M-169.071 614.781C-167.66 613.389 -167.189 611.088 -166.386 609.323C-164.436 605.029 -161.968 600.967 -159.169 597.174C-153.605 589.635 -146.682 583.162 -139.23 577.523C-122.205 564.636 -102.288 555.524 -82.2485 548.426C-61.3974 541.041 -39.8924 535.992 -18.3625 531.052C2.53899 526.257 23.8935 520.913 42.1943 509.279C57.8629 499.316 70.7042 484.968 78.8766 468.293C79.8653 466.275 80.7846 464.225 81.6414 462.147C82.0219 461.228 80.5933 460.823 80.1927 461.688C80.3739 461.295 79.9541 462.158 79.8854 462.289C79.5354 462.963 79.1639 463.625 78.7819 464.282C77.3264 466.781 75.706 469.185 73.994 471.515C67.7697 479.989 60.2671 487.516 52.1545 494.182C41.1553 503.222 29.0514 511.137 15.5069 515.722C0.177863 520.911 -15.842 523.933 -31.5197 527.858C-58.9737 534.731 -86.4536 542.506 -112.542 553.595C-128.616 560.427 -144.71 568.666 -157.669 580.572C-162.294 584.822 -166.475 589.584 -169.892 594.864C-171.452 597.273 -172.845 599.785 -174.069 602.38C-175.232 604.849 -176.521 607.518 -177.149 610.186C-177.722 612.635 -176.284 615.198 -173.869 615.943C-172.155 616.383 -170.36 616.053 -169.071 614.781Z" fill="#F9D585"/>
<path d="M60.3671 576.552C51.5147 564.907 39.2804 555.833 26.7015 548.577C13.5474 540.989 -0.875 534.919 -15.8291 532.037C-22.8771 530.678 -30.1093 530.002 -37.2577 530.944C-36.9067 531.885 -36.5576 532.826 -36.2066 533.768C-25.5648 528.255 -16.5674 519.863 -9.95228 509.899C-3.32989 499.926 0.930719 488.374 2.2567 476.472C3.00314 469.76 2.76112 462.943 1.51779 456.304C1.15554 454.378 -1.81073 455.049 -1.44915 456.972C0.66248 468.24 -0.379414 479.937 -3.98991 490.79C-7.61707 501.694 -13.8179 511.768 -22.0557 519.795C-26.6775 524.298 -31.9079 528.114 -37.6403 531.086C-39.2442 531.916 -38.2197 534.125 -36.5892 533.91C-30.5732 533.118 -24.3998 533.619 -18.4389 534.63C-11.4898 535.806 -4.67098 537.816 1.93309 540.256C16.176 545.516 29.7824 552.96 41.7347 562.34C47.8001 567.101 53.4678 572.476 58.1424 578.626C58.6403 579.279 59.7355 579.221 60.2933 578.701C60.9424 578.095 60.8672 577.208 60.3671 576.552Z" fill="#F9D585"/>
<path d="M11.0806 602.844C2.29264 601.192 -6.11067 597.712 -14.0849 593.743C-21.1297 590.239 -27.9182 586.254 -34.615 582.129C-49.2127 573.143 -64.4774 564.739 -81.0477 560.011C-91.4243 557.05 -102.199 555.714 -112.964 556.766C-113.781 556.845 -114.277 557.854 -114.113 558.583C-113.914 559.468 -113.116 559.813 -112.295 559.733C-93.3447 557.881 -74.6713 564.125 -57.9198 572.466C-50.9003 575.961 -44.0919 579.855 -37.4216 583.973C-30.9996 587.936 -24.5164 591.805 -17.8028 595.257C-8.96937 599.795 0.350831 603.899 10.161 605.743C10.9669 605.895 11.8005 605.603 12.0704 604.754C12.2943 604.045 11.8928 602.996 11.0806 602.844Z" fill="#F9D585"/>
<path d="M220.02 274.247C219.656 274.478 219.354 274.381 219.093 274.068C218.203 273.573 218.244 272.787 218.442 271.953C218.849 271.231 219.574 270.87 220.213 270.415C223.614 268.901 227.214 268.486 230.895 268.411C241.971 268.181 253.042 268.212 264.104 268.894C279.626 270.349 295.028 272.715 310.457 274.888C315.412 275.584 320.427 275.304 325.379 275.944C331.856 276.801 338.258 277.829 344.492 274.414C348.058 272.463 352.011 271.222 355.792 269.663C356.614 269.322 357.54 269.162 358.233 268.16C356.233 267.766 354.366 267.458 352.435 267.866C346.911 267.797 341.874 265.685 336.848 263.808C323.468 258.82 310.348 253.185 297.265 247.459C289.748 244.169 281.809 242.282 273.643 241.407C270.107 240.915 266.541 240.654 263.019 240.061C255.781 238.84 248.586 239.543 241.394 240.494C240.662 240.391 239.932 240.284 239.2 240.18C237.445 238.704 237.695 237.423 239.582 236.306L239.543 236.311C251.174 233.223 262.756 235.23 274.348 236.652C283.015 238.251 291.705 239.768 299.898 243.207C307.498 246.16 314.799 249.809 322.38 252.806C332.219 256.694 341.921 260.99 352.417 262.91C353.849 263.175 355.01 263.937 356.271 264.532C356.568 264.532 356.869 264.499 357.163 264.534C362.216 265.139 367.193 265.278 371.685 262.28C372.112 262.327 372.436 262.106 372.775 261.892C376.597 259.469 376.606 259.397 373.314 255.94C372.937 255.709 372.703 255.374 372.599 254.945C367.385 243.06 359.054 234.029 347.833 227.525C334.102 219.565 319.416 215.595 303.499 215.051C294.287 214.734 285.165 215.96 275.989 215.461C274.352 215.372 272.611 215.663 272.202 213.399L272.203 213.396C272.639 212.521 273.408 212.111 274.307 211.886C277.113 211.988 279.889 211.655 282.668 211.351C284.349 211.182 285.994 210.696 287.704 210.737C296.466 209.116 305.197 210.462 313.929 211.048C321.212 211.536 328.135 213.749 335.071 215.857C348.159 220.569 359.601 227.617 368.581 238.5C372.48 243.225 375.367 248.348 377.292 254.094C377.967 257.583 378.926 258.106 382.009 256.404C383.973 255.32 385.84 254.044 387.696 252.776C394.195 248.334 400.768 243.999 406.893 239.027C409.734 236.717 409.839 236.468 407.55 233.408C403.532 223.277 396.708 215.357 388.353 208.533C382.769 203.971 376.661 200.365 370.167 197.345C364.983 195.182 359.742 193.145 354.146 192.351C348.594 191.562 343.302 189.541 337.656 189.125C334.693 188.911 331.756 188.773 328.805 188.976C320.605 189.535 312.519 188.456 304.436 187.336C303.008 187.138 301.655 186.704 300.395 185.992C299.465 185.316 299.253 184.456 299.749 183.424C300.216 182.456 301.047 182.844 301.799 182.853C302.273 182.86 302.752 182.692 303.228 182.603C308.229 182.627 313.135 183.667 318.11 184C320.349 184.153 322.586 184.429 324.824 184.301C343.273 183.247 360.575 187.735 377.295 195.095C386.009 199.229 393.136 205.518 400.01 212.07C404.609 216.459 408.139 221.701 410.521 227.654C411.491 229.866 411.37 232.408 412.661 234.741C419.317 229.587 425.744 224.298 431.596 218.462C431.147 217.278 430.206 216.956 429.538 216.368C427.875 214.909 427.011 213.325 426.689 210.935C425.773 204.149 422.442 198.433 417.469 193.713C415.843 192.171 414.142 190.705 412.477 189.203C411.152 188.286 410.831 187.295 412.511 186.51C414.328 185.657 413.528 185.001 412.54 184.154C401.293 174.502 388.42 168.741 373.592 167.136C363.738 166.068 353.93 164.715 343.993 164.901C342.104 164.934 340.371 164.384 338.683 163.617C337.721 163.351 336.895 162.827 337.084 161.737C337.33 160.334 338.387 159.808 339.754 159.856C347.617 160.059 355.492 159.914 363.325 160.887C372.145 161.985 381.011 162.69 389.573 165.393C400.336 168.787 409.489 174.848 417.869 182.18C419.98 184.027 421.947 184.9 424.773 184.258C426.212 183.93 428.26 182.778 429.241 185.262C431.237 193.73 432.887 202.227 431.535 210.996C431.149 213.487 431.316 213.72 433.256 214.973C434.208 215.588 434.862 215.48 435.642 214.687C440.883 209.388 446.37 204.339 451.317 198.743C455.182 194.37 458.663 189.721 462.137 185.051C463.453 183.277 464.889 181.593 466.27 179.866C467.14 179.012 467.26 179.896 467.304 180.396C467.402 181.545 466.835 182.562 466.407 183.583C463.286 191.071 459.983 198.477 456.568 205.835C454.1 209.416 450.816 212.26 447.886 215.426C447.342 216.016 446.651 216.485 446.738 217.422C448.194 217.778 449.604 218.063 450.614 219.456C455.62 226.365 459.888 233.664 462.772 241.72C466.128 250.884 468.606 260.263 469.087 270.058C469.586 280.226 468.979 290.295 465.93 300.115C465.407 301.796 464.401 303.231 463.897 304.893C463.731 305.781 463.169 306.353 462.4 306.76C461.992 307.419 461.426 307.847 460.639 307.942C460.379 308.163 460.136 308.137 459.909 307.89C459.348 307.478 458.851 307.026 458.893 306.245C458.949 305.916 459.005 305.583 459.062 305.256C463.192 294.199 464.745 282.741 464.111 271.008C463.329 256.578 458.906 243.226 451.777 230.706C449.664 226.993 447.979 223.007 444.428 220.315C444.04 220.022 443.789 219.455 443.276 220.124C443.25 220.325 443.136 220.43 442.934 220.44C442.656 221.107 441.793 221.254 441.568 221.966C438.485 225.794 434.723 228.922 431.064 232.153C428.09 234.777 425.031 237.309 421.807 240.058C424.6 240.01 426.885 240.847 429.007 242.248C430.194 243.032 431.459 243.696 432.689 244.412C438.151 247.588 442.108 252.076 444.516 257.925C443.628 260.254 441.287 260.935 439.518 262.229C437.977 263.355 437.166 264.571 437.274 266.571C438.013 280.383 435.26 293.565 430.213 306.391C426.267 316.411 424.303 326.785 426.103 337.606C426.046 338.611 426.044 339.617 425.922 340.61C425.794 341.68 425.444 342.616 424.035 342.333C422.107 340.869 421.515 338.767 421.144 336.51C419.371 325.682 421.387 315.323 425.328 305.308C429.558 294.558 432.292 283.546 432.428 271.951C432.437 271.135 432.445 270.316 432.464 269.501C432.502 267.876 432.013 267.521 430.478 268.354C429.01 269.149 427.577 270.671 425.62 269.396C425.606 266.749 425.577 264.102 425.576 261.454C425.576 255.373 423.823 249.793 420.766 244.589C419.676 242.734 418.891 242.548 417.145 243.858C412.898 247.045 408.716 250.315 404.451 253.476C403.269 254.351 403.28 254.941 404.089 256.168C407.982 262.062 411.512 268.146 412.446 275.342C412.681 276.744 411.81 277.466 410.706 277.866C408.481 278.669 408.099 280.434 407.919 282.486C406.877 294.424 404.289 306.028 400.699 317.465C396.799 329.897 389.209 339.588 379.386 347.778C378.978 348.062 378.591 348.387 378.156 348.62C376.143 349.681 375.736 349.438 375.148 346.871C376.477 343.897 379.15 342.038 381.196 339.664C384.127 336.258 386.923 332.75 389.716 329.23C392.643 325.545 394.046 321.141 395.518 316.799C399.034 306.438 401.839 295.902 402.607 284.92C402.665 284.045 403.265 282.931 402.366 282.353C401.483 281.787 400.689 282.8 399.897 283.168C396.658 284.671 393.561 286.48 390.228 287.778C389.403 288.099 388.471 289.143 387.586 287.803C387.669 286.695 387.764 285.598 388.218 284.553C390.083 280.247 391.662 275.821 394.288 271.852C396.204 268.955 397.66 265.77 398.727 262.446C399.213 260.944 399.749 259.382 399.166 257.834C398.264 257.566 397.821 258.096 397.327 258.402C392.091 261.6 386.833 264.769 381.326 267.488C379.828 268.23 379.217 269.065 379.415 270.784C380.132 276.976 380.579 283.197 380.58 289.439C380.58 290.046 380.55 290.653 380.532 291.261C379.911 292.826 378.576 293.6 377.131 294.163C375.029 294.98 373.913 296.498 373.34 298.633C369.168 314.134 360.201 326.775 348.935 337.746C340.365 346.093 329.732 351.133 318.059 353.862C316.816 353.944 315.261 354.737 314.655 352.969C314.075 351.272 315.684 350.794 316.727 350.077C316.974 349.906 317.269 349.805 317.541 349.675C322.681 347.02 328.236 345.316 333.352 342.561C337.711 340.214 341.874 337.661 345.343 334.139C354.453 324.888 362.306 314.757 366.808 302.381C367.149 301.444 367.684 300.527 367.501 299.485C366.544 298.42 363.907 301.245 363.995 297.918C365.204 295.453 366.392 292.978 367.627 290.526C370.339 285.138 372.383 279.476 374.439 273.817C374.737 273.005 375.287 272.147 374.515 270.986C372.104 272.139 369.65 273.257 367.242 274.468C361.766 277.217 356.052 279.411 350.42 281.797C347.759 282.922 347.756 282.889 347.832 285.687C348.035 293.207 346.378 300.248 342.416 306.699C341.077 308.872 338.937 309.771 336.582 310.205C331.077 311.225 326.734 313.725 323.075 318.246C314.642 328.675 303.724 336.342 292.792 343.92C291.341 344.926 289.686 345.449 288.089 346.124C286.844 346.679 285.791 346.364 285.361 345.103C284.868 343.663 285.965 342.89 287.015 342.196C291.166 338.087 296.148 335.082 300.887 331.745C307.818 326.861 313.815 320.965 319.823 314.132C314.676 315.413 310.013 315.747 305.424 316.625C304.102 316.88 301.939 317.819 301.987 314.905C303.309 311.128 305.416 307.771 307.672 304.518C310.277 300.768 312.737 296.901 316.248 293.152C307.506 294.777 299.414 297.1 291.034 297.759C285.915 299.409 280.788 301.098 275.554 302.305C264.387 304.881 253.113 306.842 241.62 307.206C233.44 307.193 225.261 307.288 217.085 307.403C216.353 307.411 215.655 307.376 215.031 306.947C214.54 306.56 214.195 306.074 214.036 305.463C213.947 304.985 214.178 304.592 214.377 304.187L215.525 303.446C217.479 302.749 219.498 302.596 221.556 302.573C229.122 302.496 236.691 302.484 244.258 302.424C254.35 301.463 264.315 299.731 274.185 297.459C277.603 296.672 281.187 296.049 283.31 292.706C284.576 291.82 285.949 291.253 287.469 290.861C298.841 287.915 310.196 284.894 321.55 281.877C322.83 281.54 324.071 281.063 325.331 280.648C325.677 280.431 325.336 280.883 325.617 280.583C325.518 280.634 325.418 280.677 325.321 280.727C324.15 279.91 322.936 280.913 321.751 280.632C310.606 280.232 299.654 278.218 288.633 276.756C279.842 275.592 271.093 273.983 262.199 273.696C253.337 272.907 244.462 272.941 235.574 273.095C231.07 273.174 226.6 273.44 222.151 274.137C221.435 274.034 220.73 274.19 220.02 274.247Z" fill="#F0CC78"/>
<path d="M429.241 185.262C427.882 183.899 426.245 184.615 424.909 185.018C421.793 185.955 419.664 184.917 417.349 182.801C412.236 178.121 406.607 174.06 400.463 170.791C395.862 168.346 391.02 166.538 385.944 165.283C372.228 161.898 358.258 160.94 344.204 160.691C342.66 160.661 341.159 160.56 339.755 159.855C347.46 158.973 354.628 156.248 361.628 153.149C373.196 148.032 384.794 148.8 396.328 152.808C405.74 156.077 413.892 161.568 420.594 168.956C424.811 173.602 427.831 179.045 429.241 185.262Z" fill="#F7B318"/>
<path d="M318.059 353.861C318.86 353.201 319.783 352.852 320.773 352.521C326.762 350.525 332.414 347.829 337.972 344.806C345.667 340.622 351.402 334.456 356.807 327.822C361.404 322.177 365.15 315.992 368.556 309.584C370.486 305.956 371.48 301.987 372.571 298.075C373.239 295.68 374.403 294.134 376.811 293.347C378.137 292.915 379.298 291.971 380.531 291.26C381.066 301.379 379.863 311.273 376.236 320.76C373.934 326.787 370.93 332.443 367.023 337.66C360.376 346.547 351.486 351.759 340.834 353.99C333.292 355.568 325.639 355.86 318.059 353.861Z" fill="#F7B318"/>
<path d="M273.612 240.721C278.22 240.957 282.714 241.934 287.127 243.144C296.493 245.715 305.108 250.191 314.016 253.943C322.924 257.695 331.96 261.157 341.019 264.542C344.723 265.925 348.624 266.773 352.437 267.868C349.649 269.225 346.672 269.842 343.611 270.197C328.428 271.95 314.133 268.66 300.387 262.478C294.331 259.754 288.338 256.876 282.546 253.62C279.33 251.81 275.916 250.458 272.521 249.045C270.732 247.475 271.803 245.712 272.25 244.039C272.559 242.888 272.83 241.69 273.612 240.721Z" fill="#F7B318"/>
<path d="M376.417 195.124C374.401 195.106 372.727 193.999 370.978 193.257C365.614 190.983 360.139 189.128 354.405 188.067C350.482 187.339 346.538 186.705 342.654 185.815C337.519 184.639 332.343 184.399 327.15 184.925C322.635 185.381 318.206 184.698 313.755 184.319C310.214 184.013 306.626 183.84 303.229 182.603C305.348 181.277 307.747 180.738 310.137 180.213C316.324 178.854 322.517 177.551 328.636 175.888C335.434 174.042 342.331 173.631 349.287 174.986C358.144 176.713 366.852 178.876 374.731 183.528C379.06 186.087 382.993 189.145 386.628 192.603C383.388 194.113 380.054 195.223 376.417 195.124Z" fill="#F7B318"/>
<path d="M387.585 287.804C389.361 288.036 390.592 286.695 392.038 286.092C395.393 284.69 398.551 282.817 401.78 281.112C403.159 280.383 403.688 280.569 403.684 282.082C403.68 283.497 403.422 284.917 403.226 286.327C402.539 291.247 402.215 296.195 400.894 301.051C399.049 307.826 397.243 314.589 394.81 321.189C393.38 325.067 391.379 328.524 388.778 331.716C386.148 334.949 383.685 338.322 380.71 341.255C378.835 343.105 376.842 344.839 375.151 346.872C374.946 345.33 376.069 344.405 376.937 343.503C381.005 339.269 383.032 334.198 383.776 328.429C384.328 324.159 384.634 319.906 384.54 315.595C384.368 307.711 384.835 299.854 386.238 292.081C386.502 290.616 386.504 289.027 387.585 287.804Z" fill="#F7B318"/>
<path d="M377.292 254.094C375.176 251.329 373.872 248.121 372.35 245.034C371.667 243.646 370.82 242.375 369.875 241.185C360.51 229.395 348.447 221.444 334.397 216.339C334.828 214.407 336.556 213.72 337.935 212.738C339.924 211.313 341.948 209.933 344.019 208.623C345.119 207.929 346.284 207.756 347.534 208.031C350.325 209.051 352.942 210.467 355.319 212.19C361.259 216.503 367.012 220.988 371.505 226.975C375.358 232.109 376.814 237.961 377.483 244.047C377.844 247.34 377.792 250.753 377.292 254.094Z" fill="#F7B318"/>
<path d="M338.683 163.617C344.634 164.603 350.664 163.986 356.648 164.469C361.417 164.853 366.159 165.467 370.898 166.066C373.723 166.424 376.574 166.562 379.39 167.135C386.323 168.547 392.979 170.742 399.275 173.944C404.856 176.783 409.517 180.974 414.489 184.704C415.645 185.573 415.42 186.17 413.969 186.735C413.684 186.846 413.402 187.002 413.107 187.045C411.304 187.311 411.971 188.277 412.478 189.203C409.91 187.754 407.603 185.913 405.046 184.431C394.689 178.42 383.428 175.492 371.627 174.226C365.338 173.552 359.043 172.892 352.941 171.046C347.71 169.464 342.835 167.248 338.683 163.617Z" fill="#F7B318"/>
<path d="M262.23 272.979C265.622 272.539 268.961 273.305 272.235 273.823C279.179 274.918 286.189 275.462 293.122 276.707C300.119 277.965 307.234 278.577 314.299 279.471C316.795 279.785 319.42 279.272 321.75 280.633C312.966 283.325 304.063 285.252 294.831 285.682C284.115 286.176 273.44 286.28 262.829 284.425C261.228 284.145 259.649 283.754 258.058 283.412C257.312 282.744 257.452 281.907 257.847 281.205C259.367 278.492 260.287 275.461 262.23 272.979Z" fill="#F7B318"/>
<path d="M272.202 213.398C272.811 214.495 273.762 214.954 274.994 214.917C280.793 214.746 286.602 214.865 292.365 213.987C294.699 213.628 297.038 214.05 299.371 214.15C307.201 214.488 315.022 214.764 322.736 216.491C329.448 217.999 335.763 220.532 341.919 223.429C345.872 225.291 349.701 227.48 353.316 229.997C357.013 232.566 360.141 235.733 363.261 238.945C365.631 241.387 367.557 244.118 369.357 246.949C370.551 248.827 371.517 250.855 372.5 252.855C372.81 253.479 372.895 254.231 372.6 254.946C366.361 248.914 359.968 243.059 352.897 237.993C351.486 236.982 350.189 235.776 348.681 234.947C337.407 228.748 326.2 222.542 313.331 219.889C301.055 217.365 288.739 215.926 276.226 216.023C275.513 216.028 274.783 216.065 274.089 215.939C272.712 215.69 271.924 214.917 272.202 213.398Z" fill="#F7B318"/>
<path d="M300.396 185.992C304.158 186.283 307.816 187.256 311.598 187.539C317.583 187.988 323.531 188.636 329.565 188.212C335.165 187.812 340.701 188.335 346.162 189.957C349.673 190.999 353.389 191.341 356.99 192.108C361.484 193.069 365.774 194.668 369.969 196.529C370.668 198.556 368.841 198.572 367.831 198.995C364.395 200.432 360.961 201.877 357.594 203.468C345.471 200.078 333.212 197.299 320.86 194.887C314.406 193.629 308.164 191.662 302.623 187.952C301.807 187.406 300.698 187.14 300.396 185.992Z" fill="#F7B318"/>
<path d="M363.995 297.917C364.146 298.805 364.62 299 365.508 298.85C366.641 298.658 367.31 297.475 368.513 297.545C369.195 298.013 368.991 298.649 368.82 299.212C366.592 306.696 363.016 313.505 358.456 319.815C355.125 324.423 351.722 328.966 347.703 333.02C343.674 337.077 339.229 340.446 334.072 343.074C329.081 345.614 324.013 347.845 318.722 349.623C318.31 349.76 317.94 349.804 317.541 349.674C322.447 345.088 327.216 340.338 332.293 335.952C342.218 327.378 350.994 317.811 358.34 306.952C360.331 304.01 362.116 300.933 363.995 297.917Z" fill="#F7B318"/>
<path d="M347.534 208.03C346.325 208.308 345.267 208.882 344.25 209.592C340.981 211.865 337.683 214.095 334.398 216.34C330.652 215.491 326.93 214.468 323.281 213.367C319.312 212.17 315.279 211.978 311.29 211.526C305.772 210.899 300.164 211.132 294.618 210.7C292.243 210.515 289.998 211.432 287.661 211.033C287.285 210.97 287.162 210.757 287.295 210.397C292.825 209.272 297.868 206.755 303.128 204.859C314.125 200.899 325.314 200.778 336.573 203.438C340.449 204.356 344.053 206.088 347.534 208.03Z" fill="#F7B318"/>
<path d="M288.09 346.124C288.914 345.521 289.699 344.853 290.566 344.325C297.304 340.245 303.177 334.981 309.608 330.471C313.662 327.623 316.802 323.631 320.25 320.051C322.577 317.634 324.905 315.214 326.93 312.535C327.463 311.827 328.067 311.487 328.915 311.281C331.882 310.552 334.824 309.709 337.785 308.952C339.493 308.518 341.06 307.833 342.417 306.7C340.471 311.113 337.82 315.093 334.701 318.738C330.2 324.002 325.648 329.168 320.101 333.478C312.491 339.385 303.838 342.709 294.695 345.052C292.548 345.605 290.355 346.162 288.09 346.124Z" fill="#F7B318"/>
<path d="M379.386 347.778C379.898 345.988 381.576 345.177 382.752 344.011C387.255 339.551 391.152 334.585 394.751 329.43C397.315 325.761 398.445 321.296 399.938 317.078C403.008 308.404 404.823 299.415 406.312 290.359C406.753 287.66 406.862 284.905 407.095 282.173C407.293 279.85 407.557 277.628 410.523 277.174C411.512 277.021 412.025 276.186 412.446 275.341C414.277 281.426 414.246 287.638 413.653 293.872C413.028 300.449 411.051 306.693 408.681 312.816C405.529 320.955 401.925 328.822 395.846 335.323C391.479 339.993 386.685 344.072 381.084 347.183C380.555 347.477 380.049 347.859 379.386 347.778Z" fill="#F7B318"/>
<path d="M356.271 264.532C352.27 263.451 348.199 262.732 344.196 261.551C330.231 257.433 317.057 251.419 303.824 245.518C302.434 244.895 301.005 244.362 299.597 243.787C302.255 240.293 304.924 236.807 309.46 235.566C317.035 238.237 323.929 242.116 330.502 246.729C335.945 250.552 341.02 254.829 346.367 258.758C347.458 259.56 348.711 259.966 349.958 260.443C352.335 261.356 354.779 262.226 356.271 264.532Z" fill="#F7B318"/>
<path d="M357.593 203.467C357.897 202.061 359.104 201.674 360.205 201.224C363.081 200.048 365.98 198.918 368.876 197.793C369.485 197.555 369.956 197.256 369.968 196.529C378.44 199.742 385.521 205.071 392.42 210.825C398.332 215.756 402.299 222.095 406.416 228.358C407.319 229.735 408.59 231.419 407.55 233.408C402.913 229.142 398.428 224.726 393.388 220.892C383.005 212.995 371.28 207.941 358.973 204.017C358.5 203.865 357.955 203.896 357.593 203.467Z" fill="#F7B318"/>
<path d="M325.38 275.944C321.95 276.775 318.483 276.389 315.06 276.05C305.848 275.134 296.701 273.723 287.556 272.287C280.541 271.186 273.427 270.718 266.363 269.944C265.664 269.866 264.985 269.596 264.3 269.417C264.54 266.102 265.324 263.026 268.064 260.805C278.169 261.076 287.809 263.454 297.129 267.259C302.045 269.267 307.162 270.596 312.295 271.934C316.704 273.083 321.181 274.08 325.38 275.944Z" fill="#F7B318"/>
<path d="M241.313 306.547C242.956 305.74 244.709 306.358 246.408 306.196C257.35 305.166 268.168 303.492 278.787 300.629C280.254 300.233 281.697 299.732 283.122 299.205C284.746 298.602 286.338 297.864 288.132 298.378C289.222 298.69 289.962 297.464 291.035 297.759C290.059 298.497 289.011 299.158 288.119 299.986C276.693 310.585 263.024 314.779 247.685 314.146C244.53 314.013 241.375 313.729 238.283 313.001C236.832 312.231 237.744 311.315 238.206 310.539C239.073 309.087 240.187 307.806 241.313 306.547Z" fill="#F7B318"/>
<path d="M309.46 235.567C307.035 236.854 305.31 239.002 303.312 240.786C302.114 241.858 300.853 242.809 299.596 243.786C291.985 240.89 284.105 239.043 276.08 237.762C275.484 237.666 274.911 237.441 274.325 237.274C274.255 234.069 274.219 230.873 276.476 228.224C288.103 227.83 298.981 230.81 309.46 235.567Z" fill="#F7B318"/>
<path d="M283.309 292.707C282.847 295.318 281.284 296.462 278.682 297.128C272.861 298.621 267.002 299.826 261.086 300.862C255.481 301.845 249.871 302.708 244.198 303.168C246.425 299.001 249.384 295.313 251.926 291.351C252.475 290.491 253.552 290.231 254.56 290.061C259.767 289.435 264.897 290.132 270.033 290.918C274.445 291.593 278.882 292.117 283.309 292.707Z" fill="#F7B318"/>
<path d="M268.065 260.804C266.809 263.675 265.553 266.544 264.298 269.417C260.86 270.171 257.422 269.412 254.023 269.19C249.454 268.891 244.896 268.915 240.345 269.043C235.676 269.173 230.993 268.849 226.333 269.445C224.414 269.691 222.529 270.041 220.714 270.734C219.828 270.911 219.071 271.271 218.707 272.177C218.837 272.808 218.967 273.438 219.095 274.07C217.455 272.637 217.302 271.864 218.617 270.801C219.316 270.238 220.173 269.829 221.015 269.497C230.775 265.62 240.768 262.531 251.104 260.577C256.787 259.5 262.424 259.74 268.065 260.804Z" fill="#F7B318"/>
<path d="M301.988 314.905C302.138 316.18 302.94 316.229 303.975 316.048C308.181 315.318 312.398 314.643 316.604 313.913C318.083 313.659 319.546 313.314 321.028 313.009C321.436 314.005 320.862 314.535 320.394 314.981C315.719 319.449 311.556 324.388 306.445 328.481C300.226 333.465 293.482 337.619 287.015 342.198C292.798 335.981 296.152 328.39 299.267 320.649C300.058 318.691 300.725 316.648 301.988 314.905Z" fill="#F7B318"/>
<path d="M254.56 290.061C253.214 290.835 252.316 291.985 251.51 293.307C249.994 295.792 248.341 298.193 246.708 300.605C246.033 301.601 245.27 302.543 244.198 303.169C235.841 303.238 227.482 303.308 219.125 303.383C217.925 303.393 216.724 303.427 215.524 303.446C221.347 300.103 226.884 296.203 233.364 294.133C240.263 291.93 247.254 290.166 254.56 290.061Z" fill="#F7B318"/>
<path d="M262.23 272.979C261.896 275.513 260.462 277.59 259.386 279.819C258.83 280.973 257.858 281.977 258.058 283.412C252.801 282.641 247.721 281.106 242.616 279.705C235.437 277.732 228.202 275.999 220.954 274.304C221.08 273.841 221.395 273.648 221.86 273.667C224.617 272.895 227.448 272.524 230.294 272.457C236.685 272.305 243.082 272.165 249.473 272.24C253.728 272.289 257.979 272.719 262.23 272.979Z" fill="#F7B318"/>
<path d="M276.477 228.224C275.33 231.137 275.47 234.359 274.326 237.273C268.113 236.591 261.904 235.883 255.687 235.24C253.776 235.042 251.84 235.13 249.953 235.5C246.878 236.109 243.699 235.859 240.653 236.712C240.346 236.799 239.915 236.455 239.542 236.312C247.07 232.115 255.32 230.325 263.726 229.082C266.65 228.648 269.591 228.297 272.535 228.011C273.84 227.881 275.182 227.81 276.477 228.224Z" fill="#F7B318"/>
<path d="M273.612 240.721C273.831 242.051 273.29 243.216 272.895 244.44C272.416 245.924 271.803 247.447 272.522 249.047C270.507 248.68 268.631 247.875 266.772 247.086C259.581 244.037 252.034 242.368 244.37 241.121C243.37 240.957 242.384 240.704 241.392 240.495C242.378 239.351 243.782 239.474 245.075 239.297C251.984 238.342 258.843 238.575 265.744 239.696C268.333 240.118 270.972 240.508 273.612 240.721Z" fill="#F7B318"/>
<path d="M241.313 306.547C241.646 308.244 240.071 308.951 239.448 310.15C238.976 311.061 237.624 311.627 238.285 313C234.723 312.786 231.281 311.91 227.85 311.019C223.623 309.918 219.453 308.582 215.084 308.093C214.179 307.992 213.15 307.919 212.869 306.828C212.537 305.531 213.246 304.709 214.377 304.187C214.342 304.461 214.306 304.733 214.272 305.006C214.147 305.815 214.659 306.221 215.26 306.572C219.991 306.55 224.724 306.511 229.455 306.505C233.407 306.5 237.361 306.53 241.313 306.547Z" fill="#F7B318"/>
<path d="M373.313 255.939C373.505 255.989 373.755 255.98 373.884 256.1C374.908 257.061 376.379 258.282 375.925 259.513C375.327 261.136 373.615 262.134 371.686 262.281C372.536 261.732 373.382 261.177 374.234 260.632C375.897 259.565 375.902 259.565 374.738 257.902C374.275 257.24 373.79 256.594 373.313 255.939Z" fill="#F7B318"/>
<path d="M239.581 236.306C238.35 237.49 238.136 238.771 239.203 240.181C237.978 240.119 237.288 239.391 237.409 238.262C237.533 237.117 238.19 236.217 239.581 236.306Z" fill="#F7B318"/>
<path d="M287.294 210.397C287.416 210.608 287.541 210.819 287.663 211.031C285.996 211.11 284.369 211.81 282.67 211.349C284.108 210.531 285.707 210.499 287.294 210.397Z" fill="#F7B318"/>
<path d="M274.308 211.886L272.203 213.394C272.286 212.03 273.141 211.738 274.308 211.886Z" fill="#F7B318"/>
<path d="M221.86 273.666C221.558 273.878 221.255 274.09 220.954 274.304C220.642 274.286 220.331 274.265 220.019 274.247C220.571 273.855 221.097 273.385 221.86 273.666Z" fill="#F7B318"/>
<path d="M218.707 272.176C218.812 270.909 219.661 270.682 220.715 270.738C220.044 271.215 219.376 271.696 218.707 272.176Z" fill="#F7B318"/>
<path d="M215.26 306.573C214.349 306.417 213.884 305.979 214.271 305.005C214.601 305.529 214.93 306.048 215.26 306.573Z" fill="#F7B318"/>
<path d="M48.9669 37.1169C48.9669 37.1169 80.8791 32.0842 92.9683 48.7082C105.058 65.3322 104.825 84.0696 116.963 90.2734C116.963 90.2734 77.7719 86.8487 62.2889 72.7823C44.1137 56.2685 48.9669 37.1169 48.9669 37.1169Z" fill="#F7B318"/>
<path d="M46.3467 14.1479C46.3467 14.1479 50.4715 29.9851 67.4501 25.9681C91.7967 20.2083 107.054 -13.7246 107.054 -13.7246C107.054 -13.7246 61.7017 -17.411 47.843 -7.32505C33.9831 2.76225 46.3467 14.1479 46.3467 14.1479Z" fill="#F7B318"/>
<path d="M34.4304 90.7646C34.4304 90.7646 40.4057 81.7969 58.7432 84.2148C79.7038 86.9786 101.71 107.03 101.71 107.03C101.71 107.03 80.9548 122.951 51.3055 115.448C36.0014 111.574 31.5893 98.8108 34.4304 90.7646Z" fill="#F7B318"/>
<path d="M35.6024 119.265C35.6024 119.265 59.489 120.624 70.5219 139.24C82.4522 159.366 75.9786 175.493 87.3868 182.954C87.3868 182.954 51.0363 178.349 37.7071 160.81C18.4255 135.434 35.6024 119.265 35.6024 119.265Z" fill="#F7B318"/>
<path d="M0.129119 85.8313C0.129119 85.8313 8.72871 102.13 -3.25291 119.277C-15.2359 136.423 -43.0422 135.187 -52.8452 147.484C-52.8452 147.484 -55.9579 110.342 -36.7526 95.2773C-17.5473 80.2142 0.129119 85.8313 0.129119 85.8313Z" fill="#F7B318"/>
<path d="M66.8792 166.351C66.8792 166.351 12.7283 100.511 14.0744 39.265C15.4167 -21.8485 40.3843 -53.1994 49.7983 -62.8864C51.5779 -64.7171 51.2855 -67.7062 49.2081 -69.1901C47.3796 -70.4948 44.8417 -70.1329 43.4709 -68.3537C29.0438 -49.6371 -38.6249 50.6518 66.8792 166.351Z" fill="#F4D691"/>
<path d="M17.0987 74.2832C16.8749 74.2924 16.6494 74.3577 16.4465 74.4862C15.822 74.8762 15.6344 75.7006 16.0257 76.3237C23.139 87.665 35.6711 96.3014 52.2679 101.304C64.7355 105.061 74.9473 105.463 75.375 105.479C76.1327 105.505 76.7282 104.93 76.7554 104.195C76.7812 103.458 76.2073 102.841 75.4709 102.814C75.066 102.799 34.677 101.041 18.284 74.907C18.0212 74.4868 17.561 74.2642 17.0987 74.2832Z" fill="#F4D691"/>
<path d="M19.821 -13.851C19.7503 -13.8481 19.6773 -13.8398 19.6045 -13.8248C18.8834 -13.675 18.4199 -12.9714 18.5683 -12.2502C23.2425 10.4235 41.3393 31.782 55.697 45.7079C71.1929 60.7372 85.8008 70.5934 85.9463 70.6915C86.5571 71.1041 87.3844 70.9393 87.7969 70.3272C88.2068 69.7151 88.0433 68.8878 87.4326 68.4766C86.8576 68.0919 29.8821 29.4228 21.1805 -12.7873C21.0471 -13.4357 20.4617 -13.8774 19.821 -13.851Z" fill="#F4D691"/>
<path d="M82.3158 1.8185C82.1026 1.82727 81.8876 1.88815 81.6896 2.00439C81.4082 2.17209 53.2639 18.6757 31.629 12.6902C30.9126 12.4995 30.1835 12.9098 29.9872 13.6198C29.7908 14.3298 30.208 15.0639 30.9167 15.2603C53.6622 21.5484 81.8637 5.0051 83.0543 4.29692C83.686 3.91998 83.8952 3.10269 83.5182 2.46832C83.2588 2.03327 82.7887 1.79905 82.3158 1.8185Z" fill="#F4D691"/>
<path d="M13.911 -3.29841C13.4674 -3.28017 13.0422 -3.04117 12.8057 -2.62577C12.548 -2.1748 -13.4075 42.7642 -56.8007 64.7537C-57.4569 65.0876 -57.7201 65.8897 -57.3875 66.5473C-57.0549 67.2048 -56.2517 67.4614 -55.5952 67.1341C-11.4701 44.7717 14.8618 -0.848743 15.1232 -1.30654C15.4879 -1.94606 15.2649 -2.76025 14.624 -3.1249C14.3986 -3.25308 14.1521 -3.30833 13.911 -3.29841Z" fill="#F4D691"/>
<path d="M-40.2687 -28.8256C-40.3767 -28.8212 -40.484 -28.8034 -40.5922 -28.7723C-41.2975 -28.5645 -41.7021 -27.8232 -41.4943 -27.1178C-34.6886 -3.98057 -22.6318 5.98048 -13.7164 10.2618C-3.97587 14.9415 4.07384 14.0714 4.41379 14.0307C5.14426 13.946 5.66694 13.2866 5.58214 12.5548C5.49872 11.8243 4.83247 11.2966 4.10739 11.3824C2.86412 11.523 -26.521 14.338 -38.9363 -27.8689C-39.1131 -28.4688 -39.6719 -28.8502 -40.2687 -28.8256Z" fill="#F4D691"/>
<path d="M11.6658 57.8545C11.069 57.879 10.5434 58.305 10.415 58.9161C10.3305 59.3266 1.42434 100.282 -38.5454 125.92C-39.1655 126.318 -39.3451 127.144 -38.9487 127.762C-38.5508 128.384 -37.7253 128.565 -37.1052 128.166C3.84085 101.9 12.9407 59.8785 13.0274 59.4559C13.1753 58.7359 12.7126 58.0303 11.9912 57.8812C11.8822 57.8589 11.7724 57.8501 11.6658 57.8545Z" fill="#F4D691"/>
</svg>
