<svg width="375" height="1451" viewBox="0 0 375 1451" fill="none" xmlns="http://www.w3.org/2000/svg">
<path fill-rule="evenodd" clip-rule="evenodd" d="M224.889 262.58C223.324 263.968 219.021 266.634 224.126 267.568C224.534 267.642 226.134 267.698 226.594 267.7C228.717 267.705 229.638 267.802 231.104 267.103C234.014 261.934 232.685 239.996 235.453 235.692C237.711 238.536 239.694 242.601 241.761 245.528C243.927 248.595 248.082 251.656 249.4 254.284C240.976 254.655 233.829 257.605 236.148 267.518C241.503 267.51 244.943 262.95 257.089 266.771C264.627 269.141 271.216 270.88 279.29 267.203C285.081 264.565 289.152 260.223 291.541 253.557C293.723 247.469 295.24 237.969 294.821 230.965C293.64 211.214 277.749 192.886 272.181 176.551C270.079 170.383 269.814 160.941 266.379 156.548C243.311 151.238 268.692 196.07 271.361 200.753C275.274 207.62 279.962 215.363 281.999 224.292C283.866 232.479 283.828 248.74 279.688 255.212C275.99 253.066 275.467 245.101 274.588 240.529C273.541 235.087 272.484 229.74 271.084 224.411C268.279 213.738 264.309 204.84 259.948 195.723C252.15 179.417 237.936 160.308 222.36 153.706C221.895 141.083 212.69 151.514 210.214 152.11C200.461 154.461 201.636 156.245 195.688 160.896C188.426 166.573 190.999 173.139 197.589 173.881C206.403 174.873 209.537 174.888 212.337 182.692C217.512 197.114 208.683 206.616 221.942 219.179C224.067 221.191 224.896 257.536 224.889 262.58Z" fill="#C8E0CA"/>
<path fill-rule="evenodd" clip-rule="evenodd" d="M92.6658 784.421C93.6488 785.294 96.3534 786.968 93.1453 787.555C92.8886 787.602 91.8834 787.638 91.5939 787.638C90.2597 787.641 89.6811 787.703 88.76 787.263C86.9314 784.015 87.7666 770.229 86.0273 767.524C84.608 769.312 83.3621 771.866 82.0628 773.705C80.7017 775.633 78.091 777.556 77.2624 779.208C82.556 779.441 87.0474 781.294 85.5901 787.524C82.2251 787.519 80.0635 784.654 72.4308 787.054C67.6941 788.544 63.5533 789.637 58.4797 787.326C54.8403 785.669 52.2822 782.94 50.7806 778.751C49.4094 774.925 48.456 768.955 48.7193 764.554C49.4619 752.142 59.4479 740.625 62.9467 730.36C64.2678 726.484 64.4343 720.55 66.5927 717.79C81.0888 714.453 65.1394 742.625 63.4623 745.568C61.0031 749.884 58.0569 754.75 56.7773 760.361C55.604 765.505 55.6279 775.724 58.2293 779.791C60.5533 778.442 60.8818 773.437 61.4343 770.564C62.0919 767.144 62.7562 763.784 63.6362 760.435C65.3986 753.728 67.8937 748.137 70.6339 742.407C75.5343 732.161 84.4669 720.152 94.2549 716.003C94.547 708.071 100.331 714.626 101.887 715.001C108.016 716.478 107.278 717.599 111.016 720.522C115.579 724.09 113.963 728.215 109.821 728.682C104.282 729.305 102.313 729.315 100.553 734.219C97.301 743.281 102.85 749.253 94.5172 757.147C93.182 758.412 92.6613 781.251 92.6658 784.421Z" fill="#C8E0CA"/>
<path fill-rule="evenodd" clip-rule="evenodd" d="M187.849 1272.91C188.832 1273.79 191.537 1275.46 188.329 1276.05C188.072 1276.1 187.067 1276.13 186.777 1276.13C185.443 1276.13 184.865 1276.2 183.944 1275.76C182.115 1272.51 182.95 1258.72 181.211 1256.02C179.791 1257.81 178.546 1260.36 177.246 1262.2C175.885 1264.13 173.275 1266.05 172.446 1267.7C177.74 1267.93 182.231 1269.79 180.774 1276.02C177.409 1276.01 175.247 1273.15 167.614 1275.55C162.878 1277.04 158.737 1278.13 153.663 1275.82C150.024 1274.16 147.466 1271.43 145.964 1267.24C144.593 1263.42 143.64 1257.45 143.903 1253.05C144.645 1240.64 154.631 1229.12 158.13 1218.85C159.451 1214.98 159.618 1209.04 161.776 1206.28C176.272 1202.95 160.323 1231.12 158.646 1234.06C156.187 1238.38 153.24 1243.24 151.961 1248.85C150.788 1254 150.811 1264.22 153.413 1268.28C155.737 1266.94 156.065 1261.93 156.618 1259.06C157.275 1255.64 157.94 1252.28 158.82 1248.93C160.582 1242.22 163.077 1236.63 165.817 1230.9C170.718 1220.65 179.65 1208.65 189.438 1204.5C189.731 1196.56 195.515 1203.12 197.071 1203.49C203.2 1204.97 202.461 1206.09 206.199 1209.02C210.763 1212.58 209.146 1216.71 205.005 1217.18C199.466 1217.8 197.496 1217.81 195.737 1222.71C192.485 1231.77 198.033 1237.75 189.701 1245.64C188.366 1246.91 187.845 1269.74 187.849 1272.91Z" fill="#C8E0CA"/>
<path fill-rule="evenodd" clip-rule="evenodd" d="M43.0122 247.459C48.5821 248.442 50.5599 246.423 54.7456 249.56C56.6895 263.397 41.3429 270.833 54.8376 290.297C64.374 304.052 85.6206 298.64 95.2441 299.473C103.136 311.337 92.4639 329.106 76.3783 337.424C64.2563 343.692 49.2571 342.31 38.782 362.071C35.7736 367.747 31.8383 382.708 40.8884 383.669C47.3236 384.353 49.0582 371.848 59.1845 370.909C67.8801 370.104 72.7259 376.477 86.323 374.572C112.688 370.878 125.437 346.79 126.708 320.884C128.007 294.411 118.493 268.568 94.4822 259.593C80.5045 254.367 80.8361 258.836 76.5733 246.379C73.6606 237.868 70.1843 232.162 59.1658 232.543C54.0799 232.719 51.1116 235.365 48.6468 237.912C46.8607 239.757 42.4073 244.282 43.0122 247.459Z" fill="#C8E0CA"/>
<path fill-rule="evenodd" clip-rule="evenodd" d="M144.72 1180.64C139.15 1181.62 137.172 1179.6 132.987 1182.74C131.043 1196.57 146.389 1204.01 132.895 1223.47C123.358 1237.23 102.112 1231.82 92.4881 1232.65C84.5961 1244.51 95.2683 1262.28 111.354 1270.6C123.476 1276.87 138.475 1275.49 148.95 1295.25C151.959 1300.92 155.894 1315.88 146.844 1316.85C140.409 1317.53 138.674 1305.02 128.548 1304.09C119.852 1303.28 115.006 1309.65 101.409 1307.75C75.0441 1304.05 62.2952 1279.97 61.0239 1254.06C59.7249 1227.59 69.2388 1201.74 93.25 1192.77C107.228 1187.54 106.896 1192.01 111.159 1179.56C114.072 1171.04 117.548 1165.34 128.566 1165.72C133.652 1165.89 136.621 1168.54 139.085 1171.09C140.872 1172.93 145.325 1177.46 144.72 1180.64Z" fill="#C8E0CA"/>
<path fill-rule="evenodd" clip-rule="evenodd" d="M399.618 676.866C396.013 677.502 394.734 676.195 392.025 678.225C390.767 687.179 400.698 691.99 391.966 704.585C385.795 713.486 372.046 709.984 365.819 710.523C360.712 718.2 367.618 729.698 378.027 735.081C385.871 739.137 395.577 738.242 402.355 751.03C404.302 754.702 406.848 764.383 400.992 765.005C396.828 765.448 395.705 757.356 389.153 756.749C383.526 756.227 380.39 760.351 371.592 759.119C354.531 756.728 346.282 741.141 345.459 724.378C344.619 707.247 350.775 690.525 366.312 684.717C375.357 681.336 375.142 684.227 377.901 676.167C379.786 670.659 382.035 666.967 389.165 667.214C392.456 667.327 394.377 669.039 395.972 670.688C397.127 671.882 400.009 674.81 399.618 676.866Z" fill="#C8E0CA"/>
<path fill-rule="evenodd" clip-rule="evenodd" d="M208.031 308.78C218.511 304.394 213.121 323.126 223.57 315.916C233.901 308.788 220.995 289.869 204.883 291.298C188.291 292.77 185.364 309.386 171.19 308.255C163.349 307.629 159.297 303.589 149.41 305.781C122.486 311.749 130.762 354.617 138.754 356.214C150.107 358.482 133.446 332.69 154.714 334.425C158.487 334.733 160.804 336.704 163.496 338.299C172.561 343.667 174.87 338.832 181.639 336.026C189.897 332.603 196.218 337.538 194.22 346.108C193.505 349.175 190.383 353.336 194.878 354.533C198.513 355.501 201.035 351.646 202.222 349.579C213.483 329.974 199.109 312.515 208.031 308.78Z" fill="#F7B318"/>
<path fill-rule="evenodd" clip-rule="evenodd" d="M252.163 3.50028C224.629 6.28301 223.044 32.0889 237.165 25.7257C245.211 22.0999 249.337 20.2177 260.231 21.8044C266.562 22.7264 277.784 28.0224 283.78 25.2927C287.627 23.5416 288.721 19.4583 290.854 18.3831C293.841 16.877 297.828 18.4506 301.788 15.2865C305.2 12.5606 304.234 8.12908 299.294 7.72741C289.844 6.95897 280.907 26.4103 272.089 10.9711C268.117 4.01737 262.406 2.46505 252.163 3.50028Z" fill="#F7B318"/>
<path fill-rule="evenodd" clip-rule="evenodd" d="M138.751 401.082C147.482 374.822 124.585 362.813 124.611 378.302C124.626 387.127 124.655 391.661 118.748 400.952C115.316 406.351 105.89 414.423 105.927 421.011C105.95 425.237 109.228 427.907 109.336 430.293C109.487 433.635 106.42 436.628 107.686 441.537C108.776 445.765 113.215 446.698 115.604 442.355C120.173 434.047 106.083 417.932 123.779 416.205C131.75 415.427 135.503 410.852 138.751 401.082Z" fill="#F7B318"/>
<path fill-rule="evenodd" clip-rule="evenodd" d="M161.662 801.33C184.178 817.419 172.738 840.605 163.642 828.069C158.459 820.926 155.812 817.244 145.568 813.21C139.616 810.867 127.245 809.89 123.396 804.543C120.927 801.113 122.005 797.026 120.688 795.033C118.843 792.242 114.601 791.629 112.735 786.915C111.127 782.855 114.167 779.488 118.654 781.593C127.238 785.619 125.335 806.94 140.656 797.919C147.557 793.856 153.285 795.344 161.662 801.33Z" fill="#F7B318"/>
<path fill-rule="evenodd" clip-rule="evenodd" d="M248.9 1225.9C217.662 1228.08 210.939 1199.61 227.908 1204C237.577 1206.49 242.539 1207.8 254.383 1203.94C261.265 1201.69 272.763 1193.63 279.974 1195.53C284.6 1196.74 286.604 1201.08 289.189 1201.87C292.81 1202.98 296.953 1200.46 301.977 1203.23C306.305 1205.61 306.079 1210.74 300.647 1212.14C290.257 1214.81 276.556 1194.83 269.686 1213.74C266.592 1222.26 260.522 1225.09 248.9 1225.9Z" fill="#F7B318"/>
<path fill-rule="evenodd" clip-rule="evenodd" d="M149.846 224.673C146.415 224.894 129.564 222.481 126.661 227.494C127.994 231.865 137.197 233.535 140.968 233.915C145.117 234.333 151.711 233.235 156.804 230.318C162.952 226.797 166.535 221.551 167.666 216.187C168.814 210.739 166.214 206.013 161.819 200.048C165.111 197.452 168.16 199.278 171.017 201.537C173.008 198.905 170.845 194.169 170.636 192.945L173.4 190.488C171.109 186.823 168.586 189.757 166.493 188.827C158.55 185.3 149.944 188.87 144.323 196.042C139.11 202.693 139.494 211.107 143.53 217.998C145.587 221.511 147.349 222.273 149.846 224.673Z" fill="#F7B318"/>
<path fill-rule="evenodd" clip-rule="evenodd" d="M244.008 308.92C244.475 311.86 249.198 311.486 249.216 320.699C249.236 331.4 241.573 340.802 254.871 351.251C256.475 352.512 258.056 352.905 258.107 355.513C257.172 359.253 245.58 359.003 245.58 375.072C245.58 376.869 245.385 378.004 246.298 379.326C248.926 378.369 249.103 373.949 255.272 373.324C261.024 372.741 264.332 374.94 265.621 368.664C266.48 364.479 265.685 358.858 272.033 360.26C277.329 361.429 277.696 363.334 285.035 362.509C293.187 361.594 301.111 357.041 305.404 352.819C308.145 350.124 309.565 347.192 312.114 344.271C313.201 343.025 314.521 341.899 316.46 341.213C318.708 340.417 321.396 340.852 323.303 340.232C322.734 336.267 312.915 333.37 307.75 334.04C300.619 334.966 295.576 339.772 291.905 340.42C291.911 337.461 292.431 332.783 293.574 330.432C295.847 325.753 298.633 326.246 300.915 326.043C301.456 319.265 285.117 311.538 277.149 315.125C277.832 318.595 281.352 315.582 277.854 325.625C276.462 329.62 274.949 331.487 270.121 331.748C269.403 325.405 266.569 318.889 263.306 315.419C257.88 309.649 246.349 306.53 244.008 308.92Z" fill="#C8E0CA"/>
<path fill-rule="evenodd" clip-rule="evenodd" d="M181.434 899.096C184.371 899.581 183.97 904.302 193.182 904.373C203.883 904.455 213.33 896.847 223.7 910.206C224.952 911.818 225.337 913.401 227.944 913.467C231.689 912.554 231.507 900.96 247.575 901.054C249.373 901.065 250.509 900.876 251.825 901.797C250.853 904.42 246.432 904.571 245.771 910.736C245.154 916.484 247.334 919.806 241.051 921.058C236.861 921.892 231.245 921.065 232.609 927.42C233.747 932.723 235.65 933.101 234.783 940.436C233.82 948.582 229.221 956.479 224.974 960.748C222.263 963.473 219.323 964.876 216.387 967.407C215.134 968.488 214.001 969.801 213.303 971.736C212.495 973.979 212.914 976.669 212.283 978.572C208.321 977.981 205.481 968.145 206.182 962.984C207.149 955.858 211.984 950.843 212.654 947.176C209.695 947.165 205.013 947.658 202.656 948.787C197.964 951.033 198.441 953.822 198.224 956.102C191.443 956.604 183.811 940.22 187.445 932.273C190.912 932.977 187.878 936.479 197.941 933.039C201.944 931.671 203.82 930.169 204.109 925.342C197.77 924.587 191.271 921.715 187.82 918.432C182.082 912.973 179.03 901.423 181.434 899.096Z" fill="#C8E0CA"/>
<path fill-rule="evenodd" clip-rule="evenodd" d="M212.25 18.224C214.321 11.5947 214.405 4.09503 206.799 2.3048C203.126 1.44045 198.666 2.46301 195.287 2.97878C187.56 4.15788 188.21 1.62677 184.083 0.732317C182.831 11.7881 189.175 24.8782 202.772 18.6114C202.028 21.2801 200.946 23.3824 202.541 26.0263C206.784 26.4238 210.493 25.2298 211.557 22.4035C214.567 23.1124 219.309 24.2679 220.099 21.3614C221.287 16.9956 215.505 17.6901 212.25 18.224Z" fill="#C8E0CA"/>
<path fill-rule="evenodd" clip-rule="evenodd" d="M282.583 108.53C275.773 108.171 273.173 106.396 263.448 107.455C257.606 108.091 251.569 109.983 248.077 112.979C238.183 121.468 245.343 145.185 249.866 143.156C251.757 141.209 250.503 136.487 251.985 134.042L252.592 135.388C252.773 135.93 252.84 136.248 253.004 136.766C253.434 138.121 256.161 144.748 258.014 142.886C259.545 140.572 249.611 127.377 262.877 127.326C275.861 127.277 267.014 138.963 267.761 142.91C271.328 143.331 272.291 137.347 273.473 135.556C274.66 137.759 273.743 141.191 275.555 143.175C279.607 143.257 280.596 133.808 282.731 128.262C287.708 115.329 290.996 128.431 295.722 123.703C300.468 118.955 288.611 115.814 288.324 110.826C288.089 106.74 291.673 102.581 294.217 100.1C295.387 98.9589 296.219 97.8253 294.386 96.8141C290.523 95.9163 287.588 105.301 284.324 103.326C281.42 100.674 293.417 92.9904 293.211 90.8773C293.104 89.7771 292.095 89.3692 290.849 89.7279C289.317 90.169 282.668 97.1728 281.487 98.5765C276.967 103.949 281.321 105.494 282.583 108.53Z" fill="#F7B318"/>
<path fill-rule="evenodd" clip-rule="evenodd" d="M352.16 1128.05C345.349 1127.7 342.75 1125.92 333.025 1126.98C327.183 1127.61 321.146 1129.51 317.654 1132.5C307.76 1140.99 314.92 1164.71 319.443 1162.68C321.334 1160.73 320.08 1156.01 321.561 1153.57L322.169 1154.91C322.35 1155.45 322.417 1155.77 322.581 1156.29C323.011 1157.65 325.738 1164.27 327.591 1162.41C329.122 1160.1 319.188 1146.9 332.454 1146.85C345.438 1146.8 336.591 1158.49 337.338 1162.43C340.905 1162.85 341.868 1156.87 343.05 1155.08C344.237 1157.28 343.32 1160.72 345.132 1162.7C349.184 1162.78 350.173 1153.33 352.308 1147.79C357.285 1134.85 360.573 1147.95 365.299 1143.23C370.045 1138.48 358.188 1135.34 357.901 1130.35C357.666 1126.26 361.25 1122.1 363.793 1119.62C364.964 1118.48 365.796 1117.35 363.963 1116.34C360.1 1115.44 357.165 1124.83 353.901 1122.85C350.996 1120.2 362.994 1112.51 362.788 1110.4C362.68 1109.3 361.672 1108.89 360.426 1109.25C358.894 1109.69 352.245 1116.7 351.064 1118.1C346.544 1123.47 350.898 1125.02 352.16 1128.05Z" fill="#F7B318"/>
<path fill-rule="evenodd" clip-rule="evenodd" d="M339.591 264.974C360.477 247.544 357.369 202.999 336.626 192.463C332.935 190.588 326.871 192.898 328.688 198.168C330.237 202.663 333.706 205.891 329.715 209.361C326.198 212.421 321.143 213.877 323.724 218.678C325.67 222.299 330.573 224.99 331.58 229.059C332.486 232.722 328.346 235.65 325.633 238.388C314.832 249.286 333.905 247.25 329.624 257.207C328.434 259.974 324.646 263.902 328.294 267.175C331.798 270.319 335.823 268.119 339.591 264.974Z" fill="#C8E0CA"/>
<path fill-rule="evenodd" clip-rule="evenodd" d="M306.368 37.3455C304.072 36.4156 300.541 37.1861 295.408 35.4814C289.247 33.4354 287.883 29.7709 294.777 27.9473C301.168 26.2565 312.226 26.2117 318.141 28.377C333.702 34.0734 297.046 60.9685 297.984 48.5908C298.254 45.0335 303.315 40.3496 306.368 37.3455Z" fill="#F7B318"/>
<path fill-rule="evenodd" clip-rule="evenodd" d="M221.934 41.4585C220.853 41.0207 219.191 41.3834 216.774 40.5809C213.874 39.6177 213.232 37.8926 216.477 37.0341C219.486 36.2381 224.692 36.217 227.477 37.2364C234.802 39.9181 217.546 52.5795 217.987 46.7524C218.114 45.0777 220.497 42.8727 221.934 41.4585Z" fill="#F7B318"/>
<path fill-rule="evenodd" clip-rule="evenodd" d="M193.297 227.702C194.087 226.433 193.994 224.255 195.538 221.381C197.392 217.931 199.71 217.5 200.081 221.785C200.425 225.758 199.307 232.335 197.409 235.626C192.414 244.284 180.223 219.718 187.481 221.556C189.567 222.084 191.827 225.576 193.297 227.702Z" fill="#F7B318"/>
<path fill-rule="evenodd" clip-rule="evenodd" d="M176.504 1430.71C178.588 1430.53 181.236 1428.37 185.8 1427.64C191.278 1426.76 193.302 1429.3 188.213 1433.8C183.495 1437.97 174.603 1442.72 169.293 1443.39C155.324 1445.16 178.037 1406.57 180.411 1417.54C181.093 1420.69 178.203 1426.85 176.504 1430.71Z" fill="#F7B318"/>
<path fill-rule="evenodd" clip-rule="evenodd" d="M133.96 257.531C134.755 264.005 148.197 270.745 155.413 272.991C158.755 274.032 162.568 274.508 165.402 275.505L137.665 275.229C138.453 283.544 145.674 285.982 154.523 285.965C163.703 285.948 172.822 285.524 181.998 285.531C192.588 285.539 197.167 285.466 200.384 276.823C204.511 265.733 200.835 264.736 213.893 262.131C212.782 259.909 211.698 260.165 209.269 259.136C202.573 256.301 199.318 258.479 195.117 265.514C192.747 269.485 188.842 270.452 186.213 266.677C181.568 260.007 181.169 247.105 156.995 250.115C148.347 251.192 143.218 255.825 133.96 257.531Z" fill="#C8E0CA"/>
<path fill-rule="evenodd" clip-rule="evenodd" d="M306.67 192.311C305.906 191.371 304.708 184.266 303.234 181.377C300.449 175.918 295.882 175.089 294.778 182.29C293.692 189.375 295.964 199.907 299.008 205.322C302.163 210.936 305.853 208.946 309.548 205.363C324.504 190.86 324.016 170.247 306.67 192.311Z" fill="#F7B318"/>
<path fill-rule="evenodd" clip-rule="evenodd" d="M173.391 363.714C172.684 362.842 171.573 356.257 170.207 353.579C167.626 348.519 163.393 347.751 162.369 354.426C161.362 360.993 163.469 370.754 166.29 375.773C169.214 380.976 172.634 379.131 176.059 375.811C189.921 362.369 189.469 343.264 173.391 363.714Z" fill="#F7B318"/>
<path fill-rule="evenodd" clip-rule="evenodd" d="M325.725 838.854C324.607 838.766 319.069 835.031 316.188 834.175C310.743 832.558 307.269 835.096 311.399 840.437C315.463 845.693 323.987 850.895 329.568 852.311C335.353 853.778 336.374 850.029 336.329 845.259C336.145 825.952 321.991 813.11 325.725 838.854Z" fill="#F7B318"/>
<path fill-rule="evenodd" clip-rule="evenodd" d="M312.458 117.596C316.815 113.797 319.258 110.456 320.399 105.996C321.129 103.144 322.125 96.1987 321.439 93.9579C312.734 98.9407 308.214 101.942 306.248 111.755C305.794 114.023 304.778 121.253 305.297 123.199L312.458 117.596Z" fill="#F7B318"/>
<path fill-rule="evenodd" clip-rule="evenodd" d="M250.39 295.743C254.825 295.603 257.901 294.805 260.747 292.71C262.566 291.37 266.534 287.727 267.216 286.062C259.621 284.792 255.477 284.379 249.539 289.254C248.167 290.381 244.048 294.183 243.411 295.592L250.39 295.743Z" fill="#F7B318"/>
<path fill-rule="evenodd" clip-rule="evenodd" d="M149.074 429.347C153.596 426.802 156.352 424.311 158.168 420.599C159.329 418.226 161.471 412.304 161.277 410.209C152.718 413.002 148.198 414.815 144.681 423.082C143.869 424.991 141.657 431.161 141.759 432.965L149.074 429.347Z" fill="#F7B318"/>
<path fill-rule="evenodd" clip-rule="evenodd" d="M142.64 774.883C144.969 767.707 145.463 762.327 143.749 756.567C142.653 752.885 139.108 744.44 136.837 742.391C130.433 753.81 127.386 760.203 131.769 772.51C132.781 775.353 136.494 784.131 138.381 785.961L142.64 774.883Z" fill="#F7B318"/>
<path fill-rule="evenodd" clip-rule="evenodd" d="M222.975 883.647C220.092 878.653 217.289 875.62 213.141 873.646C210.489 872.384 203.88 870.077 201.554 870.318C204.763 879.798 206.834 884.799 216.065 888.606C218.198 889.486 225.082 891.869 227.087 891.733L222.975 883.647Z" fill="#F7B318"/>
<path fill-rule="evenodd" clip-rule="evenodd" d="M130.72 1251.45C126.316 1248.39 122.756 1246.95 118.485 1246.93C115.754 1246.92 109.279 1247.59 107.418 1248.72C113.871 1255.42 117.594 1258.81 126.87 1258.36C129.012 1258.25 135.749 1257.53 137.382 1256.62L130.72 1251.45Z" fill="#F7B318"/>
<path fill-rule="evenodd" clip-rule="evenodd" d="M381.992 990.934C379.108 985.939 376.305 982.906 372.157 980.933C369.505 979.671 362.896 977.364 360.571 977.605C363.779 987.084 365.85 992.085 375.082 995.893C377.214 996.773 384.099 999.155 386.103 999.02L381.992 990.934Z" fill="#F7B318"/>
<path fill-rule="evenodd" clip-rule="evenodd" d="M17.6514 540.134C19.6323 535.339 20.2583 531.677 19.3914 527.637C18.8371 525.054 16.8585 519.075 15.4113 517.549C10.41 525.035 7.97919 529.254 10.3255 537.926C10.8674 539.929 12.9432 546.146 14.1389 547.501L17.6514 540.134Z" fill="#F7B318"/>
<path fill-rule="evenodd" clip-rule="evenodd" d="M310.212 375.877C316.74 377.626 321.576 377.816 326.648 376.015C329.891 374.863 337.28 371.298 339.007 369.171C328.493 363.975 322.633 361.547 311.829 366.041C309.332 367.079 301.653 370.81 300.104 372.583L310.212 375.877Z" fill="#F7B318"/>
<path fill-rule="evenodd" clip-rule="evenodd" d="M251.231 47.654C255.656 48.7511 258.942 48.7311 262.402 47.2021C264.615 46.2246 269.662 43.289 270.85 41.6281C263.74 38.0687 259.773 36.4378 252.397 40.1892C250.693 41.0557 245.447 44.126 244.382 45.5143L251.231 47.654Z" fill="#C8E0CA"/>
<path fill-rule="evenodd" clip-rule="evenodd" d="M379.607 271.117C384.274 267.719 383.273 272.02 388.555 268.166C396.187 262.599 405.956 246.47 390.329 244.181C385.649 243.495 380.217 243.389 375.43 245.225C371.075 246.896 372.517 249.273 368.642 249.532C364.396 249.816 365.113 248.994 361.336 246.028C355.048 250.631 368.587 276.772 377.395 278.238C378.471 275.448 375.618 274.022 379.607 271.117Z" fill="#C8E0CA"/>
<path fill-rule="evenodd" clip-rule="evenodd" d="M290.94 63.9866C294.406 65.7074 295.94 66.5831 298.197 69.0043C299.841 70.7671 305.579 77.3522 299.921 77.7396C291.406 78.3227 280.219 73.9106 271.949 84.2162C268.126 88.9804 269.231 90.6007 267.719 92.9622C262.683 93.75 262.799 89.3968 262.72 85.0546C257.606 85.6592 255.726 86.1302 250.469 85.2696C245.739 84.4951 247.143 90.0107 245.489 92.9817C240.332 93.7336 240.3 89.119 239.354 85.0008C233.341 84.8501 228.318 84.7906 224.91 81.3357C221.463 77.8414 222.74 71.362 225.486 68.0385C229.205 63.5363 236.878 63.4253 238.506 65.4419C239.905 67.1749 239.311 70.437 237.2 71.3261C234.608 72.418 231.448 70.8873 229.563 72.9375C228.352 76.0929 231.22 77.2346 234.047 77.5514C244.465 78.7192 238.217 66.9767 250.296 64.4796C255.714 63.3597 262.467 64.1052 267.524 65.5656C271.117 66.6031 276.901 69.3883 281.49 65.7672C282.422 65.0326 281.79 65.6411 282.29 64.8977C281.108 63.8572 278.472 61.6676 279.452 59.514C281.743 58.2243 284.081 60.8509 285.834 61.5351C285.954 58.7219 285.176 55.3235 287.624 54.2857C290.263 55.4243 290.679 60.8969 290.94 63.9866Z" fill="#C8E0CA"/>
<path fill-rule="evenodd" clip-rule="evenodd" d="M28.3473 807.495C31.8133 809.216 33.3474 810.092 35.6047 812.513C37.2482 814.276 42.9867 820.861 37.3291 821.248C28.8141 821.831 17.6271 817.419 9.35702 827.725C5.53375 832.489 6.63908 834.109 5.1269 836.471C0.0906029 837.259 0.206642 832.905 0.127972 828.563C-4.98667 829.168 -6.86679 829.639 -12.1232 828.778C-16.8533 828.004 -15.4491 833.519 -17.1037 836.49C-22.2606 837.242 -22.2926 832.628 -23.2381 828.51C-29.2516 828.359 -34.2745 828.299 -37.6826 824.844C-41.1294 821.35 -39.8523 814.871 -37.1067 811.547C-33.3874 807.045 -25.7141 806.934 -24.0861 808.951C-22.6873 810.684 -23.2814 813.946 -25.3924 814.835C-27.9846 815.927 -31.1439 814.396 -33.0297 816.446C-34.24 819.602 -31.3719 820.743 -28.5451 821.06C-18.1276 822.228 -24.3752 810.485 -12.296 807.988C-6.87829 806.868 -0.124939 807.614 4.93189 809.074C8.52457 810.112 14.3089 812.897 18.8981 809.276C19.8293 808.541 19.1979 809.15 19.6976 808.406C18.5155 807.366 15.8794 805.176 16.8599 803.023C19.1509 801.733 21.4889 804.36 23.2419 805.044C23.362 802.231 22.5835 798.832 25.0318 797.794C27.6708 798.933 28.0865 804.406 28.3473 807.495Z" fill="#C8E0CA"/>
<path fill-rule="evenodd" clip-rule="evenodd" d="M345.308 97.1357C347.451 101.836 347.993 105.548 346.47 109.683C342.267 121.101 330.78 122.902 331.308 116.988C331.484 115.016 334.898 112.458 336.613 110.913C340.409 107.49 343.338 101.829 341.438 98.3586C338.96 101.062 337.729 102.079 334.894 101.218C332.83 100.591 329.844 98.9432 330.948 96.6062C332.128 94.109 335.345 96.8816 336.701 94.2412C337.508 92.6687 336.809 89.7849 335.696 87.9528C327.666 74.7331 313.851 81.9139 311.665 76.6127C311.182 73.7444 314.735 73.2583 316.281 73.3579C318.262 73.4855 320.627 74.0172 321.784 71.2482C320.268 68.3984 317.051 69.121 314.725 67.4234C312.088 65.5002 311.204 62.2067 313.745 60.2075C318.821 56.2131 325.883 67.9495 328.102 64.7392C329.23 61.3175 321.726 59.8759 324.398 56.1566C329.242 54.108 337.035 66.2144 338.752 70.4515C342.215 78.9981 340.707 86.1024 345.1 87.222C347.327 85.5037 345.958 83.8608 347.959 83.0047C351.606 82.4743 351.436 88.8301 351.17 90.3395C350.348 94.9876 348.752 94.814 345.308 97.1357Z" fill="#C8E0CA"/>
<path fill-rule="evenodd" clip-rule="evenodd" d="M297.679 921.702C295.808 928.177 293.191 932.313 288.17 935.115C274.306 942.851 261.401 934.874 266.948 929.466C268.798 927.663 274.353 928.031 277.364 927.957C284.03 927.794 291.742 924.676 292.809 919.625C288.058 920.197 285.974 920.158 283.899 916.896C282.388 914.522 280.831 910.354 283.91 908.977C287.2 907.507 288.029 912.986 291.615 911.523C293.751 910.652 295.509 907.202 295.963 904.442C299.243 884.529 279.461 879.901 281.801 872.795C283.76 869.544 287.692 872.082 289.138 873.494C290.991 875.304 292.881 877.839 296.38 876.081C297.3 871.97 293.5 869.953 292.638 866.295C291.662 862.151 293.584 858.138 297.799 858.317C306.22 858.674 303.241 876.296 308.167 875.003C312.19 872.572 305.985 864.77 311.79 863.356C318.327 865.443 315.759 884.053 313.859 889.708C310.026 901.113 302.497 906.867 305.897 911.708C309.562 911.899 309.602 909.109 312.311 909.961C316.373 912.535 310.805 918.684 309.258 919.952C304.496 923.857 303.063 922.329 297.679 921.702Z" fill="#C8E0CA"/>
<path fill-rule="evenodd" clip-rule="evenodd" d="M83.9156 680.877C85.1579 685.602 86.982 688.645 90.5713 690.763C100.481 696.61 109.971 691.056 106.047 687.041C104.738 685.702 100.707 685.871 98.5265 685.765C93.6987 685.53 88.1658 683.136 87.4813 679.458C90.9137 679.955 92.4241 679.964 93.985 677.636C95.1213 675.942 96.3226 672.949 94.1158 671.898C91.7577 670.775 91.0605 674.73 88.4877 673.608C86.9553 672.939 85.7422 670.409 85.4612 668.401C83.4334 653.914 97.848 650.908 96.2773 645.718C94.915 643.328 92.0215 645.098 90.9488 646.096C89.5743 647.375 88.1606 649.179 85.6561 647.843C85.0617 644.849 87.85 643.454 88.5385 640.818C89.3186 637.833 87.9958 634.891 84.9389 634.947C78.831 635.059 80.6809 647.879 77.1346 646.856C74.2619 645.024 78.8948 639.479 74.7129 638.354C69.9396 639.751 71.4746 653.281 72.7523 657.411C75.3297 665.742 80.6845 670.043 78.1366 673.492C75.4776 673.566 75.4972 671.544 73.5195 672.114C70.531 673.907 74.4579 678.461 75.5563 679.407C78.9388 682.319 80.0038 681.237 83.9156 680.877Z" fill="#C8E0CA"/>
<path fill-rule="evenodd" clip-rule="evenodd" d="M290.677 142.606C290.344 146.302 291.712 148.855 293.914 150.598C296.655 152.769 300.066 151.09 303.419 152.581C310.38 155.679 307.855 172.533 318.353 171.39C321.782 171.016 323.331 168.066 325.016 166.435C329.856 161.749 336.47 161.976 340.895 166.562C342.628 168.359 344.033 170.781 348.111 170.489C351.463 170.248 353.625 167.987 354.635 165.407C358.088 156.579 355.501 140.54 339.587 137.658C331.815 136.251 326.057 137.933 318.772 139.117L316.413 136.601C310.327 131.201 301.782 137.199 297.905 139.755C294.504 141.997 293.301 141.324 290.677 142.606Z" fill="#C8E0CA"/>
<path fill-rule="evenodd" clip-rule="evenodd" d="M-46.7462 323.998C-47.0795 327.694 -45.7112 330.246 -43.5095 331.989C-40.7677 334.16 -37.3568 332.481 -34.0045 333.973C-27.0434 337.07 -29.5685 353.924 -19.0702 352.781C-15.641 352.407 -14.0917 349.457 -12.407 347.826C-7.56675 343.14 -0.953102 343.368 3.47149 347.953C5.20529 349.75 6.60941 352.173 10.6882 351.88C14.04 351.639 16.202 349.379 17.2114 346.798C20.6644 337.971 18.0781 321.931 2.16405 319.049C-5.60807 317.642 -11.3662 319.325 -18.6515 320.509L-21.0104 317.992C-27.0957 312.592 -35.6411 318.591 -39.5184 321.147C-42.9195 323.389 -44.1224 322.716 -46.7462 323.998Z" fill="#C8E0CA"/>
<path fill-rule="evenodd" clip-rule="evenodd" d="M345.171 374.102C344.838 377.798 346.206 380.35 348.408 382.094C351.15 384.265 354.561 382.586 357.913 384.077C364.874 387.175 362.349 404.029 372.847 402.885C376.276 402.512 377.826 399.562 379.51 397.931C384.351 393.245 390.964 393.472 395.389 398.058C397.123 399.855 398.527 402.277 402.605 401.984C405.957 401.744 408.119 399.483 409.129 396.903C412.582 388.075 409.995 372.036 394.081 369.154C386.309 367.747 380.551 369.429 373.266 370.613L370.907 368.097C364.822 362.697 356.276 368.695 352.399 371.251C348.998 373.493 347.795 372.82 345.171 374.102Z" fill="#C8E0CA"/>
<path fill-rule="evenodd" clip-rule="evenodd" d="M306.982 267.778C306.068 262.898 304.866 257.191 307.939 253.021C309.69 253.63 311.237 257.6 311.782 259.726C312.853 263.904 311.211 265.439 310.873 268.703C312.543 270.246 316.087 271.909 315.55 274.964C314.934 278.464 310.778 277.719 307.955 276.899C311.395 281.957 310.174 282.318 308.012 287.458C305.01 294.593 309.179 296.829 309.494 298.737C278.812 300.375 280.928 277.142 290.965 269.138C295.923 265.185 300.844 266.589 306.982 267.778Z" fill="#F7B318"/>
<path fill-rule="evenodd" clip-rule="evenodd" d="M353.704 293.802C352.101 295.252 346.032 294.408 345.237 301.684C354.264 301.697 361.145 303.742 365.132 308.742C376.293 322.738 368.749 344.813 353.326 353.719C350.882 355.131 346.526 357.472 343.991 355.744C343.102 351.159 348.209 344.842 350.145 342.439C352.202 339.887 358.264 333.61 359.229 331.93C350.033 333.388 346.497 333.688 338.748 329.333C321.838 319.83 325.259 294.583 338.035 288.751C340.921 287.433 338.997 287.373 340.655 285.201C341.488 284.11 343.086 283.231 345.135 283.397L345.323 288.129C349.192 288.956 352.683 291.143 353.704 293.802Z" fill="#F7B318"/>
<path fill-rule="evenodd" clip-rule="evenodd" d="M178.751 984.647C175.801 985.921 167.659 981.828 163.058 991.692C175.761 996.03 184.47 1002.2 187.692 1011.15C196.708 1036.2 175.524 1063.67 149.549 1068.83C145.431 1069.64 138.179 1070.86 135.436 1067.21C136.379 1060.33 146.592 1053.88 150.467 1051.42C154.585 1048.81 166.123 1042.88 168.285 1040.97C154.64 1038.62 149.518 1037.36 140.692 1027.52C121.431 1006.04 138.327 972.136 159.106 970.037C163.799 969.564 161.12 968.558 164.494 966.293C166.188 965.156 168.859 964.683 171.664 965.896L169.665 972.65C174.717 975.665 178.584 980.415 178.751 984.647Z" fill="#F7B318"/>
<path fill-rule="evenodd" clip-rule="evenodd" d="M50.839 320.391C49.2527 318.942 46.4131 318.434 44.18 317.395C30.9704 311.253 34.3259 305.191 42.3126 305.416C51.0211 305.661 66.1204 311.708 69.0666 316.701C73.2071 323.72 55.35 331.701 49.2325 333.5C45.1508 334.701 33.6749 335.653 39.5095 328.241C41.5975 325.589 47.4245 321.82 50.839 320.391Z" fill="#F7B318"/>
<path fill-rule="evenodd" clip-rule="evenodd" d="M356.108 625.089C358.037 623.327 361.49 622.71 364.205 621.447C380.266 613.979 376.186 606.608 366.475 606.882C355.887 607.179 337.528 614.532 333.946 620.603C328.911 629.137 350.624 638.841 358.062 641.029C363.025 642.489 376.978 643.646 369.884 634.634C367.345 631.41 360.26 626.827 356.108 625.089Z" fill="#C8E0CA"/>
<path fill-rule="evenodd" clip-rule="evenodd" d="M191.233 1171.03C192.355 1168.67 195.319 1166.79 197.357 1164.6C209.414 1151.63 202.855 1146.34 193.965 1150.25C184.271 1154.53 170.043 1168.26 169.016 1175.23C167.573 1185.04 191.341 1185.83 199.055 1185.05C204.202 1184.53 217.561 1180.34 207.591 1174.67C204.024 1172.64 195.734 1171.07 191.233 1171.03Z" fill="#C8E0CA"/>
<path fill-rule="evenodd" clip-rule="evenodd" d="M244.008 423.59C251.806 428.302 253.783 425.822 264.072 425.705C263.362 441.579 266.651 454.557 284.285 454.793L275.594 436.098C296.689 446.05 304.49 432.282 316.35 423.493C326.941 427.063 325.794 429.337 338.449 427.961C338.707 405.333 324.564 417.774 324.807 406.508C325.008 397.197 326.456 408.35 339.138 392.212C327.322 385.935 327.69 399.386 311.141 390.498C302.191 385.692 307.724 387.351 297.254 385.753C281.363 383.326 265.322 372.04 264.82 402.625C264.444 425.544 248.007 397.929 244.008 423.59Z" fill="#F7B318"/>
<path fill-rule="evenodd" clip-rule="evenodd" d="M282.63 853.936C274.832 858.648 272.855 856.168 262.566 856.051C263.276 871.925 259.987 884.903 242.352 885.139L251.044 866.444C229.949 876.397 222.147 862.628 210.288 853.839C199.697 857.409 200.844 859.683 188.188 858.307C187.931 835.68 202.073 848.12 201.831 836.854C201.63 827.544 200.182 838.696 187.5 822.558C199.316 816.282 198.948 829.732 215.497 820.845C224.446 816.038 218.914 817.697 229.384 816.099C245.274 813.672 261.315 802.386 261.817 832.971C262.194 855.89 278.631 828.275 282.63 853.936Z" fill="#F7B318"/>
<path fill-rule="evenodd" clip-rule="evenodd" d="M222.054 382.789L227.574 397.275C230.65 403.745 226.031 412.618 223.64 412.596C221.249 412.574 221.6 406.655 221.6 406.655C221.188 406.107 223.313 403.314 215.839 404.368C212.608 404.824 208.126 408.337 205.273 410.412C193.333 419.094 200.801 424.981 189.925 430.13C186.568 423.285 189.275 424.517 189.025 416.852C183.224 419.805 188.782 419.287 181.675 417.982C175.965 408.659 172.512 393.415 174.485 393.419C176.459 393.422 181.194 400.024 182.313 399.127C183.432 398.23 189.127 391.27 190.342 392.029C196.185 397.156 189.319 394.983 196.979 397.106C217.562 365.221 203.208 392.753 218.978 375.463C223.47 370.537 225.028 368.118 222.704 365.901C220.379 363.684 211.855 369.691 208.731 376.285C189.511 351.818 242.657 342.907 237.009 369.642C235.449 377.025 227.319 378.031 222.054 382.789Z" fill="#C8E0CA"/>
<path fill-rule="evenodd" clip-rule="evenodd" d="M185.167 1100.19L190.687 1114.67C193.763 1121.14 189.144 1130.01 186.753 1129.99C184.362 1129.97 184.713 1124.05 184.713 1124.05C184.301 1123.5 186.426 1120.71 178.952 1121.76C175.721 1122.22 171.239 1125.73 168.386 1127.81C156.446 1136.49 163.914 1142.38 153.038 1147.53C149.681 1140.68 152.388 1141.91 152.138 1134.25C146.337 1137.2 151.895 1136.68 144.788 1135.38C139.078 1126.06 135.625 1110.81 137.598 1110.81C139.571 1110.82 144.307 1117.42 145.426 1116.52C146.545 1115.63 152.24 1108.67 153.455 1109.43C159.298 1114.55 152.432 1112.38 160.092 1114.5C180.675 1082.62 166.321 1110.15 182.091 1092.86C186.583 1087.93 188.141 1085.51 185.817 1083.3C183.492 1081.08 174.968 1087.09 171.844 1093.68C152.624 1069.21 205.769 1060.3 200.122 1087.04C198.562 1094.42 190.432 1095.43 185.167 1100.19Z" fill="#C8E0CA"/>
<path fill-rule="evenodd" clip-rule="evenodd" d="M-15.9211 605.485C19.5352 604.355 -12.2922 580.054 26.9218 583.203L35.76 598.818C28.2325 609.145 7.39571 616.336 28.5099 628.905C32.4941 622.854 26.6335 630.426 29.8732 623.676C36.4221 610.037 45.913 615.77 51.3933 605.104C57.7441 577.278 38.6809 590.062 55.0033 567.145L65.7724 576.857C86.1585 606.417 77.749 596.74 86.9542 621.499C103.825 606.133 74.2779 566.02 68.8809 547.767C76.9535 536.542 84.4228 536.468 76.3659 519.407C64.2833 512.637 55.0368 518.172 45.7649 525.066C40.9303 498.028 61.5125 459.917 33.939 452.092L38.6065 458.592C43.905 473.65 35.7277 480.555 32.6339 497.998C29.5117 515.599 34.9776 523.077 29.9479 544.017C22.5323 574.889 15.8683 556.816 1.84132 567.771C-8.13079 575.559 -2.55712 576.037 -5.72693 586.872C-11.6981 607.29 -9.64565 591.467 -15.9211 605.485Z" fill="#C8E0CA"/>
<path fill-rule="evenodd" clip-rule="evenodd" d="M410.157 943.541C380.677 942.601 407.14 922.397 374.536 925.015L367.188 937.997C373.446 946.584 390.771 952.563 373.216 963.013C369.903 957.982 374.776 964.277 372.082 958.665C366.637 947.325 358.746 952.092 354.19 943.223C348.91 920.088 364.759 930.718 351.188 911.664L342.235 919.739C325.285 944.316 332.277 936.27 324.624 956.855C310.597 944.079 335.163 910.728 339.65 895.552C332.938 886.22 326.728 886.158 333.427 871.973C343.473 866.344 351.161 870.946 358.869 876.678C362.889 854.198 345.776 822.512 368.702 816.006L364.821 821.41C360.416 833.93 367.215 839.67 369.787 854.173C372.383 868.807 367.838 875.024 372.02 892.434C378.186 918.102 383.726 903.076 395.389 912.184C403.68 918.659 399.046 919.056 401.681 928.065C406.646 945.041 404.939 931.886 410.157 943.541Z" fill="#F7B318"/>
<path fill-rule="evenodd" clip-rule="evenodd" d="M12.2583 490.168C20.1334 498.343 23.8589 493.824 33.5945 492.759C30.1738 498.959 26.5076 500.295 19.9777 502.39C-9.723 495.846 12.6304 479.458 18.3163 471.314C23.4595 463.948 13.2243 441.28 6.37811 436.817C5.70685 444.963 9.16064 444.307 5.34244 451.787C-3.26074 447.881 -12.8537 416.213 -10.9541 409.67C-6.3803 413.012 -5.33362 421.363 -2.36206 426.572C3.04294 421.153 -1.54968 422.065 4.12163 421.443C7.92634 426.841 6.88785 429.07 12.5898 431.499C12.8049 429.791 12.9753 424.306 13.085 422.054C13.5625 412.239 14.3083 420.116 11.1001 412.394C8.80976 406.88 8.1945 399.206 7.69747 392.803C20.7064 394.271 9.3625 393.984 18.7205 389.007L16.9827 406.916C25.9921 405.8 25.4625 391.39 42.2753 389.635C52.7426 399.655 45.3089 402.701 51.238 409.29C60.0648 404.533 59.4769 398.422 59.1483 389.219L69.3798 382.16C69.0915 398.723 69.8874 389.398 63.4858 399.643C61.3339 403.088 60.9065 405.759 58.7812 409.154C52.674 418.915 51.4996 412.708 45.4786 416.076C40.6685 418.767 41.5875 425.929 39.4636 432.308C32.6283 452.835 26.2969 436.938 27.9582 462.662C28.9041 477.305 15.5038 479.414 12.2583 490.168Z" fill="#F7B318"/>
<path fill-rule="evenodd" clip-rule="evenodd" d="M366.757 534.399C368.836 527.648 367.219 526.337 368.959 521.398C370.924 515.822 372.71 516.98 375.46 510.429C359.182 507.288 361.379 518.353 344.227 502.997C325.959 486.643 336.635 492.469 331.305 475.364C317.039 484.196 326.397 483.375 308.8 475.363C297.776 470.343 291.699 469.325 283.137 476.837C286.41 485.587 291.391 490.251 298.343 496.402C314.602 510.785 304.811 502.89 308.969 517.508L320.538 516.359C324.296 524.531 322.571 524.712 329.778 529.65C337.975 521.899 332.692 519.206 348.909 520.818C366.157 522.533 355.051 528.128 366.757 534.399Z" fill="#F7B318"/>
<path fill-rule="evenodd" clip-rule="evenodd" d="M287.61 1185C289.69 1178.25 288.072 1176.94 289.812 1172C291.777 1166.43 293.564 1167.58 296.313 1161.03C280.035 1157.89 282.232 1168.96 265.08 1153.6C246.812 1137.25 257.488 1143.07 252.159 1125.97C237.893 1134.8 247.25 1133.98 229.654 1125.97C218.629 1120.95 212.553 1119.93 203.99 1127.44C207.264 1136.19 212.244 1140.86 219.197 1147.01C235.456 1161.39 225.664 1153.49 229.822 1168.11L241.392 1166.96C245.149 1175.14 243.424 1175.32 250.631 1180.25C258.828 1172.5 253.545 1169.81 269.762 1171.42C287.011 1173.14 275.905 1178.73 287.61 1185Z" fill="#F7B318"/>
<path fill-rule="evenodd" clip-rule="evenodd" d="M68.8503 444.781C61.3601 454.287 56.24 463.697 71.4825 470.152C75.5862 468.95 78.7022 466.349 82.1677 463.727C84.3565 462.071 85.8341 460.335 86.4795 459.823C87.9144 458.683 86.8894 459.271 89.0941 458.142C90.5897 457.377 89.8962 458.509 92.9033 456.695L93.0645 453.001L84.3619 449.969C88.3089 445.14 91.667 442.226 91.0439 435.974C85.4208 434.052 86.6081 435.68 80.9707 435.263C75.0619 434.827 75.376 433.512 72.1018 432.833C61.2169 430.573 67.7256 440.284 68.8503 444.781Z" fill="#C8E0CA"/>
<path fill-rule="evenodd" clip-rule="evenodd" d="M-0.0111303 734.02C-10.9303 747.878 -18.3943 761.596 3.82615 771.007C9.80837 769.254 14.3509 765.461 19.4028 761.639C22.5936 759.226 24.7476 756.695 25.6886 755.948C27.7804 754.287 26.2861 755.144 29.5 753.498C31.6804 752.382 30.6693 754.033 35.053 751.389L35.288 746.003L22.6016 741.583C28.3554 734.544 33.2509 730.296 32.3425 721.182C24.1451 718.379 25.8761 720.753 17.6578 720.146C9.04412 719.51 9.50201 717.593 4.72893 716.602C-11.139 713.309 -1.65061 727.464 -0.0111303 734.02Z" fill="#C8E0CA"/>
<path fill-rule="evenodd" clip-rule="evenodd" d="M382.018 428.796L363.857 427.646C362.982 438.472 372.405 442.363 352.745 444.268C341.378 445.37 332.197 442.444 321.651 447.389C324.806 463.113 346.201 462.921 353.708 464.012C376.966 467.39 378.05 460.643 395.854 458.837C404.972 472.685 395.513 465.858 411.599 479.632C421.36 487.991 417.005 486.26 428.349 486.636C426.755 465.375 413.972 462.506 402.878 449.672C408.691 431.27 429.067 399.095 404.84 386.661L382.018 428.796Z" fill="#C8E0CA"/>
<path fill-rule="evenodd" clip-rule="evenodd" d="M2.89408 945.673L8.87818 928.488C-1.31532 924.738 -7.59369 932.77 -4.15028 913.321C-2.15935 902.075 3.125 894.017 1.19313 882.53C-14.8007 881.347 -20.3608 902.008 -23.4269 908.946C-32.9264 930.443 -26.7183 933.299 -29.7589 950.934C-45.5469 955.999 -36.4305 948.72 -54.0181 960.517C-64.6912 967.675 -61.8546 963.944 -65.2628 974.772C-44.3542 978.945 -38.1586 967.402 -22.8171 960.161C-6.65143 970.701 18.8703 998.969 37.3528 978.971L2.89408 945.673Z" fill="#C8E0CA"/>
<path fill-rule="evenodd" clip-rule="evenodd" d="M297.378 630.975C315.648 617.497 302.12 619.806 312.029 610.249C319.993 602.565 320.715 610.068 333.517 606.926C340.727 593.58 321.174 619.579 349.173 575.475C368.275 545.39 355.782 582.157 375.949 562.852C361.163 547.496 363.751 552.102 347.388 555.71C343.046 544.607 344.579 541.098 334.248 532.545C320.026 544.511 334.884 546.048 319.798 556.792C308.438 564.881 301.925 563.277 296.18 579.947C294.784 584.001 292.978 606.023 293.199 609.809C294.127 625.65 293.634 607.535 297.336 617.729C299.672 624.156 295.742 620.846 297.378 630.975Z" fill="#C8E0CA"/>
<path fill-rule="evenodd" clip-rule="evenodd" d="M185.721 1419.93C206.69 1411.22 193.003 1410.22 204.914 1403.32C214.489 1397.77 213.39 1405.23 226.572 1405.25C236.773 1394.02 211.555 1414.57 249.315 1378.47C275.074 1353.84 254.128 1386.54 278.336 1372.64C267.665 1354.18 269.073 1359.28 252.322 1358.85C250.77 1347.03 253.099 1343.99 245.122 1333.21C228.445 1341.42 242.5 1346.48 225.277 1353.29C212.309 1358.42 206.371 1355.3 196.795 1370.1C194.468 1373.7 187.433 1394.65 186.74 1398.38C183.841 1413.98 187.707 1396.27 188.857 1407.06C189.582 1413.86 186.561 1409.7 185.721 1419.93Z" fill="#C8E0CA"/>
<path fill-rule="evenodd" clip-rule="evenodd" d="M227.622 654.437C223.52 656.082 219.444 658.488 216.615 655.244C214.242 652.524 213.624 648.169 211.207 645.268C208.102 641.54 204.88 645.074 201.558 646.815C194.311 650.612 193.863 639.83 188.198 640.899C181.064 642.245 184.425 651.431 186.78 655.816C195.746 672.507 223.961 685.165 243.519 677.162C252.553 673.464 253.903 667.68 250.043 665.078C244.898 661.611 239.583 670.356 236.451 658.268C235.063 652.91 232.937 652.305 227.622 654.437Z" fill="#F7B318"/>
<path fill-rule="evenodd" clip-rule="evenodd" d="M204.041 1315.87C199.905 1317.42 195.779 1319.74 193.019 1316.44C190.705 1313.67 190.179 1309.3 187.825 1306.35C184.799 1302.56 181.503 1306.02 178.145 1307.69C170.818 1311.33 170.599 1300.54 164.913 1301.49C157.752 1302.69 160.918 1311.94 163.179 1316.38C171.788 1333.25 199.729 1346.51 219.452 1338.92C228.562 1335.42 230.035 1329.66 226.231 1326.98C221.161 1323.4 215.661 1332.03 212.787 1319.88C211.513 1314.5 209.4 1313.85 204.041 1315.87Z" fill="#F7B318"/>
<path fill-rule="evenodd" clip-rule="evenodd" d="M55.1625 645.669L60.9077 665.798C54.4963 672.686 57.9757 667.795 50.9673 673.056C57.4212 681.958 62.6864 688.24 55.0465 697.478C47.1968 693.026 55.888 698.313 49.671 691.298L43.0105 685.096C36.7218 679.769 35.4867 675.715 28.4284 674.328C16.0756 684.856 20.3948 686.723 27.2012 695.719L15.0143 695.65C8.94897 685.812 14.1579 684.201 4.94351 673.882C4.46804 674.594 4.01177 674.864 3.84742 676.204L-0.0128288 692.607C-15.6192 690.878 -7.16513 687.134 -12.8242 676.377C-23.7362 685.546 -16.4379 686.531 -25.1505 690.638C-36.3161 684.61 -30.8464 675.458 -30.304 660.439C-29.877 648.596 -25.695 639.574 -12.5449 637.829C-4.98131 636.826 0.323811 638.601 7.65331 638.686C14.9636 638.77 20.7671 636.507 25.1128 636.994C38.608 638.508 19.9121 642.984 55.1625 645.669Z" fill="#F7B318"/>
<path fill-rule="evenodd" clip-rule="evenodd" d="M288.191 1284.05L285.449 1304.8C276.826 1308.57 281.965 1305.47 273.441 1307.5C275.819 1318.24 278.148 1326.1 267.463 1331.53C262.034 1324.32 267.902 1332.63 264.991 1323.72L261.35 1315.38C257.701 1307.99 258.182 1303.78 252.259 1299.7C236.736 1304.44 239.955 1307.87 242.619 1318.83L231.466 1313.92C229.818 1302.48 235.237 1303.08 230.892 1289.94C230.172 1290.41 229.646 1290.47 228.962 1291.64L218.892 1305.15C205.263 1297.35 214.509 1297.28 213.599 1285.16C199.939 1289.23 206.242 1293.03 196.615 1293.33C188.771 1283.36 197.432 1277.14 203.908 1263.58C209.013 1252.89 216.441 1246.27 229.199 1249.91C236.537 1252 240.697 1255.74 247.387 1258.73C254.06 1261.72 260.284 1261.95 264.077 1264.13C275.854 1270.89 256.922 1267.55 288.191 1284.05Z" fill="#F7B318"/>
<path fill-rule="evenodd" clip-rule="evenodd" d="M24 1003.6L35.6303 1003.12C34.3175 1025.93 42.8871 1003.21 37.2886 1021.41C32.8905 1035.7 32.3506 1043.32 43.457 1053.28C45.5748 1055.18 45.1327 1054.29 47.2741 1056.62C54.0992 1064.04 55.3586 1073.03 68.7997 1070.19C74.8846 1060.7 71.014 1061.31 64.8866 1057.54C82.5292 1051.19 95.0597 1050.03 94.0089 1027.65C73.6871 1027.77 67.5686 1041.14 56.8215 1037.2C53.8977 1020.24 61.0592 1026.4 67.1261 1025.93C78.9909 1025 77.7278 1020.36 81.7514 1012.15C96.1655 1014.57 104.144 1020.73 103.787 1036.82C103.373 1055.48 90.4343 1057.75 87.9545 1065.13C129.465 1062.82 116.676 974.292 56.5978 1002.06C29.4607 1014.6 56.5506 978.069 24 1003.6Z" fill="#C8E0CA"/>
<path fill-rule="evenodd" clip-rule="evenodd" d="M377.797 778.374C377.002 784.849 363.56 791.588 356.344 793.835C353.002 794.875 349.189 795.351 346.355 796.349L374.092 796.072C373.304 804.387 366.083 806.825 357.234 806.808C348.054 806.791 338.935 806.367 329.759 806.374C319.169 806.383 314.59 806.309 311.373 797.666C307.247 786.576 310.922 785.58 297.864 782.975C298.975 780.753 300.059 781.008 302.489 779.98C309.184 777.145 312.44 779.322 316.64 786.358C319.01 790.328 322.915 791.295 325.544 787.52C330.189 780.85 330.589 767.948 354.762 770.958C363.41 772.035 368.539 776.668 377.797 778.374Z" fill="#C8E0CA"/>
<path fill-rule="evenodd" clip-rule="evenodd" d="M276.733 764.925C275.606 782.724 281.257 785.206 277.762 804.223C232.122 785.301 286.705 772.259 190.875 763.606C188.085 793.548 196.43 763.63 186.451 784.627C186.146 785.268 185.447 786.548 184.737 787.354C176.712 775.382 175.698 760.531 168.706 752.342C163.798 746.594 147.436 735.934 139.256 726.966C122.6 708.708 106.008 673.499 116.778 650.865C151.321 650.475 253.481 724.493 301.351 712.575C315.862 676.836 252.61 672.358 266.569 634.317C288.558 635.719 308.827 639.055 311.42 662.957C317.234 643.751 340.171 650.363 354.938 656.279C344.035 672.893 336.288 702.955 326.063 724.063C308.936 759.423 300.727 749.272 276.733 764.925Z" fill="#F7B318"/>
</svg>
