<svg width="375" height="1451" viewBox="0 0 375 1451" fill="none" xmlns="http://www.w3.org/2000/svg">
<path fill-rule="evenodd" clip-rule="evenodd" d="M224.889 262.58C223.324 263.968 219.021 266.634 224.126 267.568C224.534 267.642 226.134 267.698 226.594 267.7C228.717 267.705 229.638 267.802 231.104 267.103C234.014 261.934 232.685 239.996 235.453 235.692C237.711 238.536 239.694 242.601 241.761 245.528C243.927 248.595 248.082 251.656 249.4 254.284C240.976 254.655 233.829 257.605 236.148 267.518C241.503 267.51 244.943 262.95 257.089 266.771C264.627 269.141 271.216 270.88 279.29 267.203C285.081 264.565 289.152 260.223 291.541 253.557C293.723 247.469 295.24 237.969 294.821 230.965C293.64 211.214 277.749 192.886 272.181 176.551C270.079 170.383 269.814 160.941 266.379 156.548C243.311 151.238 268.692 196.07 271.361 200.753C275.274 207.62 279.962 215.363 281.999 224.292C283.866 232.479 283.828 248.74 279.688 255.212C275.99 253.066 275.467 245.101 274.588 240.529C273.541 235.087 272.484 229.74 271.084 224.411C268.279 213.738 264.309 204.84 259.948 195.723C252.15 179.417 237.936 160.308 222.36 153.706C221.895 141.083 212.69 151.514 210.214 152.11C200.461 154.461 201.636 156.245 195.688 160.896C188.426 166.573 190.999 173.139 197.589 173.881C206.403 174.873 209.537 174.888 212.337 182.692C217.512 197.114 208.683 206.616 221.942 219.179C224.067 221.191 224.896 257.536 224.889 262.58Z" fill="#C8E0CA"/>
<path fill-rule="evenodd" clip-rule="evenodd" d="M92.6658 784.421C93.6488 785.294 96.3534 786.968 93.1453 787.555C92.8886 787.602 91.8834 787.638 91.5939 787.638C90.2597 787.641 89.6811 787.703 88.76 787.263C86.9314 784.015 87.7666 770.229 86.0273 767.524C84.608 769.312 83.3621 771.866 82.0628 773.705C80.7017 775.633 78.091 777.556 77.2624 779.208C82.556 779.441 87.0474 781.294 85.5901 787.524C82.2251 787.519 80.0635 784.654 72.4308 787.054C67.6941 788.544 63.5533 789.637 58.4797 787.326C54.8403 785.669 52.2822 782.94 50.7806 778.751C49.4094 774.925 48.456 768.955 48.7193 764.554C49.4619 752.142 59.4479 740.625 62.9467 730.36C64.2678 726.484 64.4343 720.55 66.5927 717.79C81.0888 714.453 65.1394 742.625 63.4623 745.568C61.0031 749.884 58.0569 754.75 56.7773 760.361C55.604 765.505 55.6279 775.724 58.2293 779.791C60.5533 778.442 60.8818 773.437 61.4343 770.564C62.0919 767.144 62.7562 763.784 63.6362 760.435C65.3986 753.728 67.8937 748.137 70.6339 742.407C75.5343 732.161 84.4669 720.152 94.2549 716.003C94.547 708.071 100.331 714.626 101.887 715.001C108.016 716.478 107.278 717.599 111.016 720.522C115.579 724.09 113.963 728.215 109.821 728.682C104.282 729.305 102.313 729.315 100.553 734.219C97.301 743.281 102.85 749.253 94.5172 757.147C93.182 758.412 92.6613 781.251 92.6658 784.421Z" fill="#C8E0CA"/>
<path fill-rule="evenodd" clip-rule="evenodd" d="M187.849 1272.91C188.832 1273.79 191.537 1275.46 188.329 1276.05C188.072 1276.1 187.067 1276.13 186.777 1276.13C185.443 1276.13 184.865 1276.2 183.944 1275.76C182.115 1272.51 182.95 1258.72 181.211 1256.02C179.791 1257.81 178.546 1260.36 177.246 1262.2C175.885 1264.13 173.275 1266.05 172.446 1267.7C177.74 1267.93 182.231 1269.79 180.774 1276.02C177.409 1276.01 175.247 1273.15 167.614 1275.55C162.878 1277.04 158.737 1278.13 153.663 1275.82C150.024 1274.16 147.466 1271.43 145.964 1267.24C144.593 1263.42 143.64 1257.45 143.903 1253.05C144.645 1240.64 154.631 1229.12 158.13 1218.85C159.451 1214.98 159.618 1209.04 161.776 1206.28C176.272 1202.95 160.323 1231.12 158.646 1234.06C156.187 1238.38 153.24 1243.24 151.961 1248.85C150.788 1254 150.811 1264.22 153.413 1268.28C155.737 1266.94 156.065 1261.93 156.618 1259.06C157.275 1255.64 157.94 1252.28 158.82 1248.93C160.582 1242.22 163.077 1236.63 165.817 1230.9C170.718 1220.65 179.65 1208.65 189.438 1204.5C189.731 1196.56 195.515 1203.12 197.071 1203.49C203.2 1204.97 202.461 1206.09 206.199 1209.02C210.763 1212.58 209.146 1216.71 205.005 1217.18C199.466 1217.8 197.496 1217.81 195.737 1222.71C192.485 1231.77 198.033 1237.75 189.701 1245.64C188.366 1246.91 187.845 1269.74 187.849 1272.91Z" fill="#C8E0CA"/>
<path fill-rule="evenodd" clip-rule="evenodd" d="M43.0122 247.459C48.5821 248.442 50.5599 246.423 54.7456 249.56C56.6895 263.397 41.3429 270.833 54.8376 290.297C64.374 304.052 85.6206 298.64 95.2441 299.473C103.136 311.337 92.4639 329.106 76.3783 337.424C64.2563 343.692 49.2571 342.31 38.782 362.071C35.7736 367.747 31.8383 382.708 40.8884 383.669C47.3236 384.353 49.0582 371.848 59.1845 370.909C67.8801 370.104 72.7259 376.477 86.323 374.572C112.688 370.878 125.437 346.79 126.708 320.884C128.007 294.411 118.493 268.568 94.4822 259.593C80.5045 254.367 80.8361 258.836 76.5733 246.379C73.6606 237.868 70.1843 232.162 59.1658 232.543C54.0799 232.719 51.1116 235.365 48.6468 237.912C46.8607 239.757 42.4073 244.282 43.0122 247.459Z" fill="#C8E0CA"/>
<path fill-rule="evenodd" clip-rule="evenodd" d="M144.72 1180.64C139.15 1181.62 137.172 1179.6 132.987 1182.74C131.043 1196.57 146.389 1204.01 132.895 1223.47C123.358 1237.23 102.112 1231.82 92.4881 1232.65C84.5961 1244.51 95.2683 1262.28 111.354 1270.6C123.476 1276.87 138.475 1275.49 148.95 1295.25C151.959 1300.92 155.894 1315.88 146.844 1316.85C140.409 1317.53 138.674 1305.02 128.548 1304.09C119.852 1303.28 115.006 1309.65 101.409 1307.75C75.0441 1304.05 62.2952 1279.97 61.0239 1254.06C59.7249 1227.59 69.2388 1201.74 93.25 1192.77C107.228 1187.54 106.896 1192.01 111.159 1179.56C114.072 1171.04 117.548 1165.34 128.566 1165.72C133.652 1165.89 136.621 1168.54 139.085 1171.09C140.872 1172.93 145.325 1177.46 144.72 1180.64Z" fill="#C8E0CA"/>
<path fill-rule="evenodd" clip-rule="evenodd" d="M399.618 676.866C396.013 677.502 394.734 676.195 392.025 678.225C390.767 687.179 400.698 691.99 391.966 704.585C385.795 713.486 372.046 709.984 365.819 710.523C360.712 718.2 367.618 729.698 378.027 735.081C385.871 739.137 395.577 738.242 402.355 751.03C404.302 754.702 406.848 764.383 400.992 765.005C396.828 765.448 395.705 757.356 389.153 756.749C383.526 756.227 380.39 760.351 371.592 759.119C354.531 756.728 346.282 741.141 345.459 724.378C344.619 707.247 350.775 690.525 366.312 684.717C375.357 681.336 375.142 684.227 377.901 676.167C379.786 670.659 382.035 666.967 389.165 667.214C392.456 667.327 394.377 669.039 395.972 670.688C397.127 671.882 400.009 674.81 399.618 676.866Z" fill="#C8E0CA"/>
<path fill-rule="evenodd" clip-rule="evenodd" d="M208.031 308.78C218.511 304.394 213.121 323.126 223.57 315.916C233.901 308.788 220.995 289.869 204.883 291.298C188.291 292.77 185.364 309.386 171.19 308.255C163.349 307.629 159.297 303.589 149.41 305.781C122.486 311.749 130.762 354.617 138.754 356.214C150.107 358.482 133.446 332.69 154.714 334.425C158.487 334.733 160.804 336.704 163.496 338.299C172.561 343.667 174.87 338.832 181.639 336.026C189.897 332.603 196.218 337.538 194.22 346.108C193.505 349.175 190.383 353.336 194.878 354.533C198.513 355.501 201.035 351.646 202.222 349.579C213.483 329.974 199.109 312.515 208.031 308.78Z" fill="#F7B318"/>
<path fill-rule="evenodd" clip-rule="evenodd" d="M252.163 3.50028C224.629 6.28301 223.044 32.0889 237.165 25.7257C245.211 22.0999 249.337 20.2177 260.231 21.8044C266.562 22.7264 277.784 28.0224 283.78 25.2927C287.627 23.5416 288.721 19.4583 290.854 18.3831C293.841 16.877 297.828 18.4506 301.788 15.2865C305.2 12.5606 304.234 8.12908 299.294 7.72741C289.844 6.95897 280.907 26.4103 272.089 10.9711C268.117 4.01737 262.406 2.46505 252.163 3.50028Z" fill="#F7B318"/>
<path fill-rule="evenodd" clip-rule="evenodd" d="M138.751 401.082C147.482 374.822 124.585 362.813 124.611 378.302C124.626 387.127 124.655 391.661 118.748 400.952C115.316 406.351 105.89 414.423 105.927 421.011C105.95 425.237 109.228 427.907 109.336 430.293C109.487 433.635 106.42 436.628 107.686 441.537C108.776 445.765 113.215 446.698 115.604 442.355C120.173 434.047 106.083 417.932 123.779 416.205C131.75 415.427 135.503 410.852 138.751 401.082Z" fill="#F7B318"/>
<path fill-rule="evenodd" clip-rule="evenodd" d="M161.662 801.33C184.178 817.419 172.738 840.605 163.642 828.069C158.459 820.926 155.812 817.244 145.568 813.21C139.616 810.867 127.245 809.89 123.396 804.543C120.927 801.113 122.005 797.026 120.688 795.033C118.843 792.242 114.601 791.629 112.735 786.915C111.127 782.855 114.167 779.488 118.654 781.593C127.238 785.619 125.335 806.94 140.656 797.919C147.557 793.856 153.285 795.344 161.662 801.33Z" fill="#F7B318"/>
<path fill-rule="evenodd" clip-rule="evenodd" d="M248.9 1225.9C217.662 1228.08 210.939 1199.61 227.908 1204C237.577 1206.49 242.539 1207.8 254.383 1203.94C261.265 1201.69 272.763 1193.63 279.974 1195.53C284.6 1196.74 286.604 1201.08 289.189 1201.87C292.81 1202.98 296.953 1200.46 301.977 1203.23C306.305 1205.61 306.079 1210.74 300.647 1212.14C290.257 1214.81 276.556 1194.83 269.686 1213.74C266.592 1222.26 260.522 1225.09 248.9 1225.9Z" fill="#F7B318"/>
<path fill-rule="evenodd" clip-rule="evenodd" d="M149.846 224.673C146.415 224.894 129.564 222.481 126.661 227.494C127.994 231.865 137.197 233.535 140.968 233.915C145.117 234.333 151.711 233.235 156.804 230.318C162.952 226.797 166.535 221.551 167.666 216.187C168.814 210.739 166.214 206.013 161.819 200.048C165.111 197.452 168.16 199.278 171.017 201.537C173.008 198.905 170.845 194.169 170.636 192.945L173.4 190.488C171.109 186.823 168.586 189.757 166.493 188.827C158.55 185.3 149.944 188.87 144.323 196.042C139.11 202.693 139.494 211.107 143.53 217.998C145.587 221.511 147.349 222.273 149.846 224.673Z" fill="#F7B318"/>
<path fill-rule="evenodd" clip-rule="evenodd" d="M244.008 308.92C244.475 311.86 249.198 311.486 249.216 320.699C249.236 331.4 241.573 340.802 254.871 351.251C256.475 352.512 258.056 352.905 258.107 355.513C257.172 359.253 245.58 359.003 245.58 375.072C245.58 376.869 245.385 378.004 246.298 379.326C248.926 378.369 249.103 373.949 255.272 373.324C261.024 372.741 264.332 374.94 265.621 368.664C266.48 364.479 265.685 358.858 272.033 360.26C277.329 361.429 277.696 363.334 285.035 362.509C293.187 361.594 301.111 357.041 305.404 352.819C308.145 350.124 309.565 347.192 312.114 344.271C313.201 343.025 314.521 341.899 316.46 341.213C318.708 340.417 321.396 340.852 323.303 340.232C322.734 336.267 312.915 333.37 307.75 334.04C300.619 334.966 295.576 339.772 291.905 340.42C291.911 337.461 292.431 332.783 293.574 330.432C295.847 325.753 298.633 326.246 300.915 326.043C301.456 319.265 285.117 311.538 277.149 315.125C277.832 318.595 281.352 315.582 277.854 325.625C276.462 329.62 274.949 331.487 270.121 331.748C269.403 325.405 266.569 318.889 263.306 315.419C257.88 309.649 246.349 306.53 244.008 308.92Z" fill="#C8E0CA"/>
<path fill-rule="evenodd" clip-rule="evenodd" d="M181.434 899.096C184.371 899.581 183.97 904.302 193.182 904.373C203.883 904.455 213.33 896.847 223.7 910.206C224.952 911.818 225.337 913.401 227.944 913.467C231.689 912.554 231.507 900.96 247.575 901.054C249.373 901.065 250.509 900.876 251.825 901.797C250.853 904.42 246.432 904.571 245.771 910.736C245.154 916.484 247.334 919.806 241.051 921.058C236.861 921.892 231.245 921.065 232.609 927.42C233.747 932.723 235.65 933.101 234.783 940.436C233.82 948.582 229.221 956.479 224.974 960.748C222.263 963.473 219.323 964.876 216.387 967.407C215.134 968.488 214.001 969.801 213.303 971.736C212.495 973.979 212.914 976.669 212.283 978.572C208.321 977.981 205.481 968.145 206.182 962.984C207.149 955.858 211.984 950.843 212.654 947.176C209.695 947.165 205.013 947.658 202.656 948.787C197.964 951.033 198.441 953.822 198.224 956.102C191.443 956.604 183.811 940.22 187.445 932.273C190.912 932.977 187.878 936.479 197.941 933.039C201.944 931.671 203.82 930.169 204.109 925.342C197.77 924.587 191.271 921.715 187.82 918.432C182.082 912.973 179.03 901.423 181.434 899.096Z" fill="#C8E0CA"/>
<path fill-rule="evenodd" clip-rule="evenodd" d="M212.25 18.224C214.321 11.5947 214.405 4.09503 206.799 2.3048C203.126 1.44045 198.666 2.46301 195.287 2.97878C187.56 4.15788 188.21 1.62677 184.083 0.732317C182.831 11.7881 189.175 24.8782 202.772 18.6114C202.028 21.2801 200.946 23.3824 202.541 26.0263C206.784 26.4238 210.493 25.2298 211.557 22.4035C214.567 23.1124 219.309 24.2679 220.099 21.3614C221.287 16.9956 215.505 17.6901 212.25 18.224Z" fill="#C8E0CA"/>
<path fill-rule="evenodd" clip-rule="evenodd" d="M282.583 108.53C275.773 108.171 273.173 106.396 263.448 107.455C257.606 108.091 251.569 109.983 248.077 112.979C238.183 121.468 245.343 145.185 249.866 143.156C251.757 141.209 250.503 136.487 251.985 134.042L252.592 135.388C252.773 135.93 252.84 136.248 253.004 136.766C253.434 138.121 256.161 144.748 258.014 142.886C259.545 140.572 249.611 127.377 262.877 127.326C275.861 127.277 267.014 138.963 267.761 142.91C271.328 143.331 272.291 137.347 273.473 135.556C274.66 137.759 273.743 141.191 275.555 143.175C279.607 143.257 280.596 133.808 282.731 128.262C287.708 115.329 290.996 128.431 295.722 123.703C300.468 118.955 288.611 115.814 288.324 110.826C288.089 106.74 291.673 102.581 294.217 100.1C295.387 98.9589 296.219 97.8253 294.386 96.8141C290.523 95.9163 287.588 105.301 284.324 103.326C281.42 100.674 293.417 92.9904 293.211 90.8773C293.104 89.7771 292.095 89.3692 290.849 89.7279C289.317 90.169 282.668 97.1728 281.487 98.5765C276.967 103.949 281.321 105.494 282.583 108.53Z" fill="#F7B318"/>
<path fill-rule="evenodd" clip-rule="evenodd" d="M352.16 1128.05C345.349 1127.7 342.75 1125.92 333.025 1126.98C327.183 1127.61 321.146 1129.51 317.654 1132.5C307.76 1140.99 314.92 1164.71 319.443 1162.68C321.334 1160.73 320.08 1156.01 321.561 1153.57L322.169 1154.91C322.35 1155.45 322.417 1155.77 322.581 1156.29C323.011 1157.65 325.738 1164.27 327.591 1162.41C329.122 1160.1 319.188 1146.9 332.454 1146.85C345.438 1146.8 336.591 1158.49 337.338 1162.43C340.905 1162.85 341.868 1156.87 343.05 1155.08C344.237 1157.28 343.32 1160.72 345.132 1162.7C349.184 1162.78 350.173 1153.33 352.308 1147.79C357.285 1134.85 360.573 1147.95 365.299 1143.23C370.045 1138.48 358.188 1135.34 357.901 1130.35C357.666 1126.26 361.25 1122.1 363.793 1119.62C364.964 1118.48 365.796 1117.35 363.963 1116.34C360.1 1115.44 357.165 1124.83 353.901 1122.85C350.996 1120.2 362.994 1112.51 362.788 1110.4C362.68 1109.3 361.672 1108.89 360.426 1109.25C358.894 1109.69 352.245 1116.7 351.064 1118.1C346.544 1123.47 350.898 1125.02 352.16 1128.05Z" fill="#F7B318"/>
<path fill-rule="evenodd" clip-rule="evenodd" d="M339.591 264.974C360.477 247.544 357.369 202.999 336.626 192.463C332.935 190.588 326.871 192.898 328.688 198.168C330.237 202.663 333.706 205.891 329.715 209.361C326.198 212.421 321.143 213.877 323.724 218.678C325.67 222.299 330.573 224.99 331.58 229.059C332.486 232.722 328.346 235.65 325.633 238.388C314.832 249.286 333.905 247.25 329.624 257.207C328.434 259.974 324.646 263.902 328.294 267.175C331.798 270.319 335.823 268.119 339.591 264.974Z" fill="#C8E0CA"/>
<path fill-rule="evenodd" clip-rule="evenodd" d="M306.368 37.3455C304.072 36.4156 300.541 37.1861 295.408 35.4814C289.247 33.4354 287.883 29.7709 294.777 27.9473C301.168 26.2565 312.226 26.2117 318.141 28.377C333.702 34.0734 297.046 60.9685 297.984 48.5908C298.254 45.0335 303.315 40.3496 306.368 37.3455Z" fill="#F7B318"/>
<path fill-rule="evenodd" clip-rule="evenodd" d="M221.934 41.4585C220.853 41.0207 219.191 41.3834 216.774 40.5809C213.874 39.6177 213.232 37.8926 216.477 37.0341C219.486 36.2381 224.692 36.217 227.477 37.2364C234.802 39.9181 217.546 52.5795 217.987 46.7524C218.114 45.0777 220.497 42.8727 221.934 41.4585Z" fill="#F7B318"/>
<path fill-rule="evenodd" clip-rule="evenodd" d="M193.297 227.702C194.087 226.433 193.994 224.255 195.538 221.381C197.392 217.931 199.71 217.5 200.081 221.785C200.425 225.758 199.307 232.335 197.409 235.626C192.414 244.284 180.223 219.718 187.481 221.556C189.567 222.084 191.827 225.576 193.297 227.702Z" fill="#F7B318"/>
<path fill-rule="evenodd" clip-rule="evenodd" d="M176.504 1430.71C178.588 1430.53 181.236 1428.37 185.8 1427.64C191.278 1426.76 193.302 1429.3 188.213 1433.8C183.495 1437.97 174.603 1442.72 169.293 1443.39C155.324 1445.16 178.037 1406.57 180.411 1417.54C181.093 1420.69 178.203 1426.85 176.504 1430.71Z" fill="#F7B318"/>
<path fill-rule="evenodd" clip-rule="evenodd" d="M133.96 257.531C134.755 264.005 148.197 270.745 155.413 272.991C158.755 274.032 162.568 274.508 165.402 275.505L137.665 275.229C138.453 283.544 145.674 285.982 154.523 285.965C163.703 285.948 172.822 285.524 181.998 285.531C192.588 285.539 197.167 285.466 200.384 276.823C204.511 265.733 200.835 264.736 213.893 262.131C212.782 259.909 211.698 260.165 209.269 259.136C202.573 256.301 199.318 258.479 195.117 265.514C192.747 269.485 188.842 270.452 186.213 266.677C181.568 260.007 181.169 247.105 156.995 250.115C148.347 251.192 143.218 255.825 133.96 257.531Z" fill="#C8E0CA"/>
<path fill-rule="evenodd" clip-rule="evenodd" d="M306.67 192.311C305.906 191.371 304.708 184.266 303.234 181.377C300.449 175.918 295.882 175.089 294.778 182.29C293.692 189.375 295.964 199.907 299.008 205.322C302.163 210.936 305.853 208.946 309.548 205.363C324.504 190.86 324.016 170.247 306.67 192.311Z" fill="#F7B318"/>
<path fill-rule="evenodd" clip-rule="evenodd" d="M173.391 363.714C172.684 362.842 171.573 356.257 170.207 353.579C167.626 348.519 163.393 347.751 162.369 354.426C161.362 360.993 163.469 370.754 166.29 375.773C169.214 380.976 172.634 379.131 176.059 375.811C189.921 362.369 189.469 343.264 173.391 363.714Z" fill="#F7B318"/>
<path fill-rule="evenodd" clip-rule="evenodd" d="M325.725 838.854C324.607 838.766 319.069 835.031 316.188 834.175C310.743 832.558 307.269 835.096 311.399 840.437C315.463 845.693 323.987 850.895 329.568 852.311C335.353 853.778 336.374 850.029 336.329 845.259C336.145 825.952 321.991 813.11 325.725 838.854Z" fill="#F7B318"/>
<path fill-rule="evenodd" clip-rule="evenodd" d="M312.458 117.596C316.815 113.797 319.258 110.456 320.399 105.996C321.129 103.144 322.125 96.1987 321.439 93.9579C312.734 98.9407 308.214 101.942 306.248 111.755C305.794 114.023 304.778 121.253 305.297 123.199L312.458 117.596Z" fill="#F7B318"/>
<path fill-rule="evenodd" clip-rule="evenodd" d="M250.39 295.743C254.825 295.603 257.901 294.805 260.747 292.71C262.566 291.37 266.534 287.727 267.216 286.062C259.621 284.792 255.477 284.379 249.539 289.254C248.167 290.381 244.048 294.183 243.411 295.592L250.39 295.743Z" fill="#F7B318"/>
<path fill-rule="evenodd" clip-rule="evenodd" d="M149.074 429.347C153.596 426.802 156.352 424.311 158.168 420.599C159.329 418.226 161.471 412.304 161.277 410.209C152.718 413.002 148.198 414.815 144.681 423.082C143.869 424.991 141.657 431.161 141.759 432.965L149.074 429.347Z" fill="#F7B318"/>
<path fill-rule="evenodd" clip-rule="evenodd" d="M142.64 774.883C144.969 767.707 145.463 762.327 143.749 756.567C142.653 752.885 139.108 744.44 136.837 742.391C130.433 753.81 127.386 760.203 131.769 772.51C132.781 775.353 136.494 784.131 138.381 785.961L142.64 774.883Z" fill="#F7B318"/>
<path fill-rule="evenodd" clip-rule="evenodd" d="M222.975 883.647C220.092 878.653 217.289 875.62 213.141 873.646C210.489 872.384 203.88 870.077 201.554 870.318C204.763 879.798 206.834 884.799 216.065 888.606C218.198 889.486 225.082 891.869 227.087 891.733L222.975 883.647Z" fill="#F7B318"/>
<path fill-rule="evenodd" clip-rule="evenodd" d="M130.72 1251.45C126.316 1248.39 122.756 1246.95 118.485 1246.93C115.754 1246.92 109.279 1247.59 107.418 1248.72C113.871 1255.42 117.594 1258.81 126.87 1258.36C129.012 1258.25 135.749 1257.53 137.382 1256.62L130.72 1251.45Z" fill="#F7B318"/>
<path fill-rule="evenodd" clip-rule="evenodd" d="M381.992 990.934C379.108 985.939 376.305 982.906 372.157 980.933C369.505 979.671 362.896 977.364 360.571 977.605C363.779 987.084 365.85 992.085 375.082 995.893C377.214 996.773 384.099 999.155 386.103 999.02L381.992 990.934Z" fill="#F7B318"/>
<path fill-rule="evenodd" clip-rule="evenodd" d="M17.6514 540.134C19.6323 535.339 20.2583 531.677 19.3914 527.637C18.8371 525.054 16.8585 519.075 15.4113 517.549C10.41 525.035 7.97919 529.254 10.3255 537.926C10.8674 539.929 12.9432 546.146 14.1389 547.501L17.6514 540.134Z" fill="#F7B318"/>
<path fill-rule="evenodd" clip-rule="evenodd" d="M310.212 375.877C316.74 377.626 321.576 377.816 326.648 376.015C329.891 374.863 337.28 371.298 339.007 369.171C328.493 363.975 322.633 361.547 311.829 366.041C309.332 367.079 301.653 370.81 300.104 372.583L310.212 375.877Z" fill="#F7B318"/>
<path fill-rule="evenodd" clip-rule="evenodd" d="M251.231 47.654C255.656 48.7511 258.942 48.7311 262.402 47.2021C264.615 46.2246 269.662 43.289 270.85 41.6281C263.74 38.0687 259.773 36.4378 252.397 40.1892C250.693 41.0557 245.447 44.126 244.382 45.5143L251.231 47.654Z" fill="#C8E0CA"/>
<path fill-rule="evenodd" clip-rule="evenodd" d="M379.607 271.117C384.274 267.719 383.273 272.02 388.555 268.166C396.187 262.599 405.956 246.47 390.329 244.181C385.649 243.495 380.217 243.389 375.43 245.225C371.075 246.896 372.517 249.273 368.642 249.532C364.396 249.816 365.113 248.994 361.336 246.028C355.048 250.631 368.587 276.772 377.395 278.238C378.471 275.448 375.618 274.022 379.607 271.117Z" fill="#C8E0CA"/>
<path fill-rule="evenodd" clip-rule="evenodd" d="M290.94 63.9866C294.406 65.7074 295.94 66.5831 298.197 69.0043C299.841 70.7671 305.579 77.3522 299.921 77.7396C291.406 78.3227 280.219 73.9106 271.949 84.2162C268.126 88.9804 269.231 90.6007 267.719 92.9622C262.683 93.75 262.799 89.3968 262.72 85.0546C257.606 85.6592 255.726 86.1302 250.469 85.2696C245.739 84.4951 247.143 90.0107 245.489 92.9817C240.332 93.7336 240.3 89.119 239.354 85.0008C233.341 84.8501 228.318 84.7906 224.91 81.3357C221.463 77.8414 222.74 71.362 225.486 68.0385C229.205 63.5363 236.878 63.4253 238.506 65.4419C239.905 67.1749 239.311 70.437 237.2 71.3261C234.608 72.418 231.448 70.8873 229.563 72.9375C228.352 76.0929 231.22 77.2346 234.047 77.5514C244.465 78.7192 238.217 66.9767 250.296 64.4796C255.714 63.3597 262.467 64.1052 267.524 65.5656C271.117 66.6031 276.901 69.3883 281.49 65.7672C282.422 65.0326 281.79 65.6411 282.29 64.8977C281.108 63.8572 278.472 61.6676 279.452 59.514C281.743 58.2243 284.081 60.8509 285.834 61.5351C285.954 58.7219 285.176 55.3235 287.624 54.2857C290.263 55.4243 290.679 60.8969 290.94 63.9866Z" fill="#C8E0CA"/>
<path fill-rule="evenodd" clip-rule="evenodd" d="M28.3473 807.495C31.8133 809.216 33.3474 810.092 35.6047 812.513C37.2482 814.276 42.9867 820.861 37.3291 821.248C28.8141 821.831 17.6271 817.419 9.35702 827.725C5.53375 832.489 6.63908 834.109 5.1269 836.471C0.0906029 837.259 0.206642 832.905 0.127972 828.563C-4.98667 829.168 -6.86679 829.639 -12.1232 828.778C-16.8533 828.004 -15.4491 833.519 -17.1037 836.49C-22.2606 837.242 -22.2926 832.628 -23.2381 828.51C-29.2516 828.359 -34.2745 828.299 -37.6826 824.844C-41.1294 821.35 -39.8523 814.871 -37.1067 811.547C-33.3874 807.045 -25.7141 806.934 -24.0861 808.951C-22.6873 810.684 -23.2814 813.946 -25.3924 814.835C-27.9846 815.927 -31.1439 814.396 -33.0297 816.446C-34.24 819.602 -31.3719 820.743 -28.5451 821.06C-18.1276 822.228 -24.3752 810.485 -12.296 807.988C-6.87829 806.868 -0.124939 807.614 4.93189 809.074C8.52457 810.112 14.3089 812.897 18.8981 809.276C19.8293 808.541 19.1979 809.15 19.6976 808.406C18.5155 807.366 15.8794 805.176 16.8599 803.023C19.1509 801.733 21.4889 804.36 23.2419 805.044C23.362 802.231 22.5835 798.832 25.0318 797.794C27.6708 798.933 28.0865 804.406 28.3473 807.495Z" fill="#C8E0CA"/>
<path fill-rule="evenodd" clip-rule="evenodd" d="M345.308 97.1357C347.451 101.836 347.993 105.548 346.47 109.683C342.267 121.101 330.78 122.902 331.308 116.988C331.484 115.016 334.898 112.458 336.613 110.913C340.409 107.49 343.338 101.829 341.438 98.3586C338.96 101.062 337.729 102.079 334.894 101.218C332.83 100.591 329.844 98.9432 330.948 96.6062C332.128 94.109 335.345 96.8816 336.701 94.2412C337.508 92.6687 336.809 89.7849 335.696 87.9528C327.666 74.7331 313.851 81.9139 311.665 76.6127C311.182 73.7444 314.735 73.2583 316.281 73.3579C318.262 73.4855 320.627 74.0172 321.784 71.2482C320.268 68.3984 317.051 69.121 314.725 67.4234C312.088 65.5002 311.204 62.2067 313.745 60.2075C318.821 56.2131 325.883 67.9495 328.102 64.7392C329.23 61.3175 321.726 59.8759 324.398 56.1566C329.242 54.108 337.035 66.2144 338.752 70.4515C342.215 78.9981 340.707 86.1024 345.1 87.222C347.327 85.5037 345.958 83.8608 347.959 83.0047C351.606 82.4743 351.436 88.8301 351.17 90.3395C350.348 94.9876 348.752 94.814 345.308 97.1357Z" fill="#C8E0CA"/>
<path fill-rule="evenodd" clip-rule="evenodd" d="M297.679 921.702C295.808 928.177 293.191 932.313 288.17 935.115C274.306 942.851 261.401 934.874 266.948 929.466C268.798 927.663 274.353 928.031 277.364 927.957C284.03 927.794 291.742 924.676 292.809 919.625C288.058 920.197 285.974 920.158 283.899 916.896C282.388 914.522 280.831 910.354 283.91 908.977C287.2 907.507 288.029 912.986 291.615 911.523C293.751 910.652 295.509 907.202 295.963 904.442C299.243 884.529 279.461 879.901 281.801 872.795C283.76 869.544 287.692 872.082 289.138 873.494C290.991 875.304 292.881 877.839 296.38 876.081C297.3 871.97 293.5 869.953 292.638 866.295C291.662 862.151 293.584 858.138 297.799 858.317C306.22 858.674 303.241 876.296 308.167 875.003C312.19 872.572 305.985 864.77 311.79 863.356C318.327 865.443 315.759 884.053 313.859 889.708C310.026 901.113 302.497 906.867 305.897 911.708C309.562 911.899 309.602 909.109 312.311 909.961C316.373 912.535 310.805 918.684 309.258 919.952C304.496 923.857 303.063 922.329 297.679 921.702Z" fill="#C8E0CA"/>
<path fill-rule="evenodd" clip-rule="evenodd" d="M83.9156 680.877C85.1579 685.602 86.982 688.645 90.5713 690.763C100.481 696.61 109.971 691.056 106.047 687.041C104.738 685.702 100.707 685.871 98.5265 685.765C93.6987 685.53 88.1658 683.136 87.4813 679.458C90.9137 679.955 92.4241 679.964 93.985 677.636C95.1213 675.942 96.3226 672.949 94.1158 671.898C91.7577 670.775 91.0605 674.73 88.4877 673.608C86.9553 672.939 85.7422 670.409 85.4612 668.401C83.4334 653.914 97.848 650.908 96.2773 645.718C94.915 643.328 92.0215 645.098 90.9488 646.096C89.5743 647.375 88.1606 649.179 85.6561 647.843C85.0617 644.849 87.85 643.454 88.5385 640.818C89.3186 637.833 87.9958 634.891 84.9389 634.947C78.831 635.059 80.6809 647.879 77.1346 646.856C74.2619 645.024 78.8948 639.479 74.7129 638.354C69.9396 639.751 71.4746 653.281 72.7523 657.411C75.3297 665.742 80.6845 670.043 78.1366 673.492C75.4776 673.566 75.4972 671.544 73.5195 672.114C70.531 673.907 74.4579 678.461 75.5563 679.407C78.9388 682.319 80.0038 681.237 83.9156 680.877Z" fill="#C8E0CA"/>
<path fill-rule="evenodd" clip-rule="evenodd" d="M290.677 142.606C290.344 146.302 291.712 148.855 293.914 150.598C296.655 152.769 300.066 151.09 303.419 152.581C310.38 155.679 307.855 172.533 318.353 171.39C321.782 171.016 323.331 168.066 325.016 166.435C329.856 161.749 336.47 161.976 340.895 166.562C342.628 168.359 344.033 170.781 348.111 170.489C351.463 170.248 353.625 167.987 354.635 165.407C358.088 156.579 355.501 140.54 339.587 137.658C331.815 136.251 326.057 137.933 318.772 139.117L316.413 136.601C310.327 131.201 301.782 137.199 297.905 139.755C294.504 141.997 293.301 141.324 290.677 142.606Z" fill="#C8E0CA"/>
<path fill-rule="evenodd" clip-rule="evenodd" d="M-46.7462 323.998C-47.0795 327.694 -45.7112 330.246 -43.5095 331.989C-40.7677 334.16 -37.3568 332.481 -34.0045 333.973C-27.0434 337.07 -29.5685 353.924 -19.0702 352.781C-15.641 352.407 -14.0917 349.457 -12.407 347.826C-7.56675 343.14 -0.953102 343.368 3.47149 347.953C5.20529 349.75 6.60941 352.173 10.6882 351.88C14.04 351.639 16.202 349.379 17.2114 346.798C20.6644 337.971 18.0781 321.931 2.16405 319.049C-5.60807 317.642 -11.3662 319.325 -18.6515 320.509L-21.0104 317.992C-27.0957 312.592 -35.6411 318.591 -39.5184 321.147C-42.9195 323.389 -44.1224 322.716 -46.7462 323.998Z" fill="#C8E0CA"/>
<path fill-rule="evenodd" clip-rule="evenodd" d="M345.171 374.102C344.838 377.798 346.206 380.35 348.408 382.094C351.15 384.265 354.561 382.586 357.913 384.077C364.874 387.175 362.349 404.029 372.847 402.885C376.276 402.512 377.826 399.562 379.51 397.931C384.351 393.245 390.964 393.472 395.389 398.058C397.123 399.855 398.527 402.277 402.605 401.984C405.957 401.744 408.119 399.483 409.129 396.903C412.582 388.075 409.995 372.036 394.081 369.154C386.309 367.747 380.551 369.429 373.266 370.613L370.907 368.097C364.822 362.697 356.276 368.695 352.399 371.251C348.998 373.493 347.795 372.82 345.171 374.102Z" fill="#C8E0CA"/>
<path fill-rule="evenodd" clip-rule="evenodd" d="M306.982 267.778C306.068 262.898 304.866 257.191 307.939 253.021C309.69 253.63 311.237 257.6 311.782 259.726C312.853 263.904 311.211 265.439 310.873 268.703C312.543 270.246 316.087 271.909 315.55 274.964C314.934 278.464 310.778 277.719 307.955 276.899C311.395 281.957 310.174 282.318 308.012 287.458C305.01 294.593 309.179 296.829 309.494 298.737C278.812 300.375 280.928 277.142 290.965 269.138C295.923 265.185 300.844 266.589 306.982 267.778Z" fill="#F7B318"/>
<path fill-rule="evenodd" clip-rule="evenodd" d="M353.704 293.802C352.101 295.252 346.032 294.408 345.237 301.684C354.264 301.697 361.145 303.742 365.132 308.742C376.293 322.738 368.749 344.813 353.326 353.719C350.882 355.131 346.526 357.472 343.991 355.744C343.102 351.159 348.209 344.842 350.145 342.439C352.202 339.887 358.264 333.61 359.229 331.93C350.033 333.388 346.497 333.688 338.748 329.333C321.838 319.83 325.259 294.583 338.035 288.751C340.921 287.433 338.997 287.373 340.655 285.201C341.488 284.11 343.086 283.231 345.135 283.397L345.323 288.129C349.192 288.956 352.683 291.143 353.704 293.802Z" fill="#F7B318"/>
<path fill-rule="evenodd" clip-rule="evenodd" d="M178.751 984.647C175.801 985.921 167.659 981.828 163.058 991.692C175.761 996.03 184.47 1002.2 187.692 1011.15C196.708 1036.2 175.524 1063.67 149.549 1068.83C145.431 1069.64 138.179 1070.86 135.436 1067.21C136.379 1060.33 146.592 1053.88 150.467 1051.42C154.585 1048.81 166.123 1042.88 168.285 1040.97C154.64 1038.62 149.518 1037.36 140.692 1027.52C121.431 1006.04 138.327 972.136 159.106 970.037C163.799 969.564 161.12 968.558 164.494 966.293C166.188 965.156 168.859 964.683 171.664 965.896L169.665 972.65C174.717 975.665 178.584 980.415 178.751 984.647Z" fill="#F7B318"/>
<path fill-rule="evenodd" clip-rule="evenodd" d="M50.839 320.391C49.2527 318.942 46.4131 318.434 44.18 317.395C30.9704 311.253 34.3259 305.191 42.3126 305.416C51.0211 305.661 66.1204 311.708 69.0666 316.701C73.2071 323.72 55.35 331.701 49.2325 333.5C45.1508 334.701 33.6749 335.653 39.5095 328.241C41.5975 325.589 47.4245 321.82 50.839 320.391Z" fill="#F7B318"/>
<path fill-rule="evenodd" clip-rule="evenodd" d="M356.108 625.089C358.037 623.327 361.49 622.71 364.205 621.447C380.266 613.979 376.186 606.608 366.475 606.882C355.887 607.179 337.528 614.532 333.946 620.603C328.911 629.137 350.624 638.841 358.062 641.029C363.025 642.489 376.978 643.646 369.884 634.634C367.345 631.41 360.26 626.827 356.108 625.089Z" fill="#C8E0CA"/>
<path fill-rule="evenodd" clip-rule="evenodd" d="M191.233 1171.03C192.355 1168.67 195.319 1166.79 197.357 1164.6C209.414 1151.63 202.855 1146.34 193.965 1150.25C184.271 1154.53 170.043 1168.26 169.016 1175.23C167.573 1185.04 191.341 1185.83 199.055 1185.05C204.202 1184.53 217.561 1180.34 207.591 1174.67C204.024 1172.64 195.734 1171.07 191.233 1171.03Z" fill="#C8E0CA"/>
<path fill-rule="evenodd" clip-rule="evenodd" d="M244.008 423.59C251.806 428.302 253.783 425.822 264.072 425.705C263.362 441.579 266.651 454.557 284.285 454.793L275.594 436.098C296.689 446.05 304.49 432.282 316.35 423.493C326.941 427.063 325.794 429.337 338.449 427.961C338.707 405.333 324.564 417.774 324.807 406.508C325.008 397.197 326.456 408.35 339.138 392.212C327.322 385.935 327.69 399.386 311.141 390.498C302.191 385.692 307.724 387.351 297.254 385.753C281.363 383.326 265.322 372.04 264.82 402.625C264.444 425.544 248.007 397.929 244.008 423.59Z" fill="#F7B318"/>
<path fill-rule="evenodd" clip-rule="evenodd" d="M282.63 853.936C274.832 858.648 272.855 856.168 262.566 856.051C263.276 871.925 259.987 884.903 242.352 885.139L251.044 866.444C229.949 876.397 222.147 862.628 210.288 853.839C199.697 857.409 200.844 859.683 188.188 858.307C187.931 835.68 202.073 848.12 201.831 836.854C201.63 827.544 200.182 838.696 187.5 822.558C199.316 816.282 198.948 829.732 215.497 820.845C224.446 816.038 218.914 817.697 229.384 816.099C245.274 813.672 261.315 802.386 261.817 832.971C262.194 855.89 278.631 828.275 282.63 853.936Z" fill="#F7B318"/>
<path fill-rule="evenodd" clip-rule="evenodd" d="M222.054 382.789L227.574 397.275C230.65 403.745 226.031 412.618 223.64 412.596C221.249 412.574 221.6 406.655 221.6 406.655C221.188 406.107 223.313 403.314 215.839 404.368C212.608 404.824 208.126 408.337 205.273 410.412C193.333 419.094 200.801 424.981 189.925 430.13C186.568 423.285 189.275 424.517 189.025 416.852C183.224 419.805 188.782 419.287 181.675 417.982C175.965 408.659 172.512 393.415 174.485 393.419C176.459 393.422 181.194 400.024 182.313 399.127C183.432 398.23 189.127 391.27 190.342 392.029C196.185 397.156 189.319 394.983 196.979 397.106C217.562 365.221 203.208 392.753 218.978 375.463C223.47 370.537 225.028 368.118 222.704 365.901C220.379 363.684 211.855 369.691 208.731 376.285C189.511 351.818 242.657 342.907 237.009 369.642C235.449 377.025 227.319 378.031 222.054 382.789Z" fill="#C8E0CA"/>
<path fill-rule="evenodd" clip-rule="evenodd" d="M185.167 1100.19L190.687 1114.67C193.763 1121.14 189.144 1130.01 186.753 1129.99C184.362 1129.97 184.713 1124.05 184.713 1124.05C184.301 1123.5 186.426 1120.71 178.952 1121.76C175.721 1122.22 171.239 1125.73 168.386 1127.81C156.446 1136.49 163.914 1142.38 153.038 1147.53C149.681 1140.68 152.388 1141.91 152.138 1134.25C146.337 1137.2 151.895 1136.68 144.788 1135.38C139.078 1126.06 135.625 1110.81 137.598 1110.81C139.571 1110.82 144.307 1117.42 145.426 1116.52C146.545 1115.63 152.24 1108.67 153.455 1109.43C159.298 1114.55 152.432 1112.38 160.092 1114.5C180.675 1082.62 166.321 1110.15 182.091 1092.86C186.583 1087.93 188.141 1085.51 185.817 1083.3C183.492 1081.08 174.968 1087.09 171.844 1093.68C152.624 1069.21 205.769 1060.3 200.122 1087.04C198.562 1094.42 190.432 1095.43 185.167 1100.19Z" fill="#C8E0CA"/>
<path fill-rule="evenodd" clip-rule="evenodd" d="M-15.9211 605.485C19.5351 604.355 -12.2922 580.054 26.9218 583.203L35.7599 598.818C28.2325 609.145 7.39568 616.336 28.5098 628.905C32.4941 622.854 26.6335 630.426 29.8731 623.676C36.4221 610.037 45.913 615.77 51.3933 605.104C57.7441 577.278 38.6809 590.062 55.0033 567.145L65.7724 576.857C86.1585 606.417 77.7489 596.74 86.9542 621.499C103.825 606.133 74.2779 566.02 68.8809 547.767C76.9535 536.542 84.4228 536.468 76.3659 519.407C64.2833 512.637 55.0367 518.172 45.7649 525.066C40.9302 498.028 61.5125 459.917 33.939 452.092L38.6065 458.592C43.905 473.65 35.7276 480.555 32.6338 497.998C29.5117 515.599 34.9775 523.077 29.9479 544.017C22.5323 574.889 15.8682 556.816 1.84129 567.771C-8.13082 575.559 -2.55715 576.037 -5.72696 586.872C-11.6981 607.29 -9.64568 591.467 -15.9211 605.485Z" fill="#C8E0CA"/>
<path fill-rule="evenodd" clip-rule="evenodd" d="M410.157 943.541C380.677 942.601 407.14 922.397 374.536 925.015L367.188 937.997C373.446 946.584 390.771 952.563 373.216 963.013C369.903 957.982 374.776 964.277 372.082 958.665C366.637 947.325 358.746 952.092 354.19 943.223C348.91 920.088 364.759 930.718 351.188 911.664L342.235 919.739C325.285 944.316 332.277 936.27 324.624 956.855C310.597 944.079 335.163 910.728 339.65 895.552C332.938 886.22 326.728 886.158 333.427 871.973C343.473 866.344 351.161 870.946 358.869 876.678C362.889 854.198 345.776 822.512 368.702 816.006L364.821 821.41C360.416 833.93 367.215 839.67 369.787 854.173C372.383 868.807 367.838 875.024 372.02 892.434C378.186 918.102 383.726 903.076 395.389 912.184C403.68 918.659 399.046 919.056 401.681 928.065C406.646 945.041 404.939 931.886 410.157 943.541Z" fill="#F7B318"/>
<path fill-rule="evenodd" clip-rule="evenodd" d="M12.2583 490.168C20.1334 498.343 23.8589 493.824 33.5945 492.759C30.1738 498.959 26.5076 500.295 19.9777 502.39C-9.723 495.846 12.6304 479.458 18.3163 471.314C23.4595 463.948 13.2243 441.28 6.37811 436.817C5.70685 444.963 9.16064 444.307 5.34244 451.787C-3.26074 447.881 -12.8537 416.213 -10.9541 409.67C-6.3803 413.012 -5.33362 421.363 -2.36206 426.572C3.04294 421.153 -1.54968 422.065 4.12163 421.443C7.92634 426.841 6.88785 429.07 12.5898 431.499C12.8049 429.791 12.9753 424.306 13.085 422.054C13.5625 412.239 14.3083 420.116 11.1001 412.394C8.80976 406.88 8.1945 399.206 7.69747 392.803C20.7064 394.271 9.3625 393.984 18.7205 389.007L16.9827 406.916C25.9921 405.8 25.4625 391.39 42.2753 389.635C52.7426 399.655 45.3089 402.701 51.238 409.29C60.0648 404.533 59.4769 398.422 59.1483 389.219L69.3798 382.16C69.0915 398.723 69.8874 389.398 63.4858 399.643C61.3339 403.088 60.9065 405.759 58.7812 409.154C52.674 418.915 51.4996 412.708 45.4786 416.076C40.6685 418.767 41.5875 425.929 39.4636 432.308C32.6283 452.835 26.2969 436.938 27.9582 462.662C28.9041 477.305 15.5038 479.414 12.2583 490.168Z" fill="#F7B318"/>
<path fill-rule="evenodd" clip-rule="evenodd" d="M366.757 534.399C368.836 527.648 367.219 526.337 368.959 521.398C370.924 515.822 372.71 516.98 375.46 510.429C359.182 507.288 361.379 518.353 344.227 502.997C325.959 486.643 336.635 492.469 331.305 475.364C317.039 484.196 326.397 483.375 308.8 475.363C297.776 470.343 291.699 469.325 283.137 476.837C286.41 485.587 291.391 490.251 298.343 496.402C314.602 510.785 304.811 502.89 308.969 517.508L320.538 516.359C324.296 524.531 322.571 524.712 329.778 529.65C337.975 521.899 332.692 519.206 348.909 520.818C366.157 522.533 355.051 528.128 366.757 534.399Z" fill="#F7B318"/>
<path fill-rule="evenodd" clip-rule="evenodd" d="M287.61 1185C289.69 1178.25 288.072 1176.94 289.812 1172C291.777 1166.43 293.564 1167.58 296.313 1161.03C280.035 1157.89 282.232 1168.96 265.08 1153.6C246.812 1137.25 257.488 1143.07 252.159 1125.97C237.893 1134.8 247.25 1133.98 229.654 1125.97C218.629 1120.95 212.553 1119.93 203.99 1127.44C207.264 1136.19 212.244 1140.86 219.197 1147.01C235.456 1161.39 225.664 1153.49 229.822 1168.11L241.392 1166.96C245.149 1175.14 243.424 1175.32 250.631 1180.25C258.828 1172.5 253.545 1169.81 269.762 1171.42C287.011 1173.14 275.905 1178.73 287.61 1185Z" fill="#F7B318"/>
<path fill-rule="evenodd" clip-rule="evenodd" d="M68.8503 444.781C61.3601 454.287 56.24 463.697 71.4825 470.152C75.5862 468.95 78.7022 466.349 82.1677 463.727C84.3565 462.071 85.8341 460.335 86.4795 459.823C87.9144 458.683 86.8894 459.271 89.0941 458.142C90.5897 457.377 89.8962 458.509 92.9033 456.695L93.0645 453.001L84.3619 449.969C88.3089 445.14 91.667 442.226 91.0439 435.974C85.4208 434.052 86.6081 435.68 80.9707 435.263C75.0619 434.827 75.376 433.512 72.1018 432.833C61.2169 430.573 67.7256 440.284 68.8503 444.781Z" fill="#C8E0CA"/>
<path fill-rule="evenodd" clip-rule="evenodd" d="M-0.0111303 734.02C-10.9303 747.878 -18.3943 761.596 3.82615 771.007C9.80837 769.254 14.3509 765.461 19.4028 761.639C22.5936 759.226 24.7476 756.695 25.6886 755.948C27.7804 754.287 26.2861 755.144 29.5 753.498C31.6804 752.382 30.6693 754.033 35.053 751.389L35.288 746.003L22.6016 741.583C28.3554 734.544 33.2509 730.296 32.3425 721.182C24.1451 718.379 25.8761 720.753 17.6578 720.146C9.04412 719.51 9.50201 717.593 4.72893 716.602C-11.139 713.309 -1.65061 727.464 -0.0111303 734.02Z" fill="#C8E0CA"/>
<path fill-rule="evenodd" clip-rule="evenodd" d="M382.018 428.796L363.857 427.646C362.982 438.472 372.405 442.363 352.745 444.268C341.378 445.37 332.197 442.444 321.651 447.389C324.806 463.113 346.201 462.921 353.708 464.012C376.966 467.39 378.05 460.643 395.854 458.837C404.972 472.685 395.513 465.858 411.599 479.632C421.36 487.991 417.005 486.26 428.349 486.636C426.755 465.375 413.972 462.506 402.878 449.672C408.691 431.27 429.067 399.095 404.84 386.661L382.018 428.796Z" fill="#C8E0CA"/>
<path fill-rule="evenodd" clip-rule="evenodd" d="M2.89408 945.673L8.87818 928.488C-1.31532 924.738 -7.59369 932.77 -4.15028 913.321C-2.15935 902.075 3.125 894.017 1.19313 882.53C-14.8007 881.347 -20.3608 902.008 -23.4269 908.946C-32.9264 930.443 -26.7183 933.299 -29.7589 950.934C-45.5469 955.999 -36.4305 948.72 -54.0181 960.517C-64.6912 967.675 -61.8546 963.944 -65.2628 974.772C-44.3542 978.945 -38.1586 967.402 -22.8171 960.161C-6.65143 970.701 18.8703 998.969 37.3528 978.971L2.89408 945.673Z" fill="#C8E0CA"/>
<path fill-rule="evenodd" clip-rule="evenodd" d="M297.378 630.975C315.648 617.497 302.12 619.806 312.029 610.249C319.993 602.565 320.715 610.068 333.517 606.926C340.727 593.58 321.174 619.579 349.173 575.475C368.275 545.39 355.782 582.157 375.949 562.852C361.163 547.496 363.751 552.102 347.388 555.71C343.046 544.607 344.579 541.098 334.248 532.545C320.026 544.511 334.884 546.048 319.798 556.792C308.438 564.881 301.925 563.277 296.18 579.947C294.784 584.001 292.978 606.023 293.199 609.809C294.127 625.65 293.634 607.535 297.336 617.729C299.672 624.156 295.742 620.846 297.378 630.975Z" fill="#C8E0CA"/>
<path fill-rule="evenodd" clip-rule="evenodd" d="M185.721 1419.93C206.69 1411.22 193.003 1410.22 204.914 1403.32C214.489 1397.77 213.39 1405.23 226.572 1405.25C236.773 1394.02 211.555 1414.57 249.315 1378.47C275.074 1353.84 254.128 1386.54 278.336 1372.64C267.665 1354.18 269.073 1359.28 252.322 1358.85C250.77 1347.03 253.099 1343.99 245.122 1333.21C228.445 1341.42 242.5 1346.48 225.277 1353.29C212.309 1358.42 206.371 1355.3 196.795 1370.1C194.468 1373.7 187.433 1394.65 186.74 1398.38C183.841 1413.98 187.707 1396.27 188.857 1407.06C189.582 1413.86 186.561 1409.7 185.721 1419.93Z" fill="#C8E0CA"/>
<path fill-rule="evenodd" clip-rule="evenodd" d="M227.622 654.437C223.52 656.082 219.444 658.488 216.615 655.244C214.242 652.524 213.624 648.169 211.207 645.268C208.102 641.54 204.88 645.074 201.558 646.815C194.311 650.612 193.863 639.83 188.198 640.899C181.064 642.245 184.425 651.431 186.78 655.816C195.746 672.507 223.961 685.165 243.519 677.162C252.553 673.464 253.903 667.68 250.043 665.078C244.898 661.611 239.583 670.356 236.451 658.268C235.063 652.91 232.937 652.305 227.622 654.437Z" fill="#F7B318"/>
<path fill-rule="evenodd" clip-rule="evenodd" d="M204.041 1315.87C199.905 1317.42 195.779 1319.74 193.019 1316.44C190.705 1313.67 190.179 1309.3 187.825 1306.35C184.799 1302.56 181.503 1306.02 178.145 1307.69C170.818 1311.33 170.599 1300.54 164.913 1301.49C157.752 1302.69 160.918 1311.94 163.179 1316.38C171.788 1333.25 199.729 1346.51 219.452 1338.92C228.562 1335.42 230.035 1329.66 226.231 1326.98C221.161 1323.4 215.661 1332.03 212.787 1319.88C211.513 1314.5 209.4 1313.85 204.041 1315.87Z" fill="#F7B318"/>
<path fill-rule="evenodd" clip-rule="evenodd" d="M55.1625 645.669L60.9077 665.798C54.4963 672.686 57.9757 667.795 50.9673 673.056C57.4212 681.958 62.6864 688.24 55.0465 697.478C47.1968 693.026 55.888 698.313 49.671 691.298L43.0105 685.096C36.7218 679.769 35.4867 675.715 28.4284 674.328C16.0756 684.856 20.3948 686.723 27.2012 695.719L15.0143 695.65C8.94897 685.812 14.1579 684.201 4.94351 673.882C4.46804 674.594 4.01177 674.864 3.84742 676.204L-0.0128288 692.607C-15.6192 690.878 -7.16513 687.134 -12.8242 676.377C-23.7362 685.546 -16.4379 686.531 -25.1505 690.638C-36.3161 684.61 -30.8464 675.458 -30.304 660.439C-29.877 648.596 -25.695 639.574 -12.5449 637.829C-4.98131 636.826 0.323811 638.601 7.65331 638.686C14.9636 638.77 20.7671 636.507 25.1128 636.994C38.608 638.508 19.9121 642.984 55.1625 645.669Z" fill="#F7B318"/>
<path fill-rule="evenodd" clip-rule="evenodd" d="M288.191 1284.05L285.449 1304.8C276.826 1308.57 281.965 1305.47 273.441 1307.5C275.819 1318.24 278.148 1326.1 267.463 1331.53C262.034 1324.32 267.902 1332.63 264.991 1323.72L261.35 1315.38C257.701 1307.99 258.182 1303.78 252.259 1299.7C236.736 1304.44 239.955 1307.87 242.619 1318.83L231.466 1313.92C229.818 1302.48 235.237 1303.08 230.892 1289.94C230.172 1290.41 229.646 1290.47 228.962 1291.64L218.892 1305.15C205.263 1297.35 214.509 1297.28 213.599 1285.16C199.939 1289.23 206.242 1293.03 196.615 1293.33C188.771 1283.36 197.432 1277.14 203.908 1263.58C209.013 1252.89 216.441 1246.27 229.199 1249.91C236.537 1252 240.697 1255.74 247.387 1258.73C254.06 1261.72 260.284 1261.95 264.077 1264.13C275.854 1270.89 256.922 1267.55 288.191 1284.05Z" fill="#F7B318"/>
<path fill-rule="evenodd" clip-rule="evenodd" d="M24 1003.6L35.6303 1003.12C34.3174 1025.93 42.8871 1003.21 37.2885 1021.41C32.8905 1035.7 32.3506 1043.32 43.4569 1053.28C45.5748 1055.18 45.1326 1054.29 47.2741 1056.62C54.0992 1064.04 55.3586 1073.03 68.7996 1070.19C74.8846 1060.7 71.0139 1061.31 64.8865 1057.54C82.5291 1051.19 95.0597 1050.03 94.0088 1027.65C73.6871 1027.77 67.5686 1041.14 56.8215 1037.2C53.8976 1020.24 61.0592 1026.4 67.1261 1025.93C78.9908 1025 77.7278 1020.36 81.7514 1012.15C96.1655 1014.57 104.144 1020.73 103.787 1036.82C103.373 1055.48 90.4343 1057.75 87.9544 1065.13C129.465 1062.82 116.676 974.292 56.5978 1002.06C29.4607 1014.6 56.5506 978.069 24 1003.6Z" fill="#C8E0CA"/>
<path fill-rule="evenodd" clip-rule="evenodd" d="M377.797 778.374C377.002 784.849 363.56 791.588 356.344 793.835C353.002 794.875 349.189 795.351 346.355 796.349L374.092 796.072C373.304 804.387 366.083 806.825 357.234 806.808C348.054 806.791 338.935 806.367 329.759 806.374C319.169 806.383 314.59 806.309 311.373 797.666C307.247 786.576 310.922 785.58 297.864 782.975C298.975 780.753 300.059 781.008 302.489 779.98C309.184 777.145 312.44 779.322 316.64 786.358C319.01 790.328 322.915 791.295 325.544 787.52C330.189 780.85 330.589 767.948 354.762 770.958C363.41 772.035 368.539 776.668 377.797 778.374Z" fill="#C8E0CA"/>
<path fill-rule="evenodd" clip-rule="evenodd" d="M276.733 764.925C275.606 782.724 281.257 785.206 277.762 804.223C232.122 785.301 286.705 772.259 190.875 763.606C188.085 793.548 196.43 763.63 186.451 784.627C186.146 785.268 185.447 786.548 184.737 787.354C176.712 775.382 175.698 760.531 168.706 752.342C163.798 746.594 147.436 735.934 139.256 726.966C122.6 708.708 106.008 673.499 116.778 650.865C151.321 650.475 253.481 724.493 301.351 712.575C315.862 676.836 252.61 672.358 266.569 634.317C288.558 635.719 308.827 639.055 311.42 662.957C317.234 643.751 340.171 650.363 354.938 656.279C344.035 672.893 336.288 702.955 326.063 724.063C308.936 759.423 300.727 749.272 276.733 764.925Z" fill="#F7B318"/>
<rect x="14" y="817.183" width="161" height="161" rx="80.5" fill="#F7B318"/>
<path d="M60.4388 875.683V863.571H62.2468V875.683H60.4388ZM68.4247 875.875C67.5607 875.875 66.7927 875.678 66.1207 875.283C65.4594 874.878 64.942 874.334 64.5687 873.651C64.1954 872.958 64.0087 872.184 64.0087 871.331C64.0087 870.456 64.1954 869.683 64.5687 869.011C64.9527 868.339 65.4647 867.811 66.1047 867.427C66.7447 867.032 67.47 866.835 68.2807 866.835C68.9314 866.835 69.5127 866.947 70.0247 867.171C70.5367 867.395 70.9687 867.704 71.3207 868.099C71.6727 868.483 71.9394 868.926 72.1207 869.427C72.3127 869.928 72.4087 870.462 72.4087 871.027C72.4087 871.166 72.4034 871.31 72.3927 871.459C72.382 871.608 72.3607 871.747 72.3287 871.875H65.4327V870.435H71.3047L70.4407 871.091C70.5474 870.568 70.51 870.104 70.3287 869.699C70.158 869.283 69.8914 868.958 69.5287 868.723C69.1767 868.478 68.7607 868.355 68.2807 868.355C67.8007 868.355 67.374 868.478 67.0007 868.723C66.6274 868.958 66.3394 869.299 66.1367 869.747C65.934 870.184 65.854 870.718 65.8967 871.347C65.8434 871.934 65.9234 872.446 66.1367 872.883C66.3607 873.32 66.67 873.662 67.0647 873.907C67.47 874.152 67.9287 874.275 68.4407 874.275C68.9634 874.275 69.406 874.158 69.7687 873.923C70.142 873.688 70.4354 873.384 70.6487 873.011L72.1207 873.731C71.95 874.136 71.6834 874.504 71.3207 874.835C70.9687 875.155 70.542 875.411 70.0407 875.603C69.55 875.784 69.0114 875.875 68.4247 875.875ZM78.7972 875.875C78.1252 875.875 77.5119 875.736 76.9572 875.459C76.4132 875.182 75.9919 874.782 75.6932 874.259L75.9012 873.923V875.683H74.1732V863.571H75.9812V868.819L75.6932 868.403C76.0132 867.912 76.4399 867.528 76.9732 867.251C77.5065 866.974 78.1145 866.835 78.7972 866.835C79.6185 866.835 80.3545 867.032 81.0052 867.427C81.6665 867.822 82.1839 868.36 82.5572 869.043C82.9412 869.726 83.1332 870.494 83.1332 871.347C83.1332 872.2 82.9412 872.968 82.5572 873.651C82.1839 874.334 81.6719 874.878 81.0212 875.283C80.3705 875.678 79.6292 875.875 78.7972 875.875ZM78.6212 874.195C79.1332 874.195 79.5865 874.072 79.9812 873.827C80.3759 873.582 80.6852 873.246 80.9092 872.819C81.1439 872.382 81.2612 871.891 81.2612 871.347C81.2612 870.803 81.1439 870.318 80.9092 869.891C80.6852 869.464 80.3759 869.128 79.9812 868.883C79.5865 868.638 79.1332 868.515 78.6212 868.515C78.1199 868.515 77.6665 868.638 77.2612 868.883C76.8665 869.128 76.5519 869.464 76.3172 869.891C76.0932 870.318 75.9812 870.803 75.9812 871.347C75.9812 871.891 76.0932 872.382 76.3172 872.819C76.5519 873.246 76.8665 873.582 77.2612 873.827C77.6665 874.072 78.1199 874.195 78.6212 874.195ZM84.8919 875.683V867.027H86.6999V875.683H84.8919ZM84.8919 865.843V863.763H86.6999V865.843H84.8919ZM88.8138 875.683V863.571H90.6218V868.723L90.3338 868.499C90.5471 867.955 90.8885 867.544 91.3578 867.267C91.8271 866.979 92.3711 866.835 92.9898 866.835C93.6298 866.835 94.1951 866.974 94.6858 867.251C95.1765 867.528 95.5605 867.912 95.8378 868.403C96.1151 868.894 96.2538 869.454 96.2538 870.083V875.683H94.4618V870.579C94.4618 870.142 94.3765 869.774 94.2058 869.475C94.0458 869.166 93.8218 868.931 93.5338 868.771C93.2458 868.6 92.9151 868.515 92.5418 868.515C92.1791 868.515 91.8485 868.6 91.5498 868.771C91.2618 868.931 91.0325 869.166 90.8618 869.475C90.7018 869.784 90.6218 870.152 90.6218 870.579V875.683H88.8138ZM104.986 875.875C104.154 875.875 103.407 875.678 102.746 875.283C102.095 874.878 101.578 874.334 101.194 873.651C100.82 872.968 100.634 872.2 100.634 871.347C100.634 870.494 100.826 869.726 101.21 869.043C101.594 868.36 102.111 867.822 102.762 867.427C103.412 867.032 104.148 866.835 104.97 866.835C105.663 866.835 106.276 866.974 106.81 867.251C107.343 867.528 107.764 867.912 108.074 868.403L107.802 868.819V863.571H109.594V875.683H107.882V873.923L108.09 874.259C107.791 874.782 107.364 875.182 106.81 875.459C106.255 875.736 105.647 875.875 104.986 875.875ZM105.162 874.195C105.663 874.195 106.111 874.072 106.506 873.827C106.911 873.582 107.226 873.246 107.45 872.819C107.684 872.382 107.802 871.891 107.802 871.347C107.802 870.803 107.684 870.318 107.45 869.891C107.226 869.464 106.911 869.128 106.506 868.883C106.111 868.638 105.663 868.515 105.162 868.515C104.66 868.515 104.207 868.638 103.802 868.883C103.396 869.128 103.082 869.464 102.858 869.891C102.634 870.318 102.522 870.803 102.522 871.347C102.522 871.891 102.634 872.382 102.858 872.819C103.082 873.246 103.391 873.582 103.786 873.827C104.191 874.072 104.65 874.195 105.162 874.195ZM114.296 875.875C113.71 875.875 113.192 875.774 112.744 875.571C112.307 875.358 111.966 875.07 111.72 874.707C111.475 874.334 111.352 873.896 111.352 873.395C111.352 872.926 111.454 872.504 111.656 872.131C111.87 871.758 112.195 871.443 112.632 871.187C113.07 870.931 113.619 870.75 114.28 870.643L117.288 870.147V871.571L114.632 872.035C114.152 872.12 113.8 872.275 113.576 872.499C113.352 872.712 113.24 872.99 113.24 873.331C113.24 873.662 113.363 873.934 113.608 874.147C113.864 874.35 114.19 874.451 114.584 874.451C115.075 874.451 115.502 874.344 115.864 874.131C116.238 873.918 116.526 873.635 116.728 873.283C116.931 872.92 117.032 872.52 117.032 872.083V869.859C117.032 869.432 116.872 869.086 116.552 868.819C116.243 868.542 115.827 868.403 115.304 868.403C114.824 868.403 114.403 868.531 114.04 868.787C113.688 869.032 113.427 869.352 113.256 869.747L111.752 868.995C111.912 868.568 112.174 868.195 112.536 867.875C112.899 867.544 113.32 867.288 113.8 867.107C114.291 866.926 114.808 866.835 115.352 866.835C116.035 866.835 116.638 866.963 117.16 867.219C117.694 867.475 118.104 867.832 118.392 868.291C118.691 868.739 118.84 869.262 118.84 869.859V875.683H117.112V874.115L117.48 874.163C117.278 874.515 117.016 874.819 116.696 875.075C116.387 875.331 116.03 875.528 115.624 875.667C115.23 875.806 114.787 875.875 114.296 875.875ZM120.954 875.683V867.027H122.682V868.771L122.522 868.515C122.714 867.95 123.024 867.544 123.45 867.299C123.877 867.043 124.389 866.915 124.986 866.915H125.514V868.563H124.762C124.165 868.563 123.68 868.75 123.306 869.123C122.944 869.486 122.762 870.008 122.762 870.691V875.683H120.954ZM126.751 875.683V867.027H128.559V875.683H126.751ZM126.751 865.843V863.763H128.559V865.843H126.751ZM57.5341 933.875C56.6701 933.875 55.9021 933.678 55.2301 933.283C54.5687 932.878 54.0514 932.334 53.6781 931.651C53.3047 930.958 53.1181 930.184 53.1181 929.331C53.1181 928.456 53.3047 927.683 53.6781 927.011C54.0621 926.339 54.5741 925.811 55.2141 925.427C55.8541 925.032 56.5794 924.835 57.3901 924.835C58.0407 924.835 58.6221 924.947 59.1341 925.171C59.6461 925.395 60.0781 925.704 60.4301 926.099C60.7821 926.483 61.0487 926.926 61.2301 927.427C61.4221 927.928 61.5181 928.462 61.5181 929.027C61.5181 929.166 61.5127 929.31 61.5021 929.459C61.4914 929.608 61.4701 929.747 61.4381 929.875H54.5421V928.435H60.4141L59.5501 929.091C59.6567 928.568 59.6194 928.104 59.4381 927.699C59.2674 927.283 59.0007 926.958 58.6381 926.723C58.2861 926.478 57.8701 926.355 57.3901 926.355C56.9101 926.355 56.4834 926.478 56.1101 926.723C55.7367 926.958 55.4487 927.299 55.2461 927.747C55.0434 928.184 54.9634 928.718 55.0061 929.347C54.9527 929.934 55.0327 930.446 55.2461 930.883C55.4701 931.32 55.7794 931.662 56.1741 931.907C56.5794 932.152 57.0381 932.275 57.5501 932.275C58.0727 932.275 58.5154 932.158 58.8781 931.923C59.2514 931.688 59.5447 931.384 59.7581 931.011L61.2301 931.731C61.0594 932.136 60.7927 932.504 60.4301 932.835C60.0781 933.155 59.6514 933.411 59.1501 933.603C58.6594 933.784 58.1207 933.875 57.5341 933.875ZM63.2826 933.683V921.571H65.0906V929.683L64.3866 929.507L68.7226 925.027H70.9786L67.7146 928.499L71.1226 933.683H69.0426L66.0026 929.091L67.0746 928.947L64.5146 931.667L65.0906 930.467V933.683H63.2826ZM76.3804 933.875C75.5484 933.875 74.7858 933.678 74.0924 933.283C73.4098 932.888 72.8658 932.35 72.4604 931.667C72.0551 930.984 71.8524 930.211 71.8524 929.347C71.8524 928.472 72.0551 927.699 72.4604 927.027C72.8658 926.344 73.4098 925.811 74.0924 925.427C74.7751 925.032 75.5378 924.835 76.3804 924.835C77.2338 924.835 77.9964 925.032 78.6684 925.427C79.3511 925.811 79.8898 926.344 80.2844 927.027C80.6898 927.699 80.8924 928.472 80.8924 929.347C80.8924 930.222 80.6898 931 80.2844 931.683C79.8791 932.366 79.3351 932.904 78.6524 933.299C77.9698 933.683 77.2124 933.875 76.3804 933.875ZM76.3804 932.195C76.8924 932.195 77.3458 932.072 77.7404 931.827C78.1351 931.582 78.4444 931.246 78.6684 930.819C78.9031 930.382 79.0204 929.891 79.0204 929.347C79.0204 928.803 78.9031 928.318 78.6684 927.891C78.4444 927.464 78.1351 927.128 77.7404 926.883C77.3458 926.638 76.8924 926.515 76.3804 926.515C75.8791 926.515 75.4258 926.638 75.0204 926.883C74.6258 927.128 74.3111 927.464 74.0764 927.891C73.8524 928.318 73.7404 928.803 73.7404 929.347C73.7404 929.891 73.8524 930.382 74.0764 930.819C74.3111 931.246 74.6258 931.582 75.0204 931.827C75.4258 932.072 75.8791 932.195 76.3804 932.195ZM82.6576 933.683V925.027H84.3856V926.771L84.2256 926.515C84.4176 925.95 84.7269 925.544 85.1536 925.299C85.5802 925.043 86.0922 924.915 86.6896 924.915H87.2176V926.563H86.4656C85.8682 926.563 85.3829 926.75 85.0096 927.123C84.6469 927.486 84.4656 928.008 84.4656 928.691V933.683H82.6576ZM94.4513 933.875C93.566 933.875 92.7873 933.656 92.1153 933.219C91.454 932.782 90.99 932.195 90.7233 931.459L92.1153 930.803C92.35 931.294 92.67 931.683 93.0753 931.971C93.4913 932.259 93.95 932.403 94.4513 932.403C94.878 932.403 95.2246 932.307 95.4913 932.115C95.758 931.923 95.8913 931.662 95.8913 931.331C95.8913 931.118 95.8326 930.947 95.7153 930.819C95.598 930.68 95.4486 930.568 95.2673 930.483C95.0966 930.398 94.9206 930.334 94.7393 930.291L93.3793 929.907C92.6326 929.694 92.0726 929.374 91.6993 928.947C91.3366 928.51 91.1553 928.003 91.1553 927.427C91.1553 926.904 91.2886 926.451 91.5553 926.067C91.822 925.672 92.19 925.368 92.6593 925.155C93.1286 924.942 93.6566 924.835 94.2433 924.835C95.0326 924.835 95.7366 925.032 96.3553 925.427C96.974 925.811 97.4113 926.35 97.6673 927.043L96.2753 927.699C96.1046 927.283 95.8326 926.952 95.4593 926.707C95.0966 926.462 94.686 926.339 94.2273 926.339C93.8326 926.339 93.518 926.435 93.2833 926.627C93.0486 926.808 92.9313 927.048 92.9313 927.347C92.9313 927.55 92.9846 927.72 93.0913 927.859C93.198 927.987 93.3366 928.094 93.5073 928.179C93.678 928.254 93.854 928.318 94.0353 928.371L95.4433 928.787C96.158 928.99 96.7073 929.31 97.0913 929.747C97.4753 930.174 97.6673 930.686 97.6673 931.283C97.6673 931.795 97.5286 932.248 97.2513 932.643C96.9846 933.027 96.6113 933.331 96.1313 933.555C95.6513 933.768 95.0913 933.875 94.4513 933.875ZM102.031 933.875C101.444 933.875 100.927 933.774 100.479 933.571C100.041 933.358 99.7001 933.07 99.4548 932.707C99.2095 932.334 99.0868 931.896 99.0868 931.395C99.0868 930.926 99.1881 930.504 99.3908 930.131C99.6041 929.758 99.9295 929.443 100.367 929.187C100.804 928.931 101.353 928.75 102.015 928.643L105.023 928.147V929.571L102.367 930.035C101.887 930.12 101.535 930.275 101.311 930.499C101.087 930.712 100.975 930.99 100.975 931.331C100.975 931.662 101.097 931.934 101.343 932.147C101.599 932.35 101.924 932.451 102.319 932.451C102.809 932.451 103.236 932.344 103.599 932.131C103.972 931.918 104.26 931.635 104.463 931.283C104.665 930.92 104.767 930.52 104.767 930.083V927.859C104.767 927.432 104.607 927.086 104.287 926.819C103.977 926.542 103.561 926.403 103.039 926.403C102.559 926.403 102.137 926.531 101.775 926.787C101.423 927.032 101.161 927.352 100.991 927.747L99.4868 926.995C99.6468 926.568 99.9081 926.195 100.271 925.875C100.633 925.544 101.055 925.288 101.535 925.107C102.025 924.926 102.543 924.835 103.087 924.835C103.769 924.835 104.372 924.963 104.895 925.219C105.428 925.475 105.839 925.832 106.127 926.291C106.425 926.739 106.575 927.262 106.575 927.859V933.683H104.847V932.115L105.215 932.163C105.012 932.515 104.751 932.819 104.431 933.075C104.121 933.331 103.764 933.528 103.359 933.667C102.964 933.806 102.521 933.875 102.031 933.875ZM112.277 933.779C111.37 933.779 110.666 933.523 110.165 933.011C109.663 932.499 109.413 931.779 109.413 930.851V926.659H107.893V925.027H108.133C108.538 925.027 108.853 924.91 109.077 924.675C109.301 924.44 109.413 924.12 109.413 923.715V923.043H111.221V925.027H113.189V926.659H111.221V930.771C111.221 931.07 111.269 931.326 111.365 931.539C111.461 931.742 111.615 931.902 111.829 932.019C112.042 932.126 112.319 932.179 112.661 932.179C112.746 932.179 112.842 932.174 112.949 932.163C113.055 932.152 113.157 932.142 113.253 932.131V933.683C113.103 933.704 112.938 933.726 112.757 933.747C112.575 933.768 112.415 933.779 112.277 933.779ZM117.113 933.683L114.137 925.027H116.057L118.329 931.923H117.657L119.977 925.027H121.625L123.929 931.923H123.257L125.545 925.027H127.465L124.473 933.683H122.841L120.505 926.627H121.097L118.761 933.683H117.113ZM130.984 933.875C130.397 933.875 129.88 933.774 129.432 933.571C128.995 933.358 128.653 933.07 128.408 932.707C128.163 932.334 128.04 931.896 128.04 931.395C128.04 930.926 128.141 930.504 128.344 930.131C128.557 929.758 128.883 929.443 129.32 929.187C129.757 928.931 130.307 928.75 130.968 928.643L133.976 928.147V929.571L131.32 930.035C130.84 930.12 130.488 930.275 130.264 930.499C130.04 930.712 129.928 930.99 129.928 931.331C129.928 931.662 130.051 931.934 130.296 932.147C130.552 932.35 130.877 932.451 131.272 932.451C131.763 932.451 132.189 932.344 132.552 932.131C132.925 931.918 133.213 931.635 133.416 931.283C133.619 930.92 133.72 930.52 133.72 930.083V927.859C133.72 927.432 133.56 927.086 133.24 926.819C132.931 926.542 132.515 926.403 131.992 926.403C131.512 926.403 131.091 926.531 130.728 926.787C130.376 927.032 130.115 927.352 129.944 927.747L128.44 926.995C128.6 926.568 128.861 926.195 129.224 925.875C129.587 925.544 130.008 925.288 130.488 925.107C130.979 924.926 131.496 924.835 132.04 924.835C132.723 924.835 133.325 924.963 133.848 925.219C134.381 925.475 134.792 925.832 135.08 926.291C135.379 926.739 135.528 927.262 135.528 927.859V933.683H133.8V932.115L134.168 932.163C133.965 932.515 133.704 932.819 133.384 933.075C133.075 933.331 132.717 933.528 132.312 933.667C131.917 933.806 131.475 933.875 130.984 933.875Z" fill="#145858"/>
<path d="M56.8304 912.183V907.863L64.0304 900.447C65.4464 898.983 66.5144 897.831 67.2344 896.991C67.9784 896.127 68.4824 895.407 68.7464 894.831C69.0344 894.255 69.1784 893.691 69.1784 893.139C69.1784 892.155 68.8544 891.387 68.2064 890.835C67.5824 890.259 66.7904 889.971 65.8304 889.971C64.8464 889.971 63.9704 890.259 63.2024 890.835C62.4344 891.387 61.8704 892.239 61.5104 893.391L56.6504 891.807C56.9384 890.415 57.5384 889.203 58.4504 888.171C59.3624 887.139 60.4664 886.347 61.7624 885.795C63.0584 885.219 64.4144 884.931 65.8304 884.931C67.6064 884.931 69.1664 885.243 70.5104 885.867C71.8544 886.491 72.8984 887.367 73.6424 888.495C74.3864 889.623 74.7584 890.943 74.7584 892.455C74.7584 893.415 74.5904 894.363 74.2544 895.299C73.9184 896.211 73.4024 897.147 72.7064 898.107C72.0344 899.043 71.1584 900.063 70.0784 901.167L63.9224 907.503H75.0104V912.183H56.8304ZM82.8837 912.183V890.079H77.6637V885.363H88.4637V912.183H82.8837ZM94.1548 912.183L104.991 890.043H92.6068V885.363H110.859V890.043L100.347 912.183H94.1548ZM114.727 912.183L123.763 900.627L124.663 901.887C124.327 902.031 124.003 902.163 123.691 902.283C123.403 902.379 123.103 902.451 122.791 902.499C122.479 902.547 122.155 902.571 121.819 902.571C120.163 902.571 118.687 902.199 117.391 901.455C116.119 900.711 115.111 899.703 114.367 898.431C113.647 897.135 113.287 895.683 113.287 894.075C113.287 892.299 113.695 890.727 114.511 889.359C115.327 887.991 116.455 886.911 117.895 886.119C119.335 885.327 120.979 884.931 122.827 884.931C124.699 884.931 126.343 885.327 127.759 886.119C129.199 886.887 130.327 887.943 131.143 889.287C131.959 890.607 132.367 892.119 132.367 893.823C132.367 894.663 132.283 895.503 132.115 896.343C131.947 897.183 131.611 898.107 131.107 899.115C130.603 900.099 129.847 901.251 128.839 902.571L121.387 912.183H114.727ZM122.827 897.999C123.571 897.999 124.231 897.831 124.807 897.495C125.407 897.159 125.887 896.691 126.247 896.091C126.607 895.491 126.787 894.795 126.787 894.003C126.787 893.187 126.607 892.479 126.247 891.879C125.887 891.279 125.407 890.811 124.807 890.475C124.231 890.139 123.571 889.971 122.827 889.971C122.107 889.971 121.447 890.139 120.847 890.475C120.247 890.811 119.767 891.279 119.407 891.879C119.047 892.479 118.867 893.187 118.867 894.003C118.867 894.795 119.047 895.491 119.407 896.091C119.767 896.691 120.247 897.159 120.847 897.495C121.447 897.831 122.107 897.999 122.827 897.999Z" fill="#145858"/>
<rect x="207.329" y="963.999" width="159" height="159" rx="79.5" fill="#C8E0CA"/>
<path d="M252.768 1020.5V1008.39H254.576V1020.5H252.768ZM260.754 1020.69C259.89 1020.69 259.122 1020.49 258.45 1020.1C257.789 1019.69 257.271 1019.15 256.898 1018.47C256.525 1017.77 256.338 1017 256.338 1016.15C256.338 1015.27 256.525 1014.5 256.898 1013.83C257.282 1013.16 257.794 1012.63 258.434 1012.24C259.074 1011.85 259.799 1011.65 260.61 1011.65C261.261 1011.65 261.842 1011.76 262.354 1011.99C262.866 1012.21 263.298 1012.52 263.65 1012.92C264.002 1013.3 264.269 1013.74 264.45 1014.24C264.642 1014.74 264.738 1015.28 264.738 1015.84C264.738 1015.98 264.733 1016.13 264.722 1016.28C264.711 1016.42 264.69 1016.56 264.658 1016.69H257.762V1015.25H263.634L262.77 1015.91C262.877 1015.38 262.839 1014.92 262.658 1014.52C262.487 1014.1 262.221 1013.77 261.858 1013.54C261.506 1013.29 261.09 1013.17 260.61 1013.17C260.13 1013.17 259.703 1013.29 259.33 1013.54C258.957 1013.77 258.669 1014.12 258.466 1014.56C258.263 1015 258.183 1015.53 258.226 1016.16C258.173 1016.75 258.253 1017.26 258.466 1017.7C258.69 1018.14 258.999 1018.48 259.394 1018.72C259.799 1018.97 260.258 1019.09 260.77 1019.09C261.293 1019.09 261.735 1018.97 262.098 1018.74C262.471 1018.5 262.765 1018.2 262.978 1017.83L264.45 1018.55C264.279 1018.95 264.013 1019.32 263.65 1019.65C263.298 1019.97 262.871 1020.23 262.37 1020.42C261.879 1020.6 261.341 1020.69 260.754 1020.69ZM271.127 1020.69C270.455 1020.69 269.841 1020.55 269.287 1020.28C268.743 1020 268.321 1019.6 268.023 1019.08L268.231 1018.74V1020.5H266.503V1008.39H268.311V1013.64L268.023 1013.22C268.343 1012.73 268.769 1012.34 269.303 1012.07C269.836 1011.79 270.444 1011.65 271.127 1011.65C271.948 1011.65 272.684 1011.85 273.335 1012.24C273.996 1012.64 274.513 1013.18 274.887 1013.86C275.271 1014.54 275.463 1015.31 275.463 1016.16C275.463 1017.02 275.271 1017.78 274.887 1018.47C274.513 1019.15 274.001 1019.69 273.351 1020.1C272.7 1020.49 271.959 1020.69 271.127 1020.69ZM270.951 1019.01C271.463 1019.01 271.916 1018.89 272.311 1018.64C272.705 1018.4 273.015 1018.06 273.239 1017.64C273.473 1017.2 273.591 1016.71 273.591 1016.16C273.591 1015.62 273.473 1015.13 273.239 1014.71C273.015 1014.28 272.705 1013.94 272.311 1013.7C271.916 1013.45 271.463 1013.33 270.951 1013.33C270.449 1013.33 269.996 1013.45 269.591 1013.7C269.196 1013.94 268.881 1014.28 268.647 1014.71C268.423 1015.13 268.311 1015.62 268.311 1016.16C268.311 1016.71 268.423 1017.2 268.647 1017.64C268.881 1018.06 269.196 1018.4 269.591 1018.64C269.996 1018.89 270.449 1019.01 270.951 1019.01ZM277.221 1020.5V1011.84H279.029V1020.5H277.221ZM277.221 1010.66V1008.58H279.029V1010.66H277.221ZM281.143 1020.5V1008.39H282.951V1013.54L282.663 1013.32C282.877 1012.77 283.218 1012.36 283.687 1012.08C284.157 1011.8 284.701 1011.65 285.319 1011.65C285.959 1011.65 286.525 1011.79 287.015 1012.07C287.506 1012.34 287.89 1012.73 288.167 1013.22C288.445 1013.71 288.583 1014.27 288.583 1014.9V1020.5H286.791V1015.4C286.791 1014.96 286.706 1014.59 286.535 1014.29C286.375 1013.98 286.151 1013.75 285.863 1013.59C285.575 1013.42 285.245 1013.33 284.871 1013.33C284.509 1013.33 284.178 1013.42 283.879 1013.59C283.591 1013.75 283.362 1013.98 283.191 1014.29C283.031 1014.6 282.951 1014.97 282.951 1015.4V1020.5H281.143ZM297.315 1020.69C296.483 1020.69 295.736 1020.49 295.075 1020.1C294.424 1019.69 293.907 1019.15 293.523 1018.47C293.15 1017.78 292.963 1017.02 292.963 1016.16C292.963 1015.31 293.155 1014.54 293.539 1013.86C293.923 1013.18 294.44 1012.64 295.091 1012.24C295.742 1011.85 296.478 1011.65 297.299 1011.65C297.992 1011.65 298.606 1011.79 299.139 1012.07C299.672 1012.34 300.094 1012.73 300.403 1013.22L300.131 1013.64V1008.39H301.923V1020.5H300.211V1018.74L300.419 1019.08C300.12 1019.6 299.694 1020 299.139 1020.28C298.584 1020.55 297.976 1020.69 297.315 1020.69ZM297.491 1019.01C297.992 1019.01 298.44 1018.89 298.835 1018.64C299.24 1018.4 299.555 1018.06 299.779 1017.64C300.014 1017.2 300.131 1016.71 300.131 1016.16C300.131 1015.62 300.014 1015.13 299.779 1014.71C299.555 1014.28 299.24 1013.94 298.835 1013.7C298.44 1013.45 297.992 1013.33 297.491 1013.33C296.99 1013.33 296.536 1013.45 296.131 1013.7C295.726 1013.94 295.411 1014.28 295.187 1014.71C294.963 1015.13 294.851 1015.62 294.851 1016.16C294.851 1016.71 294.963 1017.2 295.187 1017.64C295.411 1018.06 295.72 1018.4 296.115 1018.64C296.52 1018.89 296.979 1019.01 297.491 1019.01ZM306.626 1020.69C306.039 1020.69 305.522 1020.59 305.074 1020.39C304.637 1020.17 304.295 1019.89 304.05 1019.52C303.805 1019.15 303.682 1018.71 303.682 1018.21C303.682 1017.74 303.783 1017.32 303.986 1016.95C304.199 1016.57 304.525 1016.26 304.962 1016C305.399 1015.75 305.949 1015.57 306.61 1015.46L309.618 1014.96V1016.39L306.962 1016.85C306.482 1016.94 306.13 1017.09 305.906 1017.32C305.682 1017.53 305.57 1017.81 305.57 1018.15C305.57 1018.48 305.693 1018.75 305.938 1018.96C306.194 1019.17 306.519 1019.27 306.914 1019.27C307.405 1019.27 307.831 1019.16 308.194 1018.95C308.567 1018.73 308.855 1018.45 309.058 1018.1C309.261 1017.74 309.362 1017.34 309.362 1016.9V1014.68C309.362 1014.25 309.202 1013.9 308.882 1013.64C308.573 1013.36 308.157 1013.22 307.634 1013.22C307.154 1013.22 306.733 1013.35 306.37 1013.6C306.018 1013.85 305.757 1014.17 305.586 1014.56L304.082 1013.81C304.242 1013.38 304.503 1013.01 304.866 1012.69C305.229 1012.36 305.65 1012.1 306.13 1011.92C306.621 1011.74 307.138 1011.65 307.682 1011.65C308.365 1011.65 308.967 1011.78 309.49 1012.04C310.023 1012.29 310.434 1012.65 310.722 1013.11C311.021 1013.56 311.17 1014.08 311.17 1014.68V1020.5H309.442V1018.93L309.81 1018.98C309.607 1019.33 309.346 1019.64 309.026 1019.89C308.717 1020.15 308.359 1020.34 307.954 1020.48C307.559 1020.62 307.117 1020.69 306.626 1020.69ZM313.284 1020.5V1011.84H315.012V1013.59L314.852 1013.33C315.044 1012.77 315.353 1012.36 315.78 1012.12C316.207 1011.86 316.719 1011.73 317.316 1011.73H317.844V1013.38H317.092C316.495 1013.38 316.009 1013.57 315.636 1013.94C315.273 1014.3 315.092 1014.82 315.092 1015.51V1020.5H313.284ZM319.081 1020.5V1011.84H320.889V1020.5H319.081ZM319.081 1010.66V1008.58H320.889V1010.66H319.081ZM261.671 1080.69C260.786 1080.69 260.007 1080.47 259.335 1080.04C258.674 1079.6 258.21 1079.01 257.943 1078.28L259.335 1077.62C259.57 1078.11 259.89 1078.5 260.295 1078.79C260.711 1079.08 261.17 1079.22 261.671 1079.22C262.098 1079.22 262.445 1079.12 262.711 1078.93C262.978 1078.74 263.111 1078.48 263.111 1078.15C263.111 1077.93 263.053 1077.76 262.935 1077.64C262.818 1077.5 262.669 1077.38 262.487 1077.3C262.317 1077.21 262.141 1077.15 261.959 1077.11L260.599 1076.72C259.853 1076.51 259.293 1076.19 258.919 1075.76C258.557 1075.33 258.375 1074.82 258.375 1074.24C258.375 1073.72 258.509 1073.27 258.775 1072.88C259.042 1072.49 259.41 1072.18 259.879 1071.97C260.349 1071.76 260.877 1071.65 261.463 1071.65C262.253 1071.65 262.957 1071.85 263.575 1072.24C264.194 1072.63 264.631 1073.17 264.887 1073.86L263.495 1074.52C263.325 1074.1 263.053 1073.77 262.679 1073.52C262.317 1073.28 261.906 1073.16 261.447 1073.16C261.053 1073.16 260.738 1073.25 260.503 1073.44C260.269 1073.62 260.151 1073.86 260.151 1074.16C260.151 1074.37 260.205 1074.54 260.311 1074.68C260.418 1074.8 260.557 1074.91 260.727 1075C260.898 1075.07 261.074 1075.13 261.255 1075.19L262.663 1075.6C263.378 1075.81 263.927 1076.13 264.311 1076.56C264.695 1076.99 264.887 1077.5 264.887 1078.1C264.887 1078.61 264.749 1079.06 264.471 1079.46C264.205 1079.84 263.831 1080.15 263.351 1080.37C262.871 1080.58 262.311 1080.69 261.671 1080.69ZM266.659 1083.7V1071.84H268.387V1073.64L268.179 1073.22C268.499 1072.73 268.926 1072.34 269.459 1072.07C269.992 1071.79 270.6 1071.65 271.283 1071.65C272.104 1071.65 272.84 1071.85 273.491 1072.24C274.152 1072.64 274.67 1073.18 275.043 1073.86C275.427 1074.54 275.619 1075.31 275.619 1076.16C275.619 1077.02 275.427 1077.78 275.043 1078.47C274.67 1079.15 274.158 1079.69 273.507 1080.1C272.856 1080.49 272.115 1080.69 271.283 1080.69C270.611 1080.69 269.998 1080.55 269.443 1080.28C268.899 1080 268.478 1079.6 268.179 1079.08L268.467 1078.74V1083.7H266.659ZM271.107 1079.01C271.619 1079.01 272.072 1078.89 272.467 1078.64C272.862 1078.4 273.171 1078.06 273.395 1077.64C273.63 1077.2 273.747 1076.71 273.747 1076.16C273.747 1075.62 273.63 1075.13 273.395 1074.71C273.171 1074.28 272.862 1073.94 272.467 1073.7C272.072 1073.45 271.619 1073.33 271.107 1073.33C270.606 1073.33 270.152 1073.45 269.747 1073.7C269.352 1073.94 269.038 1074.28 268.803 1074.71C268.579 1075.13 268.467 1075.62 268.467 1076.16C268.467 1076.71 268.579 1077.2 268.803 1077.64C269.038 1078.06 269.352 1078.4 269.747 1078.64C270.152 1078.89 270.606 1079.01 271.107 1079.01ZM281.442 1080.69C280.578 1080.69 279.81 1080.49 279.138 1080.1C278.476 1079.69 277.959 1079.15 277.586 1078.47C277.212 1077.77 277.026 1077 277.026 1076.15C277.026 1075.27 277.212 1074.5 277.586 1073.83C277.97 1073.16 278.482 1072.63 279.122 1072.24C279.762 1071.85 280.487 1071.65 281.298 1071.65C281.948 1071.65 282.53 1071.76 283.042 1071.99C283.554 1072.21 283.986 1072.52 284.338 1072.92C284.69 1073.3 284.956 1073.74 285.138 1074.24C285.33 1074.74 285.426 1075.28 285.426 1075.84C285.426 1075.98 285.42 1076.13 285.41 1076.28C285.399 1076.42 285.378 1076.56 285.346 1076.69H278.45V1075.25H284.322L283.458 1075.91C283.564 1075.38 283.527 1074.92 283.346 1074.52C283.175 1074.1 282.908 1073.77 282.546 1073.54C282.194 1073.29 281.778 1073.17 281.298 1073.17C280.818 1073.17 280.391 1073.29 280.018 1073.54C279.644 1073.77 279.356 1074.12 279.154 1074.56C278.951 1075 278.871 1075.53 278.914 1076.16C278.86 1076.75 278.94 1077.26 279.154 1077.7C279.378 1078.14 279.687 1078.48 280.082 1078.72C280.487 1078.97 280.946 1079.09 281.458 1079.09C281.98 1079.09 282.423 1078.97 282.786 1078.74C283.159 1078.5 283.452 1078.2 283.666 1077.83L285.138 1078.55C284.967 1078.95 284.7 1079.32 284.338 1079.65C283.986 1079.97 283.559 1080.23 283.058 1080.42C282.567 1080.6 282.028 1080.69 281.442 1080.69ZM290.39 1080.69C289.505 1080.69 288.726 1080.47 288.054 1080.04C287.393 1079.6 286.929 1079.01 286.662 1078.28L288.054 1077.62C288.289 1078.11 288.609 1078.5 289.014 1078.79C289.43 1079.08 289.889 1079.22 290.39 1079.22C290.817 1079.22 291.163 1079.12 291.43 1078.93C291.697 1078.74 291.83 1078.48 291.83 1078.15C291.83 1077.93 291.771 1077.76 291.654 1077.64C291.537 1077.5 291.387 1077.38 291.206 1077.3C291.035 1077.21 290.859 1077.15 290.678 1077.11L289.318 1076.72C288.571 1076.51 288.011 1076.19 287.638 1075.76C287.275 1075.33 287.094 1074.82 287.094 1074.24C287.094 1073.72 287.227 1073.27 287.494 1072.88C287.761 1072.49 288.129 1072.18 288.598 1071.97C289.067 1071.76 289.595 1071.65 290.182 1071.65C290.971 1071.65 291.675 1071.85 292.294 1072.24C292.913 1072.63 293.35 1073.17 293.606 1073.86L292.214 1074.52C292.043 1074.1 291.771 1073.77 291.398 1073.52C291.035 1073.28 290.625 1073.16 290.166 1073.16C289.771 1073.16 289.457 1073.25 289.222 1073.44C288.987 1073.62 288.87 1073.86 288.87 1074.16C288.87 1074.37 288.923 1074.54 289.03 1074.68C289.137 1074.8 289.275 1074.91 289.446 1075C289.617 1075.07 289.793 1075.13 289.974 1075.19L291.382 1075.6C292.097 1075.81 292.646 1076.13 293.03 1076.56C293.414 1076.99 293.606 1077.5 293.606 1078.1C293.606 1078.61 293.467 1079.06 293.19 1079.46C292.923 1079.84 292.55 1080.15 292.07 1080.37C291.59 1080.58 291.03 1080.69 290.39 1080.69ZM295.378 1080.5V1071.84H297.186V1080.5H295.378ZM295.378 1070.66V1068.58H297.186V1070.66H295.378ZM303.364 1080.69C302.5 1080.69 301.732 1080.49 301.06 1080.1C300.398 1079.69 299.881 1079.15 299.508 1078.47C299.134 1077.77 298.948 1077 298.948 1076.15C298.948 1075.27 299.134 1074.5 299.508 1073.83C299.892 1073.16 300.404 1072.63 301.044 1072.24C301.684 1071.85 302.409 1071.65 303.22 1071.65C303.87 1071.65 304.452 1071.76 304.964 1071.99C305.476 1072.21 305.908 1072.52 306.26 1072.92C306.612 1073.3 306.878 1073.74 307.06 1074.24C307.252 1074.74 307.348 1075.28 307.348 1075.84C307.348 1075.98 307.342 1076.13 307.332 1076.28C307.321 1076.42 307.3 1076.56 307.268 1076.69H300.372V1075.25H306.244L305.38 1075.91C305.486 1075.38 305.449 1074.92 305.268 1074.52C305.097 1074.1 304.83 1073.77 304.468 1073.54C304.116 1073.29 303.7 1073.17 303.22 1073.17C302.74 1073.17 302.313 1073.29 301.94 1073.54C301.566 1073.77 301.278 1074.12 301.076 1074.56C300.873 1075 300.793 1075.53 300.836 1076.16C300.782 1076.75 300.862 1077.26 301.076 1077.7C301.3 1078.14 301.609 1078.48 302.004 1078.72C302.409 1078.97 302.868 1079.09 303.38 1079.09C303.902 1079.09 304.345 1078.97 304.708 1078.74C305.081 1078.5 305.374 1078.2 305.588 1077.83L307.06 1078.55C306.889 1078.95 306.622 1079.32 306.26 1079.65C305.908 1079.97 305.481 1080.23 304.98 1080.42C304.489 1080.6 303.95 1080.69 303.364 1080.69ZM312.312 1080.69C311.427 1080.69 310.648 1080.47 309.976 1080.04C309.315 1079.6 308.851 1079.01 308.584 1078.28L309.976 1077.62C310.211 1078.11 310.531 1078.5 310.936 1078.79C311.352 1079.08 311.811 1079.22 312.312 1079.22C312.739 1079.22 313.085 1079.12 313.352 1078.93C313.619 1078.74 313.752 1078.48 313.752 1078.15C313.752 1077.93 313.693 1077.76 313.576 1077.64C313.459 1077.5 313.309 1077.38 313.128 1077.3C312.957 1077.21 312.781 1077.15 312.6 1077.11L311.24 1076.72C310.493 1076.51 309.933 1076.19 309.56 1075.76C309.197 1075.33 309.016 1074.82 309.016 1074.24C309.016 1073.72 309.149 1073.27 309.416 1072.88C309.683 1072.49 310.051 1072.18 310.52 1071.97C310.989 1071.76 311.517 1071.65 312.104 1071.65C312.893 1071.65 313.597 1071.85 314.216 1072.24C314.835 1072.63 315.272 1073.17 315.528 1073.86L314.136 1074.52C313.965 1074.1 313.693 1073.77 313.32 1073.52C312.957 1073.28 312.547 1073.16 312.088 1073.16C311.693 1073.16 311.379 1073.25 311.144 1073.44C310.909 1073.62 310.792 1073.86 310.792 1074.16C310.792 1074.37 310.845 1074.54 310.952 1074.68C311.059 1074.8 311.197 1074.91 311.368 1075C311.539 1075.07 311.715 1075.13 311.896 1075.19L313.304 1075.6C314.019 1075.81 314.568 1076.13 314.952 1076.56C315.336 1076.99 315.528 1077.5 315.528 1078.1C315.528 1078.61 315.389 1079.06 315.112 1079.46C314.845 1079.84 314.472 1080.15 313.992 1080.37C313.512 1080.58 312.952 1080.69 312.312 1080.69Z" fill="#145858"/>
<path d="M253.994 1058V1053.68L261.194 1046.26C262.61 1044.8 263.678 1043.65 264.398 1042.81C265.142 1041.94 265.646 1041.22 265.91 1040.65C266.198 1040.07 266.342 1039.51 266.342 1038.96C266.342 1037.97 266.018 1037.2 265.37 1036.65C264.746 1036.08 263.954 1035.79 262.994 1035.79C262.01 1035.79 261.134 1036.08 260.366 1036.65C259.598 1037.2 259.034 1038.06 258.674 1039.21L253.814 1037.62C254.102 1036.23 254.702 1035.02 255.614 1033.99C256.526 1032.96 257.63 1032.16 258.926 1031.61C260.222 1031.04 261.578 1030.75 262.994 1030.75C264.77 1030.75 266.33 1031.06 267.674 1031.68C269.018 1032.31 270.062 1033.18 270.806 1034.31C271.55 1035.44 271.922 1036.76 271.922 1038.27C271.922 1039.23 271.754 1040.18 271.418 1041.12C271.082 1042.03 270.566 1042.96 269.87 1043.92C269.198 1044.86 268.322 1045.88 267.242 1046.98L261.086 1053.32H272.174V1058H253.994ZM284.439 1058.43C282.951 1058.43 281.535 1058.16 280.191 1057.6C278.847 1057.03 277.707 1056.22 276.771 1055.19C275.835 1054.16 275.211 1052.95 274.899 1051.56L279.831 1049.9C280.239 1051.05 280.839 1051.93 281.631 1052.53C282.423 1053.1 283.359 1053.39 284.439 1053.39C285.327 1053.39 286.083 1053.22 286.707 1052.89C287.355 1052.55 287.859 1052.08 288.219 1051.48C288.579 1050.86 288.759 1050.14 288.759 1049.32C288.759 1048.51 288.579 1047.81 288.219 1047.24C287.883 1046.64 287.391 1046.18 286.743 1045.87C286.119 1045.53 285.351 1045.36 284.439 1045.36C283.911 1045.36 283.383 1045.42 282.855 1045.54C282.327 1045.66 281.847 1045.83 281.415 1046.05L280.119 1043.35L286.995 1035.86H276.519V1031.18H293.259V1035.5L286.203 1043.53L286.383 1041.26C287.991 1041.26 289.383 1041.6 290.559 1042.27C291.759 1042.92 292.683 1043.83 293.331 1045C294.003 1046.18 294.339 1047.55 294.339 1049.11C294.339 1050.88 293.907 1052.48 293.043 1053.9C292.179 1055.31 291.003 1056.43 289.515 1057.24C288.027 1058.04 286.335 1058.43 284.439 1058.43ZM308.57 1058.43C306.434 1058.43 304.55 1057.86 302.918 1056.7C301.31 1055.55 300.05 1053.93 299.138 1051.84C298.226 1049.76 297.77 1047.33 297.77 1044.57C297.77 1041.79 298.214 1039.36 299.102 1037.3C300.014 1035.24 301.274 1033.63 302.882 1032.48C304.514 1031.32 306.398 1030.75 308.534 1030.75C310.718 1030.75 312.614 1031.32 314.222 1032.48C315.854 1033.63 317.114 1035.25 318.002 1037.34C318.914 1039.4 319.37 1041.81 319.37 1044.57C319.37 1047.33 318.914 1049.76 318.002 1051.84C317.114 1053.91 315.854 1055.53 314.222 1056.7C312.614 1057.86 310.73 1058.43 308.57 1058.43ZM308.606 1053.39C309.71 1053.39 310.646 1053.04 311.414 1052.35C312.182 1051.65 312.77 1050.64 313.178 1049.32C313.586 1048 313.79 1046.42 313.79 1044.57C313.79 1042.72 313.586 1041.15 313.178 1039.86C312.77 1038.54 312.17 1037.53 311.378 1036.83C310.61 1036.14 309.662 1035.79 308.534 1035.79C307.43 1035.79 306.494 1036.14 305.726 1036.83C304.958 1037.53 304.37 1038.54 303.962 1039.86C303.554 1041.15 303.35 1042.72 303.35 1044.57C303.35 1046.4 303.554 1047.97 303.962 1049.29C304.37 1050.61 304.958 1051.63 305.726 1052.35C306.518 1053.04 307.478 1053.39 308.606 1053.39Z" fill="#145858"/>
<rect x="89.5" y="436.649" width="196" height="196" rx="98" fill="#C8E0CA"/>
<path d="M107.842 546.149V542.229H109.102C109.942 542.229 110.614 541.995 111.118 541.529C111.641 541.043 111.902 540.409 111.902 539.625V525.289H116.242V539.429C116.242 540.773 115.953 541.949 115.374 542.957C114.795 543.965 113.965 544.749 112.882 545.309C111.818 545.869 110.558 546.149 109.102 546.149H107.842ZM126.924 546.485C125.3 546.485 123.89 546.13 122.696 545.421C121.501 544.693 120.577 543.722 119.924 542.509C119.27 541.295 118.944 539.951 118.944 538.477C118.944 536.946 119.28 535.583 119.952 534.389C120.642 533.194 121.566 532.251 122.724 531.561C123.881 530.87 125.188 530.525 126.644 530.525C127.857 530.525 128.93 530.721 129.864 531.113C130.797 531.486 131.581 532.018 132.216 532.709C132.869 533.399 133.364 534.202 133.7 535.117C134.036 536.013 134.204 536.993 134.204 538.057C134.204 538.355 134.185 538.654 134.148 538.953C134.129 539.233 134.082 539.475 134.008 539.681H122.556V536.601H131.628L129.64 538.057C129.826 537.254 129.817 536.545 129.612 535.929C129.406 535.294 129.042 534.799 128.52 534.445C128.016 534.071 127.39 533.885 126.644 533.885C125.916 533.885 125.29 534.062 124.768 534.417C124.245 534.771 123.853 535.294 123.592 535.985C123.33 536.675 123.228 537.515 123.284 538.505C123.209 539.363 123.312 540.119 123.592 540.773C123.872 541.426 124.301 541.939 124.88 542.313C125.458 542.667 126.158 542.845 126.98 542.845C127.726 542.845 128.361 542.695 128.884 542.397C129.425 542.098 129.845 541.687 130.144 541.165L133.504 542.761C133.205 543.507 132.729 544.161 132.076 544.721C131.441 545.281 130.685 545.719 129.808 546.037C128.93 546.335 127.969 546.485 126.924 546.485ZM136.677 546.149V524.953H140.877V546.149H136.677ZM148.682 546.485C147.581 546.485 146.629 546.307 145.826 545.953C145.023 545.598 144.407 545.094 143.978 544.441C143.549 543.769 143.334 542.975 143.334 542.061C143.334 541.202 143.53 540.446 143.922 539.793C144.314 539.121 144.911 538.561 145.714 538.113C146.535 537.665 147.553 537.347 148.766 537.161L153.442 536.405V539.485L149.522 540.185C148.925 540.297 148.467 540.493 148.15 540.773C147.833 541.034 147.674 541.417 147.674 541.921C147.674 542.387 147.851 542.751 148.206 543.013C148.561 543.274 148.999 543.405 149.522 543.405C150.213 543.405 150.819 543.255 151.342 542.957C151.865 542.658 152.266 542.257 152.546 541.753C152.845 541.23 152.994 540.661 152.994 540.045V536.069C152.994 535.49 152.761 535.005 152.294 534.613C151.846 534.221 151.23 534.025 150.446 534.025C149.699 534.025 149.037 534.23 148.458 534.641C147.898 535.051 147.487 535.593 147.226 536.265L143.866 534.669C144.165 533.81 144.641 533.073 145.294 532.457C145.947 531.841 146.731 531.365 147.646 531.029C148.561 530.693 149.559 530.525 150.642 530.525C151.93 530.525 153.069 530.758 154.058 531.225C155.047 531.691 155.813 532.345 156.354 533.185C156.914 534.006 157.194 534.967 157.194 536.069V546.149H153.274V543.685L154.226 543.517C153.778 544.189 153.283 544.749 152.742 545.197C152.201 545.626 151.594 545.943 150.922 546.149C150.25 546.373 149.503 546.485 148.682 546.485ZM158.426 552.365C158.146 552.365 157.876 552.346 157.614 552.309C157.334 552.29 157.101 552.262 156.914 552.225V548.641C157.232 548.697 157.549 548.725 157.866 548.725C158.669 548.725 159.266 548.557 159.658 548.221C160.069 547.885 160.274 547.381 160.274 546.709V530.861H164.474V546.709C164.474 547.903 164.232 548.921 163.746 549.761C163.28 550.619 162.589 551.263 161.674 551.693C160.778 552.141 159.696 552.365 158.426 552.365ZM160.274 529.489V525.289H164.474V529.489H160.274ZM172.28 546.485C171.178 546.485 170.226 546.307 169.424 545.953C168.621 545.598 168.005 545.094 167.576 544.441C167.146 543.769 166.932 542.975 166.932 542.061C166.932 541.202 167.128 540.446 167.52 539.793C167.912 539.121 168.509 538.561 169.312 538.113C170.133 537.665 171.15 537.347 172.364 537.161L177.04 536.405V539.485L173.12 540.185C172.522 540.297 172.065 540.493 171.748 540.773C171.43 541.034 171.272 541.417 171.272 541.921C171.272 542.387 171.449 542.751 171.804 543.013C172.158 543.274 172.597 543.405 173.12 543.405C173.81 543.405 174.417 543.255 174.94 542.957C175.462 542.658 175.864 542.257 176.144 541.753C176.442 541.23 176.592 540.661 176.592 540.045V536.069C176.592 535.49 176.358 535.005 175.892 534.613C175.444 534.221 174.828 534.025 174.044 534.025C173.297 534.025 172.634 534.23 172.056 534.641C171.496 535.051 171.085 535.593 170.824 536.265L167.464 534.669C167.762 533.81 168.238 533.073 168.892 532.457C169.545 531.841 170.329 531.365 171.244 531.029C172.158 530.693 173.157 530.525 174.24 530.525C175.528 530.525 176.666 530.758 177.656 531.225C178.645 531.691 179.41 532.345 179.952 533.185C180.512 534.006 180.792 534.967 180.792 536.069V546.149H176.872V543.685L177.824 543.517C177.376 544.189 176.881 544.749 176.34 545.197C175.798 545.626 175.192 545.943 174.52 546.149C173.848 546.373 173.101 546.485 172.28 546.485ZM183.872 546.149V524.953H188.072V533.885L187.568 533.213C187.923 532.298 188.492 531.626 189.276 531.197C190.079 530.749 191.012 530.525 192.076 530.525C193.233 530.525 194.241 530.767 195.1 531.253C195.977 531.738 196.659 532.419 197.144 533.297C197.629 534.155 197.872 535.163 197.872 536.321V546.149H193.672V537.217C193.672 536.619 193.551 536.106 193.308 535.677C193.084 535.247 192.757 534.911 192.328 534.669C191.917 534.426 191.432 534.305 190.872 534.305C190.331 534.305 189.845 534.426 189.416 534.669C188.987 534.911 188.651 535.247 188.408 535.677C188.184 536.106 188.072 536.619 188.072 537.217V546.149H183.872ZM200.634 546.149V530.861H204.834V546.149H200.634ZM200.634 529.489V525.289H204.834V529.489H200.634ZM213.246 546.149V525.289H217.586V535.733L216.382 535.313L224.726 525.289H230.158L221.898 535.257L222.15 532.177L230.326 546.149H225.258L220.162 537.329L217.586 540.437V546.149H213.246ZM232.469 546.149V525.289H241.289C242.726 525.289 243.958 525.531 244.985 526.017C246.012 526.502 246.796 527.202 247.337 528.117C247.878 529.013 248.149 530.105 248.149 531.393C248.149 532.307 247.897 533.185 247.393 534.025C246.889 534.846 246.058 535.537 244.901 536.097V533.969C246.002 534.398 246.852 534.911 247.449 535.509C248.046 536.106 248.457 536.759 248.681 537.469C248.905 538.159 249.017 538.887 249.017 539.653C249.017 541.706 248.336 543.302 246.973 544.441C245.61 545.579 243.716 546.149 241.289 546.149H232.469ZM236.809 542.369H241.793C242.67 542.369 243.37 542.117 243.893 541.613C244.416 541.109 244.677 540.455 244.677 539.653C244.677 538.831 244.416 538.169 243.893 537.665C243.37 537.161 242.67 536.909 241.793 536.909H236.809V542.369ZM236.809 533.129H241.597C242.269 533.129 242.801 532.942 243.193 532.569C243.604 532.177 243.809 531.663 243.809 531.029C243.809 530.394 243.604 529.89 243.193 529.517C242.801 529.125 242.269 528.929 241.597 528.929H236.809V533.129ZM259.389 546.485C258.082 546.485 256.85 546.251 255.693 545.785C254.554 545.299 253.565 544.618 252.725 543.741C251.904 542.863 251.288 541.827 250.877 540.633L254.433 539.037C254.956 540.175 255.674 541.071 256.589 541.725C257.522 542.378 258.549 542.705 259.669 542.705C260.266 542.705 260.78 542.611 261.209 542.425C261.638 542.238 261.974 541.986 262.217 541.669C262.46 541.333 262.581 540.941 262.581 540.493C262.581 540.007 262.432 539.597 262.133 539.261C261.834 538.906 261.368 538.626 260.733 538.421L256.645 537.077C254.984 536.535 253.733 535.77 252.893 534.781C252.053 533.773 251.633 532.569 251.633 531.169C251.633 529.937 251.932 528.854 252.529 527.921C253.145 526.987 253.994 526.259 255.077 525.737C256.178 525.214 257.438 524.953 258.857 524.953C260.108 524.953 261.265 525.167 262.329 525.597C263.393 526.026 264.308 526.633 265.073 527.417C265.857 528.201 266.445 529.143 266.837 530.245L263.309 531.841C262.917 530.87 262.329 530.114 261.545 529.573C260.761 529.013 259.865 528.733 258.857 528.733C258.278 528.733 257.765 528.826 257.317 529.013C256.869 529.199 256.524 529.47 256.281 529.825C256.038 530.161 255.917 530.553 255.917 531.001C255.917 531.486 256.076 531.915 256.393 532.289C256.71 532.643 257.186 532.923 257.821 533.129L261.825 534.417C263.505 534.958 264.756 535.714 265.577 536.685C266.417 537.655 266.837 538.841 266.837 540.241C266.837 541.454 266.52 542.537 265.885 543.489C265.25 544.422 264.373 545.159 263.253 545.701C262.152 546.223 260.864 546.485 259.389 546.485Z" fill="#145858"/>
</svg>
