<svg width="289" height="267" viewBox="0 0 289 267" fill="none" xmlns="http://www.w3.org/2000/svg">
<path d="M240.628 81.7034H245.758V34.9863H240.628V81.7034Z" fill="#5BC9F4"/>
<path d="M240.628 143.656H245.758V96.9405H240.628V143.656Z" fill="#5BC9F4"/>
<path d="M47.7383 256.858L48.8713 244.568C48.9863 245.485 49.0403 246.458 49.041 247.459C49.0416 250.582 48.525 253.986 47.7383 256.858Z" fill="#4B3177"/>
<path d="M285.941 179.861H209.564L195.2 266.042H228.487L244.698 210.868L250.602 266.042H282.521L288.058 210.316C289.071 200.118 288.356 189.821 285.941 179.861Z" fill="white"/>
<path d="M244.698 210.868L225.752 203.8L226.175 204.827C228.144 209.611 232.447 213.038 237.551 213.889L230.104 260.543L244.698 210.868Z" fill="#3E3E3E"/>
<path d="M202.981 219.356L205.346 205.168H226.319C227.097 206.932 228.196 208.502 229.535 209.815L202.981 219.356ZM235.821 207.557L229.419 205.168H232.591V185.333V179.861H285.941L237.622 182.81L235.821 207.557Z" fill="#8C8C8C"/>
<path d="M229.536 209.815C228.196 208.502 227.098 206.932 226.32 205.168H229.42L235.822 207.557L229.536 209.815Z" fill="#131313"/>
<path d="M263.609 97.9991C270.075 76.5434 271.797 53.672 268.618 31.4906C267.789 25.7041 266.607 19.8934 264.062 14.6312C261.518 9.36896 257.477 4.65321 252.149 2.25307C246.819 -0.147697 239.122 -0.567749 234.516 3.02959C229.107 -0.939499 221.354 -0.843521 215.455 2.35475C209.558 5.55302 205.428 11.4316 203.267 17.7837C201.106 24.1351 200.745 30.9619 200.975 37.6679C201.205 44.3726 202.003 51.0532 202.086 57.7624C202.335 77.8944 195.911 98.0531 184.059 114.329C210.811 115.058 239.416 109.443 263.609 97.9991Z" fill="#742844"/>
<path d="M256.944 48.0183C251.474 51.6575 245.387 54.3843 239.226 56.6643C231.028 54.3525 223.861 50.1121 217.146 44.874C218.463 68.4597 213.788 92.341 203.792 113.738C219.336 112.415 234.987 109.08 249.586 103.814C255.071 85.7957 257.57 66.8539 256.944 48.0183Z" fill="#3F244A"/>
<path d="M271.578 78.2833H216.339L204.425 108.916C202.414 114.086 203.582 119.952 207.42 123.957C210.101 126.755 211.528 130.522 211.374 134.394L209.564 179.861H285.941C283.433 159.114 264.51 152.274 269.981 119.215C275.453 86.1567 271.578 78.2833 271.578 78.2833Z" fill="#F7B318"/>
<path d="M246.613 127.081H212.325C214.842 127.081 216.789 124.706 219.01 123.522C221.323 122.29 223.889 121.018 226.449 121.576C228.843 122.098 230.663 124.12 233.017 124.797C235.256 125.44 237.629 124.788 239.941 124.5C242.251 124.211 245.198 125.23 246.613 127.081Z" fill="#AC8427"/>
<path d="M259.738 89.32L270.17 140.647L267.583 159.554C266.932 164.309 264.312 168.571 260.364 171.301L247.981 179.861H232.591V154.041L241.853 149.082L248.339 127.081L246.58 124.303L259.738 89.32Z" fill="#AC8427"/>
<path d="M248.067 47.4298C248.109 45.5368 248.598 43.6215 249.681 42.0678C250.763 40.5141 252.477 39.3576 254.36 39.1663C256.244 38.975 258.253 39.8469 259.219 41.4756C260.163 43.0661 260.032 45.064 259.672 46.8783C259.349 48.5101 258.852 50.1363 257.925 51.5171C256.997 52.898 255.594 54.0183 253.959 54.3252C252.477 54.6035 250.26 54.0043 249.204 52.8357C248.055 51.5654 248.032 49.0147 248.067 47.4298Z" fill="#FAC1A4"/>
<path d="M255.724 41.7069C254.136 42.1542 252.743 43.2593 251.946 44.7043C251.149 46.1494 250.958 47.9166 251.426 49.4989C251.629 50.1833 252.007 50.8867 252.672 51.1454C253.416 51.4339 254.282 51.0494 254.81 50.4502C255.54 49.6196 255.769 48.3779 255.38 47.3415C254.991 46.3051 254.003 45.5196 252.906 45.3754C253.196 43.8528 254.362 42.4466 255.724 41.7069Z" fill="#F79484"/>
<path d="M216.339 78.2833C209.775 78.2833 203.878 82.2969 201.469 88.4043L194.174 106.904L204.425 108.916L216.339 78.2833Z" fill="#F7B318"/>
<path d="M204.425 108.916L212.325 88.6045L200.317 108.11L204.425 108.916Z" fill="#AC8427"/>
<path d="M233.275 67.1761V78.2833H229.273L230.413 82.6362C231.445 86.5742 235.002 89.32 239.072 89.32C242.511 89.32 245.646 87.3494 247.137 84.2509L250.01 78.2833L249.055 53.7533L233.275 67.1761Z" fill="#FAC1A4"/>
<path d="M249.055 53.7533L233.275 67.1761V77.1789C241.055 77.1789 243.768 69.0234 249.288 59.7368L249.055 53.7533Z" fill="#F79484"/>
<path d="M182.775 133.864H222.673C223.806 133.864 224.725 134.782 224.725 135.916V138.594C224.725 139.728 223.806 140.647 222.673 140.647H182.775C181.642 140.647 180.723 139.728 180.723 138.594V135.916C180.723 134.782 181.642 133.864 182.775 133.864Z" fill="#3E4C78"/>
<path d="M190.697 133.864H145.384C144.251 133.864 143.333 134.782 143.333 135.916V138.594C143.333 139.728 144.251 140.647 145.384 140.647H190.697C191.831 140.647 192.75 139.728 192.75 138.594V135.916C192.75 134.782 191.831 133.864 190.697 133.864Z" fill="#73769E"/>
<path d="M180.438 127.081H218.912C220.045 127.081 220.963 128 220.963 129.133V131.812C220.963 132.945 220.045 133.864 218.912 133.864H180.438C179.305 133.864 178.386 132.945 178.386 131.812V129.133C178.386 128 179.305 127.081 180.438 127.081Z" fill="#F57E5A"/>
<path d="M188.361 127.081H148.463C147.329 127.081 146.411 128 146.411 129.133V131.812C146.411 132.945 147.329 133.864 148.463 133.864H188.361C189.494 133.864 190.412 132.945 190.412 131.812V129.133C190.412 128 189.494 127.081 188.361 127.081Z" fill="#FDDC6F"/>
<path d="M178.945 120.298H216.339C217.472 120.298 218.391 121.217 218.391 122.35V125.029C218.391 126.162 217.472 127.081 216.339 127.081H178.945C177.811 127.081 176.893 126.162 176.893 125.029V122.35C176.893 121.217 177.811 120.298 178.945 120.298Z" fill="#BD2B61"/>
<path d="M186.867 120.298H151.881C150.748 120.298 149.83 121.217 149.83 122.35V125.029C149.83 126.162 150.748 127.081 151.881 127.081H186.867C188 127.081 188.919 126.162 188.919 125.029V122.35C188.919 121.217 188 120.298 186.867 120.298Z" fill="#E9465C"/>
<path d="M177.185 113.516H211.681C214.573 113.516 215.492 114.434 215.492 115.568V118.246C215.492 119.38 214.573 120.298 211.681 120.298H177.185C177.811 120.298 176.893 119.38 176.893 118.246V115.568C176.893 114.434 177.811 113.516 177.185 113.516Z" fill="#543894"/>
<path d="M185.108 113.516H155.416C154.283 113.516 153.364 114.434 153.364 115.568V118.246C153.364 119.38 154.283 120.298 155.416 120.298H185.108C186.241 120.298 187.16 119.38 187.16 118.246V115.568C187.16 114.434 186.241 113.516 185.108 113.516Z" fill="#6A64B8"/>
<path d="M135.467 205.168H196.569V140.647H135.467V205.168Z" fill="#F4892D"/>
<path d="M196.569 205.168H232.591V140.647H196.569V205.168Z" fill="#D55E3E"/>
<path d="M232.591 205.168H196.569V140.647L203.077 166.263C204.444 171.645 208.339 176.029 213.524 178.018L232.591 185.333V205.168Z" fill="#B75141"/>
<path d="M191.688 168.69L140.161 172.091L138.921 153.323L190.449 149.922L191.688 168.69Z" fill="#FEEFCC"/>
<path d="M146.142 167.054L143.702 167.215L143.18 159.309L145.728 159.14C146.495 159.09 147.162 159.205 147.729 159.485C148.295 159.763 148.743 160.187 149.073 160.757C149.402 161.325 149.594 162.018 149.648 162.837C149.703 163.66 149.603 164.379 149.349 164.993C149.094 165.604 148.697 166.088 148.157 166.444C147.617 166.798 146.945 167.001 146.142 167.054ZM144.604 166.303L146.024 166.209C146.678 166.166 147.212 166.004 147.625 165.723C148.038 165.443 148.335 165.062 148.515 164.583C148.695 164.103 148.764 163.541 148.722 162.898C148.68 162.259 148.539 161.717 148.3 161.27C148.061 160.82 147.726 160.486 147.295 160.266C146.865 160.044 146.34 159.953 145.723 159.994L144.194 160.095L144.604 166.303Z" fill="#51ADBF"/>
<path d="M157.927 162.306C157.982 163.14 157.879 163.87 157.618 164.497C157.357 165.125 156.974 165.62 156.471 165.985C155.968 166.349 155.379 166.553 154.705 166.598C154.03 166.642 153.42 166.517 152.873 166.222C152.326 165.927 151.882 165.486 151.541 164.899C151.2 164.311 151.002 163.6 150.946 162.766C150.891 161.933 150.994 161.202 151.255 160.575C151.516 159.947 151.899 159.452 152.402 159.087C152.905 158.723 153.494 158.519 154.168 158.475C154.843 158.43 155.453 158.555 156 158.85C156.547 159.145 156.991 159.586 157.332 160.173C157.673 160.761 157.872 161.472 157.927 162.306ZM157 162.367C156.955 161.682 156.802 161.112 156.542 160.656C156.284 160.2 155.953 159.864 155.549 159.647C155.147 159.431 154.706 159.339 154.228 159.37C153.749 159.402 153.323 159.551 152.95 159.819C152.58 160.086 152.296 160.463 152.098 160.949C151.903 161.435 151.828 162.021 151.873 162.705C151.918 163.39 152.07 163.96 152.327 164.416C152.587 164.872 152.918 165.208 153.321 165.425C153.725 165.641 154.167 165.733 154.646 165.702C155.124 165.67 155.549 165.521 155.919 165.253C156.291 164.986 156.576 164.609 156.771 164.123C156.969 163.637 157.045 163.051 157 162.367Z" fill="#51ADBF"/>
<path d="M165.545 157.832L166.067 165.739L165.141 165.8L160.422 159.876L160.345 159.881L160.755 166.09L159.798 166.153L159.276 158.246L160.202 158.185L164.937 164.123L165.014 164.118L164.603 157.894L165.545 157.832Z" fill="#51ADBF"/>
<path d="M168.308 165.591L167.304 165.657L169.685 157.559L170.673 157.493L174.099 165.209L173.095 165.275L170.293 158.775L170.231 158.779L168.308 165.591ZM168.474 162.478L172.52 162.211L172.576 163.06L168.53 163.327L168.474 162.478Z" fill="#51ADBF"/>
<path d="M173.508 158.159L173.452 157.31L179.382 156.919L179.438 157.768L176.952 157.932L177.418 164.989L176.461 165.053L175.995 157.995L173.508 158.159Z" fill="#51ADBF"/>
<path d="M181.382 164.728L180.86 156.821L185.632 156.506L185.688 157.355L181.874 157.607L182.05 160.279L185.617 160.043L185.673 160.893L182.106 161.128L182.283 163.815L186.16 163.559L186.216 164.409L181.382 164.728Z" fill="#51ADBF"/>
<path d="M159.862 151.941V146.574H167.1V151.463L159.862 151.941Z" fill="#FBD0AA"/>
<path d="M167.1 152.958H159.862V151.941L167.1 151.463V152.958Z" fill="#FFFAEF"/>
<path d="M170.262 111.008L179.389 91.6699C180.191 89.9726 182.211 89.2387 183.915 90.0247L189.614 92.6543L194.516 90.1817C196.23 89.3168 198.321 90.0323 199.145 91.7665L208.508 111.464L198.62 113.516L170.262 111.008Z" fill="#BE3955"/>
<path d="M189.614 92.6542L181.296 96.8508C181.008 92.4833 183.174 91.9133 189.614 92.6542Z" fill="#3F244A"/>
<path d="M172.952 105.308L170.262 111.008L198.62 113.516L208.508 111.464L205.581 105.308H172.952Z" fill="#3F244A"/>
<path d="M222.559 113.516H159.862C167.12 107.111 178.178 105.023 187.161 108.632C190.779 110.085 194.201 112.376 198.096 112.585C202.274 112.81 206.19 110.587 210.343 110.073C214.291 109.584 219.426 111.064 222.559 113.516Z" fill="#BE3955"/>
<path d="M208.507 38.9147L212.576 54.2731C214.197 60.392 217.917 65.747 223.085 69.4022L223.957 70.0179C226.905 72.1022 230.569 72.9086 234.119 72.2548C237.435 71.6441 240.398 69.8063 242.419 67.1075L248.02 59.6256C249.75 57.3164 250.403 54.3748 249.815 51.5502C246.945 49.9838 245.001 47.1376 244.584 43.8954L244.077 39.941C237.143 37.7982 231.536 32.6592 228.797 25.938L228.067 24.1466C222.855 33.967 213.066 38.4438 208.507 38.9147Z" fill="#FAC1A4"/>
<path d="M238.466 40.1506L227.455 38.7564C228.681 37.8941 230.153 37.1176 231.65 37.0248C232.879 36.9492 234.102 37.3228 235.195 37.8935C236.286 38.4641 237.495 39.3932 238.466 40.1506Z" fill="#742844"/>
<path d="M233.596 44.2436C233.6 45.4682 232.926 46.4633 232.089 46.4658C231.254 46.4684 230.573 45.4777 230.569 44.2532C230.565 43.0286 231.239 42.0335 232.076 42.031C232.911 42.0284 233.592 43.0191 233.596 44.2436Z" fill="#3F244A"/>
<path d="M210.894 40.5294L218.432 39.0761C217.587 38.2201 216.574 37.4512 215.548 37.3673C214.706 37.298 213.869 37.6787 213.123 38.255C212.379 38.8308 211.556 39.7668 210.894 40.5294Z" fill="#742844"/>
<path d="M214.265 44.548C214.265 45.7726 214.73 46.7658 215.302 46.7658C215.876 46.7658 216.339 45.7726 216.339 44.548C216.339 43.3235 215.876 42.3309 215.302 42.3309C214.73 42.3309 214.265 43.3235 214.265 44.548Z" fill="#3F244A"/>
<path d="M225.522 55.769C223.185 55.6737 220.849 55.579 218.513 55.4837C219.399 56.2665 220.35 57.0679 221.392 57.6258C222.674 57.1022 224.241 56.2932 225.522 55.769Z" fill="#F79484"/>
<path d="M235.564 57.6862C231.105 59.128 226.646 60.5692 222.186 62.0111C222.988 63.3716 224.345 64.497 225.861 64.9361C227.378 65.3759 229.06 65.2132 230.465 64.4926C232.916 63.2344 234.399 60.1822 235.564 57.6862Z" fill="white"/>
<path d="M221.116 43.8979C221.018 43.8979 220.922 43.8566 220.854 43.7759L218.693 41.2068C218.572 41.0619 218.591 40.8465 218.736 40.7245C218.88 40.6044 219.095 40.6215 219.217 40.7664L221.378 43.3362C221.499 43.4805 221.481 43.6959 221.336 43.8179C221.272 43.8713 221.194 43.8979 221.116 43.8979Z" fill="#F79484"/>
<path d="M218.536 55.8598L218.385 55.8242C218.216 55.741 218.147 55.5357 218.23 55.3661C219.596 52.605 221.957 46.7194 221.981 46.6609C222.051 46.4849 222.253 46.3997 222.425 46.4703C222.601 46.5408 222.686 46.7397 222.616 46.9151C222.592 46.9748 220.22 52.8846 218.843 55.6692C218.784 55.7899 218.662 55.8598 218.536 55.8598Z" fill="#F79484"/>
<path d="M251.286 125.371L245.131 150.906L212.072 186.929C206.604 183.544 200.991 181.64 197.751 180.725C196.281 180.311 194.786 181.288 194.562 182.798C194.402 183.884 194.954 184.95 195.938 185.438C198.162 186.543 202.02 188.609 203.522 190.349L189.685 204.582C188.555 205.743 188.694 207.629 189.981 208.613C190.86 209.286 192.063 209.353 193.013 208.784L196.569 206.65L203.835 208.555C206.58 209.275 209.495 208.388 211.376 206.264L220.621 195.821L257.094 167.907C261.169 164.788 264.135 160.44 265.552 155.507L272.261 132.154L251.286 125.371Z" fill="#FAC1A4"/>
<path d="M251.286 125.371L272.261 132.154L270.625 137.851L250.943 126.794L251.286 125.371Z" fill="#3F244A"/>
<path d="M275.658 133.252L249.055 124.65L260.485 86.8481C262.442 80.3727 269.345 76.7786 275.772 78.887C281.573 80.7902 285.033 86.7305 283.827 92.7146L275.658 133.252Z" fill="#F7B318"/>
<path d="M3.00391 205.168L4.82767 266.042H46.892L50.1887 230.277L54.3427 266.042H90.5525L83.4849 205.168H3.00391Z" fill="#3A476C"/>
<path d="M50.189 230.277L69.5775 221.199L56.1261 235.606L58.4061 266.042H54.343L50.189 230.277Z" fill="#3F244A"/>
<path d="M86.6495 232.426L69.1267 209.871H3.14434L3.00391 205.168H65.4735H83.4849L86.6495 232.425" fill="#3D385F"/>
<path d="M90.5523 98.0118L108.336 127.081L90.5523 148.171L77.7847 132.439L83.4847 98.0118H90.5523Z" fill="#C8E0CA"/>
<path d="M85.4515 117.54C85.6434 114.297 85.9929 110.928 84.8256 107.898C84.295 106.52 83.465 105.295 82.4566 104.218L77.7847 132.439L88.0956 145.143C85.8042 136.151 84.9031 126.804 85.4515 117.54Z" fill="#587C5B"/>
<path d="M106.657 129.072L119.508 148.171L135.467 159.798V178.721L111.509 165.829C108.303 164.103 105.444 161.797 103.08 159.027L92.1714 146.251L106.657 129.072Z" fill="#F79484"/>
<path d="M106.657 129.072L107.599 130.472L96.7289 151.589L92.1714 146.251L106.657 129.072Z" fill="#3F244A"/>
<path d="M51.0814 82.309H48.0712C38.3932 82.309 29.4357 87.4981 24.699 95.937C9.67292 122.707 0.495605 168.131 0.495605 205.168H83.4848C78.4691 157.746 80.7485 118.075 90.5524 98.0118C82.6879 82.309 77.9798 82.9819 71.099 82.9819C64.2195 82.9819 51.0814 82.309 51.0814 82.309Z" fill="#C8E0CA"/>
<path d="M79.3808 186.929L81.4835 180.314L67.7531 155.306L64.504 136.429L66.385 135.175L52.4354 97.7513L25.2002 105.445L32.8454 149.71C34.8077 161.073 39.5343 171.78 46.6088 180.887L65.4731 205.168H83.4846L79.3808 186.929Z" fill="#587C5B"/>
<path d="M38.7979 143.382L61.1413 135.175L65.7013 156.834L98.1898 205.168C106.568 205.681 110.501 215.086 112.382 217.138H123.045C124.795 217.138 126.331 218.303 126.803 219.987C129.17 219.987 131.255 221.543 131.93 223.812L132.047 224.205H129.653L130.565 226.827L106.232 230.218C104.074 230.519 101.918 229.656 100.563 227.951L89.526 214.06L49.7316 169.59C47.1828 166.741 45.2592 163.39 44.0842 159.752L38.7979 143.382Z" fill="#F79484"/>
<path d="M94.2573 213.205L100.855 223.5C101.631 224.711 102.697 225.709 103.956 226.406L115.033 232.527C116.083 229.427 114.846 226.014 112.054 224.306L108.022 221.839C111.784 213.462 104.944 210.555 102.978 209.87L94.2573 213.205Z" fill="#F79484"/>
<path d="M115.033 232.869L114.867 232.826L103.791 226.705C102.486 225.985 101.372 224.94 100.566 223.684L93.9691 213.39C93.8674 213.23 93.9132 213.019 94.0727 212.917C94.2309 212.814 94.4425 212.861 94.5448 213.021L101.142 223.316C101.886 224.476 102.916 225.441 104.121 226.106L114.829 232.024C115.608 229.169 114.432 226.161 111.875 224.598L107.844 222.132C107.697 222.042 107.64 221.857 107.71 221.7C108.928 218.988 109.117 216.619 108.271 214.657C107.131 212.013 104.394 210.725 102.866 210.193C102.687 210.132 102.592 209.937 102.655 209.759C102.717 209.579 102.913 209.487 103.09 209.547C104.726 210.116 107.656 211.502 108.899 214.387C109.794 216.463 109.645 218.923 108.455 221.704L112.232 224.014C115.181 225.817 116.466 229.363 115.357 232.637C115.324 232.733 115.251 232.809 115.156 232.846L115.033 232.869Z" fill="#F46F7C"/>
<path d="M128.414 224.524H128.408L117.449 224.32C117.26 224.316 117.11 224.16 117.113 223.971C117.117 223.782 117.252 223.612 117.462 223.636L128.421 223.841C128.609 223.844 128.759 224 128.756 224.189C128.752 224.376 128.6 224.524 128.414 224.524Z" fill="#F46F7C"/>
<path d="M116.942 220.785C116.76 220.785 116.609 220.643 116.6 220.46C116.592 220.271 116.738 220.111 116.926 220.102L125.934 219.686C126.123 219.658 126.283 219.823 126.291 220.011C126.3 220.2 126.154 220.359 125.965 220.368L116.958 220.785L116.942 220.785Z" fill="#F46F7C"/>
<path d="M61.1413 135.175L38.7979 143.382L41.0315 150.299L61.5791 137.255L61.1413 135.175Z" fill="#3F244A"/>
<path d="M63.197 134.419L35.8017 144.483L25.2003 105.445C23.1891 98.0366 27.4498 90.3761 34.8047 88.1781C42.319 85.9311 50.2273 90.2255 52.4355 97.7513L63.197 134.419Z" fill="#C8E0CA"/>
<path d="M54.4158 61.0204C54.4158 61.0204 52.3639 79.4024 51.0815 82.309C54.3421 82.98 57.2728 85.0904 59.8032 87.2541C62.333 89.4179 65.0896 91.6235 68.3889 92.0671C70.1511 92.3035 72.168 91.8885 73.1847 90.4302C73.9854 89.2812 73.9822 87.7142 73.4859 86.4045C72.9897 85.0948 72.0638 83.9974 71.0992 82.9819C71.9431 78.2052 73.8278 68.2024 73.8278 68.2024L54.4158 61.0204Z" fill="#F79484"/>
<path d="M66.2711 78.7466C68.0294 79.3013 69.878 79.5612 71.7215 79.5307C72.634 74.536 73.8274 68.2024 73.8274 68.2024L54.4153 61.0204C54.4153 61.0204 54.2603 62.4089 54.0093 64.478C54.749 67.2797 55.7771 69.9702 57.4484 72.3221C59.5924 75.3405 62.7405 77.6326 66.2711 78.7466Z" fill="#F46F7C"/>
<path d="M89.8301 25.1817L92.3764 45.2038L93.822 40.5904C95.4685 35.3351 94.9481 29.6395 92.3764 24.7699L89.8301 25.1817Z" fill="#3F244A"/>
<path d="M71.3018 75.0418C62.8197 75.0418 55.1637 69.9562 51.8758 62.1369L49.7979 57.1962V35.2861C49.7979 23.5282 59.3291 13.997 71.087 13.997C82.8443 13.997 92.3756 23.5282 92.3756 35.2861V53.968C92.3756 65.6071 82.9409 75.0418 71.3018 75.0418Z" fill="#F79484"/>
<path d="M74.6315 37.7143C71.3449 39.5514 68.0589 41.3879 64.7729 43.225C65.383 41.806 66.1938 40.3292 67.1445 39.1116C68.0951 37.8947 69.4296 36.9002 70.9598 36.688C72.0737 36.5342 73.7094 37.0705 74.6315 37.7143Z" fill="#3F244A"/>
<path d="M75.3624 45.7103C75.3624 47.0829 74.568 48.1962 73.5882 48.1962C72.6083 48.1962 71.814 47.0829 71.814 45.7103C71.814 44.3377 72.6083 43.225 73.5882 43.225C74.568 43.225 75.3624 44.3377 75.3624 45.7103Z" fill="#3F244A"/>
<path d="M87.4194 37.7143C88.9395 39.5514 90.4595 41.3879 91.9789 43.225C91.6967 41.806 91.3218 40.3292 90.8821 39.1116C90.4423 37.8941 89.8253 36.9002 89.1174 36.688C88.6027 36.5342 87.8458 37.0705 87.4194 37.7143Z" fill="#3F244A"/>
<path d="M87.0811 45.7103C87.0811 47.0829 87.4483 48.1962 87.9014 48.1962C88.3545 48.1962 88.7218 47.0829 88.7218 45.7103C88.7218 44.3377 88.3545 43.225 87.9014 43.225C87.4483 43.225 87.0811 44.3377 87.0811 45.7103Z" fill="#3F244A"/>
<path d="M86.3342 55.4792C83.8908 55.4506 81.4443 55.6603 79.041 56.1045C79.6625 56.5683 80.3126 57.193 81.0173 57.5171C81.7226 57.8405 82.5202 58.0134 83.2802 57.8577C84.4678 57.6143 85.545 56.398 86.3342 55.4792Z" fill="#F46F7C"/>
<path d="M87.0233 60.5883C81.9408 61.5853 76.8584 62.583 71.7754 63.58C73.0686 64.497 74.1279 65.6618 75.5843 66.2865C77.0408 66.9118 78.6797 67.2238 80.2226 66.8641C81.6447 66.533 82.8928 65.6548 83.8955 64.5936C84.8989 63.533 86.2442 61.823 87.0233 60.5883Z" fill="white"/>
<path d="M50.8246 57.3443L51.6291 56.8563C54.3679 55.1952 56.0398 52.2244 56.0398 49.0217V47.2557C60.9856 42.9079 63.8204 36.641 63.8204 30.0564V27.1638H90.7696C95.0761 25.0572 97.8773 20.7558 98.0615 15.965L98.1899 12.6289C96.0745 13.7111 93.6203 13.7365 91.4496 12.77C89.2789 11.8034 87.4271 10.2605 85.5176 8.84661C81.5053 5.87456 77.0628 3.37975 72.2206 2.16602C67.3771 0.95293 62.0958 1.09591 57.5668 3.1961C53.0373 5.2963 49.3834 9.49606 48.5421 14.4171C44.6969 14.6744 41.1497 17.2982 39.0565 20.534C36.9633 23.7691 36.1512 27.7039 36.1379 31.5573C36.101 41.7673 42.0591 52.1094 50.8246 57.3443Z" fill="#3F244A"/>
<path d="M52.2445 52.8852C51.7412 51.0596 50.7988 49.3222 49.3696 48.0799C47.9405 46.8376 45.996 46.1348 44.1226 46.4099C42.2493 46.6851 40.5145 48.0214 39.975 49.8363C39.4482 51.6092 40.064 53.515 40.8557 55.1863C41.5681 56.6891 42.4469 58.1449 43.6835 59.257C44.9201 60.3697 46.5552 61.1132 48.2156 61.0109C49.721 60.9187 51.724 59.7965 52.4624 58.4055C53.2656 56.8925 52.6658 54.4129 52.2445 52.8852Z" fill="#F79484"/>
<path d="M43.4209 49.2066C45.0706 49.2523 46.691 49.9837 47.8164 51.1905C48.9424 52.3966 49.5601 54.0634 49.4921 55.7124C49.4629 56.4248 49.2678 57.2007 48.6863 57.6131C48.0356 58.0751 47.1015 57.9136 46.4438 57.4618C45.5319 56.8346 45.007 55.6864 45.1309 54.5864C45.2548 53.487 46.0218 52.4836 47.0506 52.0757C46.3961 50.67 44.9225 49.591 43.4209 49.2066Z" fill="#F46F7C"/>
</svg>
