<svg width="317" height="350" viewBox="0 0 317 350" fill="none" xmlns="http://www.w3.org/2000/svg">
<path d="M290.824 202.785C290.487 202.785 290.039 202.705 289.469 202.548C289.235 202.483 289.097 202.234 289.158 201.992C289.22 201.749 289.457 201.605 289.693 201.669C290.521 201.898 290.842 201.881 290.936 201.868C291.06 201.77 291.231 201.745 291.381 201.815C291.601 201.919 291.698 202.188 291.599 202.417C291.492 202.663 291.241 202.785 290.824 202.785Z" fill="#7A5E8F"/>
<path d="M45.8633 301.8C38.3317 299.641 30.0458 304.943 26.2808 308.871C32.1174 323.208 40.7793 339.903 45.8633 349.33C50.5714 347.17 49.0644 340.295 49.0644 335.386C49.0644 330.475 49.9123 320.361 52.6422 317.513C52.6422 310.835 47.559 305.728 45.8633 301.8Z" fill="#B98C24"/>
<path d="M50.25 326.26C50.0354 326.26 49.8491 326.095 49.8192 325.867C49.5893 324.12 47.2313 323.636 47.2079 323.63C46.9715 323.584 46.8158 323.346 46.8594 323.1C46.9037 322.853 47.1328 322.695 47.3676 322.737C47.4894 322.76 50.367 323.343 50.6824 325.744C50.7155 325.993 50.5485 326.222 50.3097 326.256L50.25 326.26Z" fill="#AD672A"/>
<path d="M49.7447 330.079C49.5301 330.079 49.3437 329.914 49.3139 329.687C49.0832 327.93 46.7267 327.454 46.7025 327.449C46.4661 327.403 46.3104 327.166 46.354 326.919C46.3984 326.673 46.6267 326.512 46.8622 326.555C46.9849 326.579 49.8616 327.163 50.1771 329.563C50.2101 329.812 50.0432 330.041 49.8044 330.074L49.7447 330.079Z" fill="#AD672A"/>
<path d="M49.7446 333.723C49.53 333.723 49.3437 333.558 49.3138 333.331C49.0831 331.574 46.7267 331.098 46.7025 331.093C46.4669 331.048 46.3104 330.811 46.354 330.563C46.3983 330.318 46.6234 330.155 46.8622 330.2C46.984 330.223 49.8616 330.806 50.177 333.207C50.2101 333.456 50.0431 333.685 49.8043 333.719L49.7446 333.723Z" fill="#AD672A"/>
<path d="M24.8419 291.133C16.1249 288.632 6.53576 294.77 2.17725 299.316C8.93327 315.908 18.9578 335.229 24.8419 346.14C30.2897 343.64 28.5464 335.683 28.5464 330.002C28.5464 324.319 29.5273 312.612 32.6873 309.317C32.6873 301.589 26.803 295.678 24.8419 291.133Z" fill="#F7B318"/>
<path d="M29.7481 321.084C29.5335 321.084 29.3471 320.92 29.3173 320.691C29.0866 318.935 26.7301 318.46 26.7059 318.455C26.4695 318.409 26.3138 318.172 26.3574 317.925C26.401 317.678 26.626 317.518 26.8656 317.56C26.9875 317.585 29.8651 318.167 30.1805 320.569C30.2136 320.817 30.0466 321.047 29.8078 321.08L29.7481 321.084Z" fill="#BE712C"/>
<path d="M29.2422 324.903C29.0276 324.903 28.8412 324.738 28.8114 324.51C28.5814 322.762 26.2242 322.278 26.2 322.273C25.9636 322.226 25.8079 321.989 25.8523 321.743C25.8966 321.496 26.1233 321.338 26.3597 321.379C26.4823 321.403 29.3591 321.986 29.6746 324.387C29.7076 324.636 29.5406 324.865 29.3018 324.899L29.2422 324.903Z" fill="#BE712C"/>
<path d="M29.2422 328.547C29.0276 328.547 28.8412 328.382 28.8114 328.154C28.5814 326.407 26.2242 325.923 26.2 325.918C25.9636 325.87 25.8079 325.633 25.8523 325.387C25.8966 325.14 26.1233 324.982 26.3597 325.023C26.4823 325.047 29.3591 325.63 29.6746 328.031C29.7076 328.28 29.5406 328.509 29.3018 328.543L29.2422 328.547Z" fill="#BE712C"/>
<path d="M90.7357 231.618C101.741 243.096 129.775 267.301 116.923 280.705C103.193 295.025 72.4657 308.89 51.9805 323.21C46.7505 319.8 44.6804 314.914 41.7383 311.845C46.0962 305.026 110.076 281.17 90.7357 231.618Z" fill="#211629"/>
<path d="M21.2174 217.071C21.2174 230.861 18.764 233.903 77.1687 266.935C56.8279 274.209 40.5562 280.272 20.7979 290.878C23.4131 302.698 28.3536 309.972 32.4211 318.457C47.8207 309.82 84.2857 295.119 99.7232 286.444C115.16 277.769 116.977 269.056 110.875 258.753C104.773 248.448 100.511 244.48 90.7363 231.618C82.2366 216.011 42.1382 174.49 21.2174 217.071Z" fill="#352342"/>
<path d="M88.3471 267.389L88.2551 267.38C81.9166 265.956 77.3401 267.356 77.2941 267.371C77.065 267.442 76.8197 267.307 76.7512 267.067C76.6818 266.827 76.8109 266.573 77.0416 266.501C77.2344 266.439 81.8658 265.014 88.4382 266.491C88.6738 266.544 88.823 266.786 88.773 267.031C88.7287 267.245 88.548 267.389 88.3471 267.389Z" fill="#211629"/>
<path d="M39.5233 120.847C30.9518 129.787 8.14178 149.032 1.45852 162.671C-5.22441 176.309 15.401 187.827 33.9157 193.584C46.4966 175.4 59.9843 141.505 39.5233 120.847Z" fill="#F79840"/>
<path d="M47.369 132.85C37.5906 146.272 35.1704 151.483 28.1785 153.786C21.1871 156.089 12.0446 169.481 10.9688 177.931C17.305 184.54 30.3551 190.307 38.9475 187.222C49.9666 175.729 52.8515 149.009 47.369 132.85Z" fill="#F78F36"/>
<path d="M7.28835 153.786C4.8509 156.89 2.81762 159.897 1.45852 162.671C-5.22441 176.309 15.401 187.827 33.9157 193.584C35.605 191.142 37.3096 188.415 38.9473 185.478C16.4539 185.407 10.4709 170.076 7.28835 153.786Z" fill="#D77F31"/>
<path d="M31.6771 82.9847C29.9346 75.2343 27.6104 55.5356 27.6104 48.2614C30.8059 42.6549 34.875 37.1991 33.7125 32.047C32.5492 26.8949 28.8455 24.0921 26.3027 26.7435C24.5594 24.9251 22.7216 24.613 21.653 25.727C20.6512 24.682 17.7302 24.7737 16.8586 27.5016C15.2243 27.5016 12.2823 28.8647 14.5704 36.2525C14.5704 41.1395 16.096 44.549 17.5125 47.7313C17.5125 55.1182 11.8464 86.7426 16.8586 97.0131C23.3962 97.9647 27.9726 91.8719 31.6771 82.9847Z" fill="#F68157"/>
<path d="M23.5599 42.8325C23.4152 42.8325 23.2983 42.7105 23.2983 42.5599C23.2983 40.2821 24.8676 37.582 27.416 35.4388C23.3251 33.0223 22.1651 30.9263 22.4304 29.845C22.5725 29.2661 23.0808 28.9329 23.8236 28.9329C25.9155 28.9329 31.8038 31.5708 32.0539 31.6827C32.1862 31.7433 32.2475 31.9031 32.1902 32.042C32.133 32.18 31.9789 32.2439 31.8466 32.1842C31.7861 32.1572 25.8082 29.479 23.8236 29.479C23.5387 29.479 23.0443 29.5437 22.9372 29.9813C22.7676 30.6713 23.61 32.6419 28.013 35.1611L28.3647 35.3623L28.0461 35.6164C25.4404 37.6964 23.8214 40.357 23.8214 42.5599C23.8214 42.7105 23.7045 42.8325 23.5599 42.8325Z" fill="#EC6F3E"/>
<path d="M25.6735 29.8214C25.5291 29.8214 25.4121 29.7003 25.4121 29.5488C25.4121 28.2606 26.0349 26.7031 26.0615 26.6375C26.118 26.4995 26.2713 26.4355 26.4044 26.4919C26.5367 26.5508 26.5996 26.7107 26.544 26.8495C26.5375 26.8647 25.9349 28.3725 25.9349 29.5488C25.9349 29.7003 25.8179 29.8214 25.6735 29.8214Z" fill="#EC6F3E"/>
<path d="M21.9253 38.7978C21.6621 38.7978 21.4235 38.6758 21.2354 38.4453C19.7282 36.5933 21.2197 26.794 21.3946 25.6824C21.4176 25.5343 21.5502 25.4325 21.6952 25.4586C21.8373 25.4822 21.934 25.6227 21.9104 25.7716C21.4462 28.7217 20.4905 36.6875 21.6341 38.0918C21.7516 38.2357 21.8565 38.2526 21.9253 38.2526C23.9387 38.2526 24.3114 36.4098 24.6865 33.3748C24.7043 33.2258 24.8333 33.1156 24.9794 33.1392C25.1222 33.1586 25.223 33.2949 25.2052 33.4446C24.8801 36.0766 24.5437 38.7978 21.9253 38.7978Z" fill="#EC6F3E"/>
<path d="M20.168 38.7667C20.0077 38.7667 19.8495 38.7348 19.6934 38.67C17.2729 37.6603 16.66 28.5534 16.5976 27.5185C16.5892 27.3678 16.6985 27.2383 16.8428 27.229C16.9896 27.2248 17.1109 27.3342 17.1201 27.4848C17.2827 30.2018 18.0973 37.4162 19.8875 38.1634C20.2415 38.3098 20.6256 38.1735 21.0671 37.7452C21.172 37.6434 21.3378 37.6484 21.4364 37.7595C21.5344 37.8697 21.5281 38.0423 21.4223 38.1458C20.9946 38.5589 20.5746 38.7667 20.168 38.7667Z" fill="#EC6F3E"/>
<path d="M25.3242 38.3039C24.9442 38.3039 24.6417 38.1701 24.4255 37.9084C23.985 37.3733 24.1084 36.4931 24.1133 36.4561C24.135 36.3072 24.2649 36.2062 24.4109 36.2281C24.5537 36.2508 24.6514 36.3896 24.6304 36.5386C24.6038 36.7237 24.5876 37.2689 24.8232 37.5542C24.9369 37.6913 25.1007 37.7578 25.3242 37.7578C25.4694 37.7578 25.5863 37.8798 25.5863 38.0304C25.5863 38.1819 25.4694 38.3039 25.3242 38.3039Z" fill="#EC6F3E"/>
<path d="M17.6866 39.8387C16.2584 39.8387 14.541 36.7523 14.3424 36.3863C14.2715 36.2559 14.3156 36.0893 14.4413 36.0144C14.5686 35.9412 14.7272 35.9866 14.7977 36.1179C15.509 37.428 16.9369 39.4424 17.7707 39.2859C18.1618 39.2101 18.4643 38.5555 18.6224 37.444C18.6436 37.2942 18.7781 37.1882 18.9193 37.2134C19.0624 37.2353 19.1607 37.375 19.14 37.5231C18.9383 38.9426 18.5216 39.6948 17.8661 39.8219L17.6866 39.8387Z" fill="#EC6F3E"/>
<path d="M71.994 117.399C60.2263 108.648 44.5354 99.3733 31.677 82.9848C27.319 90.2362 23.1783 97.0131 16.8584 97.0131C23.8322 107.284 39.741 127.74 44.4265 140.015C42.5734 160.472 39.741 172.519 34.7288 182.294C29.7158 192.068 19.4737 195.022 21.217 217.071C27.9725 207.296 45.4067 197.068 57.6108 206.16C69.815 215.252 78.0961 221.616 90.7351 231.618C92.4792 223.889 92.2614 219.798 87.9027 212.524C83.5439 205.251 92.4058 179.339 97.2002 170.473C99.9971 179.339 103.375 190.704 103.375 193.886C107.08 192.068 115.035 179.452 116.669 177.748C114.271 166.609 112.528 150.017 110.349 140.697C109.007 134.956 106.571 131.378 92.9875 125.354C83.9796 122.968 78.1606 121.84 71.994 117.399Z" fill="#C8E0CA"/>
<path d="M76.856 206.977C73.801 206.977 69.9077 205.287 65.7288 198.79C66.634 198.424 67.5246 198.025 68.408 197.605C72.1698 203.12 75.8783 206.615 79.3311 206.615C78.5889 206.83 77.7588 206.977 76.856 206.977ZM65.0681 197.727C63.0449 194.357 60.9619 189.836 58.8821 183.819C59.3509 183.59 59.8252 183.372 60.3044 183.17C62.7399 188.159 65.2142 192.739 67.6714 196.503C66.8107 196.931 65.9459 197.344 65.0681 197.727ZM58.7272 183.369C57.6793 180.3 56.633 176.851 55.5947 172.973C57.0759 176.331 58.5877 179.634 60.1156 182.78C59.6485 182.966 59.1871 183.163 58.7272 183.369Z" fill="#5D9C62"/>
<path d="M58.8824 183.819C58.8308 183.67 58.7792 183.521 58.7275 183.369C59.1874 183.163 59.6488 182.966 60.1159 182.78C60.1788 182.911 60.2418 183.04 60.3047 183.17C59.8255 183.372 59.3511 183.59 58.8824 183.819Z" fill="#41AE92"/>
<path d="M65.7296 198.79C65.5101 198.45 65.2891 198.095 65.0688 197.727C65.9466 197.345 66.8114 196.931 67.6722 196.503C67.9182 196.879 68.1635 197.246 68.4087 197.605C67.5253 198.025 66.6347 198.424 65.7296 198.79Z" fill="#41AE92"/>
<path d="M104.901 87.2373C109.84 83.7513 116.305 73.7189 112.674 69.9308C109.042 66.1426 105.41 67.9601 98.2911 66.2941C91.1717 64.6272 81.0755 64.703 77.0798 68.8697C73.084 73.0373 63.4936 76.5983 65.9647 82.0533C68.4349 87.5091 68.1436 94.4795 72.0667 100.693C82.818 99.4801 100.543 89.9652 104.901 87.2373Z" fill="#261635"/>
<path d="M97.2004 77.4212C103.356 78.0641 107.359 83.3331 105.61 99.0443C103.722 115.996 99.2341 118.422 92.9876 119.331C92.4245 121.604 92.406 123.195 92.9876 125.354C91.1717 129.105 79.5128 147.403 71.9941 117.399C74.7548 117.399 74.9363 109.519 73.6649 103.142C70.0693 103.142 66.9819 101.98 66.9819 95.3883C66.9819 88.7965 72.358 89.4402 74.3191 94.2137C76.2803 88.3034 75.3719 88.8723 75.3719 85.2356C75.3719 81.5989 82.196 75.8536 97.2004 77.4212Z" fill="#F68157"/>
<path d="M95.4385 95.4783C96.6752 96.3298 97.9926 97.9546 97.9377 99.5853C97.7877 101.73 95.0722 101.483 93.6943 101.01C94.6221 100.846 96.9898 100.911 97.0689 99.5197C97.1842 98.1557 96.0419 96.6134 95.4385 95.4783Z" fill="#EC6F3E"/>
<path d="M97.5094 106.244C95.3304 106.244 91.2879 106.244 89.355 103.459C89.355 108.232 94.1687 111.32 97.5094 106.244Z" fill="white"/>
<path d="M99.3989 91.9291C99.9217 90.3195 102.385 90.4962 102.558 92.2329C102.085 92.0225 101.575 91.6725 101.04 91.6994C100.505 91.6186 99.9217 91.8282 99.3989 91.9291Z" fill="#EC6F3E"/>
<path d="M97.8184 89.5731C98.7098 86.5473 103.5 87.0084 103.412 90.3304C102.548 89.9375 101.773 89.34 100.789 89.314C99.865 89.1154 98.7445 89.4873 97.8184 89.5731Z" fill="#261635"/>
<path d="M89.7578 92.0007C88.9736 91.9123 88.204 91.7323 87.4159 91.6776C86.7584 91.6313 86.1832 91.8257 85.5596 92.0007C86.2493 90.1933 88.8865 90.5787 89.7578 92.0007Z" fill="#EC6F3E"/>
<path d="M90.989 89.1297C90.989 88.9698 87.2191 88.6593 86.8295 88.64C85.379 88.7014 84.4787 89.319 83.2896 90.099C83.588 85.8734 89.24 86.0938 90.989 89.1297Z" fill="#261635"/>
<path d="M92.9871 119.331C89.7626 120.312 86.0961 119.539 83.1539 118.036C80.3336 116.596 78.3781 113.937 77.1519 110.997C77.9779 112.118 78.7185 113.295 79.6995 114.284C80.9717 115.57 82.3641 116.597 83.9437 117.428C86.5769 118.93 90.0159 119.457 92.9871 119.331Z" fill="#EC6F3E"/>
<path d="M72.8303 97.093C71.813 94.631 70.16 92.7058 69.4977 94.9945C68.8354 97.2823 70.2875 101.109 72.068 99.7831C71.5597 98.4191 72.1043 97.3581 72.8303 97.093Z" fill="#EC6F3E"/>
<path d="M88.7623 93.7929C88.7373 94.535 88.2234 95.1181 87.6136 95.0971C87.0045 95.0761 86.5309 94.4568 86.5535 93.7146C86.5785 92.9725 87.0924 92.3885 87.7015 92.4096C88.3122 92.4315 88.7857 93.0507 88.7623 93.7929Z" fill="#261635"/>
<path d="M102.082 94.0252C102.057 94.7665 101.544 95.3504 100.934 95.3294C100.325 95.3075 99.8502 94.6891 99.8744 93.9469C99.8978 93.2048 100.413 92.6208 101.022 92.6419C101.631 92.6637 102.106 93.283 102.082 94.0252Z" fill="#261635"/>
<path d="M127.13 150.547C125.071 150.027 123.756 149.872 122.17 149.872C116.455 158.283 94.9864 192.961 93.0244 198.424C94.2208 199.548 95.109 199.822 96.7846 200.932C101.632 199.34 120.374 171.459 127.13 150.547Z" fill="white"/>
<path d="M151.32 177.597C145 166.231 135.629 156.23 127.13 150.547C118.413 162.821 103.051 187.975 96.7842 200.932C108.606 208.887 119.012 213.661 126.122 215.934C134.975 204.342 143.257 193.508 151.32 177.597Z" fill="#2E9E85"/>
<path d="M92.9871 199.761L92.8144 199.721C92.6136 199.621 92.5272 199.37 92.6232 199.16C100.853 181.049 122.268 149.065 122.484 148.744C122.612 148.553 122.863 148.508 123.046 148.641C123.228 148.774 123.272 149.036 123.145 149.226C122.93 149.547 101.553 181.473 93.3517 199.52C93.2831 199.673 93.1387 199.761 92.9871 199.761Z" fill="#2E9E85"/>
<path d="M94.2263 200.303L94.1327 200.281C94.0238 200.227 93.9778 200.092 94.0295 199.978C102.252 181.881 123.659 149.911 123.874 149.59C123.943 149.486 124.079 149.461 124.178 149.534C124.276 149.606 124.3 149.747 124.231 149.85C124.016 150.171 102.631 182.11 94.4232 200.173C94.3852 200.254 94.3078 200.303 94.2263 200.303Z" fill="#D9D8D9"/>
<path d="M95.5917 200.807L95.4981 200.785C95.3892 200.732 95.3424 200.597 95.3941 200.483C103.618 182.386 125.024 150.415 125.24 150.094C125.308 149.99 125.445 149.966 125.543 150.038C125.642 150.111 125.666 150.252 125.596 150.355C125.382 150.675 103.996 182.614 95.7886 200.677C95.7506 200.759 95.6732 200.807 95.5917 200.807Z" fill="#D9D8D9"/>
<path d="M21.2151 171.867C20.0154 171.867 18.9348 171.001 18.6641 169.73C18.3515 168.259 19.2414 166.802 20.6516 166.476C47.7675 160.208 64.1384 113.18 64.3005 112.706C64.7862 111.285 66.2835 110.547 67.6428 111.053C69.003 111.559 69.7121 113.12 69.2272 114.538C68.5254 116.591 51.6922 164.889 21.7832 171.802C21.5929 171.847 21.4023 171.867 21.2151 171.867Z" fill="#C7762F"/>
<path d="M97.1978 173.201C96.7113 173.201 96.2184 173.059 95.7795 172.763C94.567 171.944 94.2201 170.255 95.0051 168.991C106.375 150.669 101.936 132.464 101.891 132.283C101.521 130.827 102.353 129.333 103.748 128.948C105.146 128.562 106.577 129.43 106.946 130.886C107.158 131.723 112.01 151.628 99.3953 171.955C98.8951 172.761 98.0553 173.201 97.1978 173.201Z" fill="#C7762F"/>
<path d="M140.598 196.029C141.917 197.404 143.909 203.507 138.607 200.629C139.842 204.114 139.842 206.615 137.59 206.237C137.59 207.904 137.008 209.57 135.265 209.57C134.467 211.768 133.832 211.656 131.815 211.428C131.815 213.206 130.798 214.948 128.493 212.924C125.505 210.3 124.052 202.41 127.13 203.13C127.13 201.69 127.566 199.758 129.236 200.932C129.599 199.266 130.22 198.62 131.273 199.34C131.273 197.446 131.525 195.667 137.822 200.122C138.887 198.576 139.609 197.539 140.598 196.029Z" fill="#F68157"/>
<path d="M137.59 206.509L137.442 206.461C133.409 203.58 131.072 199.52 131.048 199.479C130.974 199.35 131.015 199.183 131.139 199.106C131.264 199.028 131.425 199.073 131.498 199.201C131.52 199.241 133.804 203.201 137.738 206.011C137.857 206.097 137.888 206.266 137.806 206.391C137.755 206.467 137.673 206.509 137.59 206.509Z" fill="#EC6F3E"/>
<path d="M135.265 209.842L135.081 209.762C129.677 204.125 129.007 201.115 128.981 200.99C128.951 200.842 129.04 200.698 129.181 200.666C129.324 200.637 129.461 200.727 129.492 200.874C129.498 200.904 130.182 203.881 135.45 209.376C135.552 209.483 135.552 209.655 135.45 209.762L135.265 209.842Z" fill="#EC6F3E"/>
<path d="M132.037 211.724L131.9 211.684C127.598 208.927 126.898 203.398 126.87 203.164C126.852 203.015 126.954 202.878 127.097 202.86C127.244 202.84 127.371 202.947 127.389 203.096C127.395 203.152 128.09 208.601 132.175 211.22C132.297 211.298 132.336 211.466 132.26 211.595C132.211 211.678 132.125 211.724 132.037 211.724Z" fill="#EC6F3E"/>
<path d="M241.786 298.139C246.429 302.447 250.048 306.721 251.996 312.296C244.431 322.434 233.813 332.37 227.961 338.579C224.877 334.682 227.425 329.681 229.231 324.738C231.037 319.791 228.963 308.008 227.941 304.447C231.673 301.232 238.127 299.185 241.786 298.139Z" fill="#91783E"/>
<path d="M250.097 310.632C243.389 319.271 236.066 327.405 228.315 335.034C231.751 330.784 235.352 326.687 238.995 322.63C242.658 318.595 246.295 314.527 250.097 310.632Z" fill="#FDE2C5"/>
<path d="M261.903 221.043C264.87 215.351 268.037 210.7 272.8 207.458C283.985 212.838 295.677 221.363 302.802 225.895C299.865 229.914 294.618 228.463 289.591 227.751C284.562 227.042 274.032 231.826 270.939 233.677C267.088 230.613 263.711 224.523 261.903 221.043Z" fill="#91783E"/>
<path d="M272.428 209.661C282.079 214.394 291.136 220.316 299.711 226.91C294.917 224.043 290.242 220.958 285.517 217.97C281.15 215.21 276.784 212.446 272.428 209.661Z" fill="#FDE2C5"/>
<path d="M256.588 185.621C257.482 195.843 255.169 207.458 243.41 232C253.075 222.756 257.385 221.292 261.451 218.92C268.565 224.577 275.542 231.098 280.677 238.357C271.712 243.477 233.83 269.31 223.555 266.206C228.582 278.37 236.545 286.519 243.026 298.481C234.637 309.956 228.397 311.347 221.611 312.301C216.328 301.974 199.837 273.657 194.88 265.855C189.925 258.059 188.117 249.799 189.268 239.606C190.421 229.413 192.309 207.72 192.997 195.843C209.026 180.462 244.461 170.077 256.588 185.621Z" fill="white"/>
<path d="M223.555 266.888L223.37 266.859C217.573 265.063 209.429 257.636 210.364 247.401C211.82 231.465 217.158 183.655 217.212 183.174C217.253 182.799 217.573 182.528 217.936 182.577C218.296 182.619 218.553 182.959 218.51 183.332C218.457 183.813 213.122 231.608 211.666 247.531C210.77 257.343 219.09 264.11 223.742 265.553C224.088 265.659 224.284 266.039 224.182 266.4C224.097 266.696 223.838 266.888 223.555 266.888Z" fill="#404040"/>
<path d="M234.741 249.354C234.649 249.354 234.557 249.334 234.468 249.292C234.14 249.134 233.998 248.729 234.148 248.387C237.278 241.299 242.794 231.744 242.849 231.648C243.037 231.326 243.439 231.224 243.747 231.416C244.056 231.611 244.155 232.03 243.97 232.353C243.914 232.447 238.435 241.939 235.337 248.957C235.226 249.207 234.988 249.354 234.741 249.354Z" fill="#404040"/>
<path d="M229.7 50.9834C222.936 45.6008 205.246 48.0106 199.77 75.0189C194.293 102.027 158.902 114.012 167.985 139.577C173.393 132.182 196.183 146.027 216.529 146.027C235.158 146.027 243.378 137.243 270.569 146.831C268.825 130.641 252.234 126.818 254.48 101.79C255.361 91.9687 251.179 82.1887 249.354 68.0535C247.767 55.7653 240.21 49.5075 229.7 50.9834Z" fill="#261635"/>
<path d="M150.218 21.307C152.751 12.8851 153.419 11.7609 153.963 8.93877C148.327 4.45563 134.889 2.00709 128.606 0.486622C125.658 12.0571 121.158 30.5375 119.828 36.9021C125.599 41.4912 139.481 43.9246 141.498 45.5284C143.85 39.5349 149.764 29.2661 150.218 21.307Z" fill="#2E9E86"/>
<path d="M183.463 85.7135C177.824 81.2287 168.973 73.7567 165.247 70.7924C160.25 58.855 151.647 43.8464 148.663 36.027C149.884 30.1917 152.82 24.889 150.218 21.307C149.336 24.6912 148.699 26.7536 147.65 28.1882C142.712 25.6227 138.11 21.206 136.641 23.2145C135.173 25.223 139.645 28.6274 141.661 30.2312C139.424 33.2915 140.174 37.8209 142.225 40.9645C145.156 49.6489 151.948 71.6607 155.937 78.3249C159.923 84.9882 169.732 97.4809 175.45 102.027C179.856 96.0025 183.565 93.5077 183.463 85.7135Z" fill="#F68157"/>
<path d="M254.863 99.6493C260.688 97.316 267.92 94.8355 272.787 93.5363C278.414 83.4484 287.017 73.1829 289.067 67.595C288.956 59.5812 290.63 56.1574 290.63 54.3668C290.63 50.2792 289.637 44.3698 291.697 43.8591C293.028 43.5284 293.815 44.5027 294.468 52.1143C298.871 47.2828 302.832 38.2375 304.183 39.3128C305.536 40.3865 302.495 45.1464 300.339 49.9064C304.183 46.5962 308.912 40.0061 310.094 41.2363C311.257 42.4488 306.415 47.3459 303.966 52.4391C309.807 48.4869 312.847 45.0514 313.988 46.2411C315.136 47.4385 309.346 52.1783 306.744 55.735C311.725 54.0707 315.854 50.9389 316.116 52.9507C316.375 54.9609 310.063 57.2975 307.275 59.8572C304.488 62.4176 301.628 67.998 298.795 70.2026C295.962 72.408 285.463 102.589 279.602 107.268C273.737 111.945 264.575 115.048 258.178 117.382C253.87 109.065 255.326 103.22 254.863 99.6493Z" fill="#F68157"/>
<path d="M296.283 64.3992L296.154 64.363C296.028 64.2873 295.985 64.1215 296.056 63.9903C298.494 59.5601 294.289 52.3297 294.246 52.2574C294.17 52.1286 294.208 51.9612 294.332 51.8821C294.453 51.803 294.615 51.8417 294.692 51.9713C294.873 52.2784 299.101 59.5534 296.511 64.2621C296.463 64.3496 296.375 64.3992 296.283 64.3992Z" fill="#EC6F3E"/>
<path d="M306.744 58.3931C306.663 58.3931 306.58 58.3518 306.53 58.2761C302.487 52.2254 297.04 49.9308 296.985 49.9089C296.851 49.8534 296.785 49.6943 296.838 49.5547C296.891 49.4142 297.045 49.346 297.177 49.4007C297.234 49.4234 302.821 51.7718 306.959 57.9639C307.042 58.0876 307.012 58.2576 306.894 58.3434L306.744 58.3931Z" fill="#EC6F3E"/>
<path d="M254.864 99.6493C248.61 102.819 238.334 106.065 227.898 107.531C220.442 108.579 210.514 105.942 207.12 103.242C199.79 99.3809 192.58 92.9641 183.463 85.7135C177.694 93.6036 171.389 101.15 169.952 107.226C176.672 109.579 183.405 115.841 188.684 122.308C190.772 138.49 191.51 146.11 194.335 156.525C197.16 166.939 192.896 181.699 192.997 195.843C203.297 187.702 244.074 175.667 256.588 185.621C255.75 177.323 254.864 171.412 247.793 163.341C244.249 159.294 237.838 146.294 242.187 128.95C252.84 124.107 255.941 121.355 262.891 121.665C262.108 115.596 259.195 108.333 254.864 99.6493Z" fill="#F7B318"/>
<path d="M188.684 122.308C188.368 118.498 189.537 113.43 192.552 110.997C190.511 114.468 189.791 118.455 188.684 122.308Z" fill="#B88A22"/>
<path d="M219.131 171.099C213.516 171.099 208.155 169.541 204.606 166.049L204.643 166.066L204.101 163.959C207.82 166.661 212.384 167.743 217.475 167.743C224.148 167.743 231.728 165.886 239.515 163.381C237.848 165.12 235.729 166.607 233.343 167.798L232.863 166.482L231.618 168.589C231.401 168.681 231.181 168.77 230.961 168.856L228.835 168.967L229.246 169.472C226.013 170.528 222.526 171.099 219.131 171.099Z" fill="#B88A22"/>
<path d="M229.246 169.472L228.835 168.967L230.961 168.856C230.398 169.077 229.827 169.282 229.246 169.472ZM231.617 168.589L232.862 166.482L233.343 167.798C232.781 168.079 232.206 168.343 231.617 168.589Z" fill="#B88A22"/>
<path d="M204.643 166.066L204.606 166.049C203.414 164.878 202.428 163.488 201.704 161.866C202.457 162.651 203.257 163.346 204.101 163.959L204.643 166.066Z" fill="#B88A22"/>
<path d="M241.007 77.5146C242.341 69.0338 229.868 63.4374 225.299 55.6264C219.589 57.2201 213.887 58.4343 209.182 69.0002C208.267 66.5541 206.896 65.6908 205.438 67.5537C203.711 69.7625 203.097 76.5798 206.701 77.2739C206.539 78.1204 206.387 78.9913 206.256 79.9135C205.529 85.0505 207.061 90.7066 209.71 94.2885C209.998 98.0295 209.616 100.002 208.049 103.66C208.049 118.527 223.043 118.64 227.898 107.531C226.262 106.232 226.023 103.002 226.491 99.8386C231.736 98.2306 236.231 93.3739 238.697 86.5617C241.462 87.5874 243.851 85.6866 244.872 80.9283C245.851 76.3694 243.506 76.0715 241.007 77.5146Z" fill="#F68157"/>
<path d="M223.371 78.1507C224.357 79.3868 225.216 81.3052 225.047 82.9418C224.817 85.1582 222.568 84.3857 221.45 83.424C222.58 83.652 224.264 84.2873 224.196 82.49C224.16 81.0276 223.648 79.577 223.371 78.1507Z" fill="#EC6F3E"/>
<path d="M219.847 73.3604C219.258 73.0676 218.633 72.6881 217.985 72.5645C217.344 72.3389 216.658 72.4079 215.998 72.3288C217.099 71.0541 219.534 71.5817 219.847 73.3604Z" fill="#EC6F3E"/>
<path d="M221.45 71.5783C220.407 71.0373 219.362 70.6797 218.24 70.3709C217.082 70.1757 215.902 70.2447 214.749 70.0528C215.575 68.9245 216.955 68.3969 218.289 68.5475C219.744 68.7116 221.384 69.9258 221.45 71.5783Z" fill="#261635"/>
<path d="M230.379 76.5403C231.474 75.1376 233.85 75.9041 234.225 77.5727C233.609 77.311 233.044 76.9063 232.377 76.7801C231.751 76.5613 231.028 76.5798 230.379 76.5403Z" fill="#EC6F3E"/>
<path d="M229.683 73.6019C230.496 72.2026 232.242 72.0949 233.597 72.4323C234.953 72.9548 236.038 74.1101 236.26 75.6382C235.16 75.2242 234.156 74.5729 233.054 74.1589C232.809 74.0958 229.683 73.4302 229.683 73.6019Z" fill="#261635"/>
<path d="M232.878 79.152C232.728 79.8773 232.123 80.357 231.526 80.2223C230.931 80.0885 230.569 79.391 230.719 78.6657C230.87 77.9404 231.475 77.4607 232.072 77.5945C232.667 77.73 233.028 78.4267 232.878 79.152Z" fill="#261635"/>
<path d="M218.692 75.0307C218.599 75.767 218.033 76.2954 217.428 76.2129C216.823 76.1305 216.409 75.4666 216.5 74.7312C216.593 73.9949 217.16 73.4648 217.763 73.5473C218.368 73.6306 218.783 74.2945 218.692 75.0307Z" fill="#261635"/>
<path d="M217.276 87.435C217.276 87.435 223.146 90.932 226.49 88.0535C223.941 93.2056 218.584 92.2085 217.276 87.435Z" fill="white"/>
<path d="M209.71 94.2886C211.752 96.616 214.508 98.4267 217.393 99.3548C220.272 100.559 223.506 100.121 226.491 99.8386C223.57 100.909 220.11 101.404 217.132 100.221C214.22 99.2277 211.201 97.1755 209.71 94.2886Z" fill="#EC6F3E"/>
<path d="M240.658 80.245C242.056 78.7868 243.728 78.5226 243.545 80.245C243.219 83.3524 241.257 85.3416 239.514 84.4606C240.21 83.7353 240.985 81.7403 240.658 80.245Z" fill="#EC6F3E"/>
<path d="M208.72 71.9578C208.4 69.9232 207.192 68.6922 206.375 70.2017C204.904 72.9246 205.385 75.7341 207.293 76.0782C207.134 75.0668 207.619 72.9742 208.72 71.9578Z" fill="#EC6F3E"/>
</svg>
